{
.appVersion = "895";
copyright = "Copyright (c) 2010, The Josefin Sans Project Authors (hi@typemade.mx), with Reserved Font Name Josefin";
customParameters = (
{
name = licenseURL;
value = "http://scripts.sil.org/OFL";
},
{
name = trademark;
value = "Josefin Sans is a trademark of Typemade.";
},
{
name = license;
value = "This Font Software is licensed under the SIL Open Font License, Version 1.1. This license is available with a FAQ at: http://scripts.sil.org/OFL";
},
{
name = fsType;
value = "0";
},
{
name = "Use Typo Metrics";
value = 1;
}
);
date = "2016-08-26 16:26:52 +0000";
designer = "Santiago Orozco";
designerURL = "http://www.typemade.mx";
familyName = "Josefin Sans";
featurePrefixes = (
{
automatic = 1;
code = "languagesystem DFLT dflt;\012";
name = Languagesystems;
}
);
features = (
{
automatic = 1;
code = "feature sups;\012feature frac;\012feature ordn;\012";
name = aalt;
},
{
automatic = 1;
code = "sub one by onesuperior;\012sub two by twosuperior;\012sub three by threesuperior;\012";
name = sups;
},
{
automatic = 1;
code = "sub one slash four by onequarter;\012sub one slash two by onehalf;\012sub three slash four by threequarters;\012";
name = frac;
},
{
automatic = 1;
code = "sub [zero one two three four five six seven eight nine] [A a]' by ordfeminine;\012sub [zero one two three four five six seven eight nine] [O o]' by ordmasculine;\012";
name = ordn;
},
{
automatic = 1;
code = "sub f i by fi;\012sub f l by fl;\012";
name = liga;
}
);
fontMaster = (
{
alignmentZones = (
"{700, 32}",
"{375, 5}",
"{0, -7}",
"{-250, 0}"
);
ascender = 750;
capHeight = 700;
customParameters = (
{
name = typoDescender;
value = -250;
},
{
name = typoLineGap;
value = 0;
},
{
name = hheaLineGap;
value = 0;
},
{
name = hheaAscender;
value = 750;
},
{
name = typoAscender;
value = 750;
},
{
name = hheaDescender;
value = -250;
},
{
name = winDescent;
value = 271;
},
{
name = winAscent;
value = 991;
}
);
descender = -250;
horizontalStems = (
126,
24,
217
);
id = UUID0;

glyphs = (
{
glyphname = A;
lastChange = "2016-08-26 20:41:54 +0000";
layers = (
{
hints = (
{
horizontal = 1;
place = "{0, 21}";
target = up;
type = BottomGhost;
},
{
horizontal = 1;
place = "{732, -20}";
target = down;
type = TopGhost;
}
);
layerId = UUID0;
paths = (
{
closed = 1;
nodes = (
"620 0 LINE",
"547 244 OFFCURVE",
"493 488 OFFCURVE",
"420 732 CURVE",
"287 488 OFFCURVE",
"173 244 OFFCURVE",
"40 0 CURVE",
"55 0 LINE",
"178 225 OFFCURVE",
"281 450 OFFCURVE",
"404 675 CURVE",
"408 683 OFFCURVE",
"412 692 OFFCURVE",
"416 700 CURVE",
"418 692 OFFCURVE",
"420 683 OFFCURVE",
"422 675 CURVE",
"489 450 OFFCURVE",
"538 225 OFFCURVE",
"605 0 CURVE"
);
},
{
closed = 1;
nodes = (
"215 318 LINE",
"524 318 LINE",
"526 332 LINE",
"217 332 LINE"
);
}
);
width = 660;
},
{
hints = (
{
horizontal = 1;
place = "{0, 21}";
target = up;
type = BottomGhost;
},
{
horizontal = 1;
place = "{732, -20}";
target = down;
type = TopGhost;
}
);
layerId = UUID1;
paths = (
{
closed = 1;
nodes = (
"704 0 LINE",
"704 0 OFFCURVE",
"463 770 OFFCURVE",
"463 770 CURVE",
"463 770 OFFCURVE",
"32 0 OFFCURVE",
"32 0 CURVE",
"180 0 LINE",
"180 0 OFFCURVE",
"408 417 OFFCURVE",
"408 417 CURVE",
"408 417 OFFCURVE",
"419 443 OFFCURVE",
"424 458 CURVE",
"425 443 OFFCURVE",
"430 417 OFFCURVE",
"430 417 CURVE",
"430 417 OFFCURVE",
"556 0 OFFCURVE",
"556 0 CURVE"
);
},
{
closed = 1;
nodes = (
"254 161 LINE",
"531 161 LINE",
"495 286 LINE",
"314 286 LINE"
);
}
);
width = 736;
}
);
unicode = 0041;
},
{
glyphname = Aring;
lastChange = "2016-08-26 20:41:54 +0000";
layers = (
{
components = (
{
name = A;
}
);
hints = (
{
place = "{308, 126}";
},
{
horizontal = 1;
place = "{775, 126}";
}
);
layerId = UUID0;
paths = (
{
closed = 1;
nodes = (
"370 827 LINE SMOOTH",
"370 795 OFFCURVE",
"393 771 OFFCURVE",
"426 771 CURVE SMOOTH",
"465 771 OFFCURVE",
"497 802 OFFCURVE",
"497 841 CURVE SMOOTH",
"497 873 OFFCURVE",
"474 897 OFFCURVE",
"441 897 CURVE SMOOTH",
"402 897 OFFCURVE",
"370 866 OFFCURVE",
"370 827 CURVE SMOOTH"
);
},
{
closed = 1;
nodes = (
"384 830 LINE SMOOTH",
"384 858 OFFCURVE",
"411 883 OFFCURVE",
"439 883 CURVE SMOOTH",
"463 883 OFFCURVE",
"483 862 OFFCURVE",
"483 838 CURVE SMOOTH",
"483 810 OFFCURVE",
"455 785 OFFCURVE",
"427 785 CURVE SMOOTH",
"403 785 OFFCURVE",
"384 806 OFFCURVE",
"384 830 CURVE SMOOTH"
);
}
);
width = 700;
},
{
components = (
{
name = A;
}
);
hints = (
{
place = "{339, 65}";
},
{
horizontal = 1;
place = "{805, 65}";
}
);
layerId = UUID1;
paths = (
{
closed = 1;
nodes = (
"378 847 LINE SMOOTH",
"378 800 OFFCURVE",
"415 761 OFFCURVE",
"462 761 CURVE SMOOTH",
"516 761 OFFCURVE",
"569 810 OFFCURVE",
"569 865 CURVE SMOOTH",
"569 911 OFFCURVE",
"532 950 OFFCURVE",
"486 950 CURVE SMOOTH",
"431 950 OFFCURVE",
"378 901 OFFCURVE",
"378 847 CURVE SMOOTH"
);
},
{
closed = 1;
nodes = (
"445 851 LINE SMOOTH",
"445 870 OFFCURVE",
"459 884 OFFCURVE",
"478 884 CURVE SMOOTH",
"493 884 OFFCURVE",
"503 874 OFFCURVE",
"503 858 CURVE SMOOTH",
"503 840 OFFCURVE",
"489 826 OFFCURVE",
"470 826 CURVE SMOOTH",
"455 826 OFFCURVE",
"445 837 OFFCURVE",
"445 851 CURVE SMOOTH"
);
}
);
width = 765;
}
);
unicode = 00C5;
},
{
glyphname = AE;
lastChange = "2016-08-26 20:41:54 +0000";
layers = (
{
hints = (
{
horizontal = 1;
place = "{0, 21}";
target = up;
type = BottomGhost;
},
{
horizontal = 1;
place = "{700, -20}";
target = down;
type = TopGhost;
}
);
layerId = UUID0;
paths = (
{
closed = 1;
nodes = (
"317 0 LINE",
"586 0 LINE",
"588 14 LINE",
"333 14 LINE",
"373 346 LINE",
"575 346 LINE",
"577 360 LINE",
"375 360 LINE",
"415 686 LINE",
"656 686 LINE",
"658 700 LINE",
"403 700 LINE"
);
},
{
closed = 1;
nodes = (
"403 700 LINE",
"270 456 OFFCURVE",
"173 244 OFFCURVE",
"40 0 CURVE",
"55 0 LINE",
"178 225 OFFCURVE",
"282 450 OFFCURVE",
"404 675 CURVE SMOOTH",
"408 683 OFFCURVE",
"412 692 OFFCURVE",
"416 700 CURVE"
);
},
{
closed = 1;
nodes = (
"215 318 LINE",
"364 318 LINE",
"366 332 LINE",
"217 332 LINE"
);
}
);
width = 655;
},
{
hints = (
{
horizontal = 1;
place = "{0, 21}";
target = up;
type = BottomGhost;
},
{
horizontal = 1;
place = "{700, -20}";
target = down;
type = TopGhost;
}
);
layerId = UUID1;
paths = (
{
closed = 1;
nodes = (
"353 0 LINE",
"779 0 LINE",
"796 139 LINE",
"510 139 LINE",
"530 299 LINE",
"761 299 LINE",
"778 437 LINE",
"547 437 LINE",
"567 601 LINE",
"839 601 LINE",
"855 736 LINE",
"443 736 LINE"
);
},
{
closed = 1;
nodes = (
"443 736 LINE",
"443 736 OFFCURVE",
"32 0 OFFCURVE",
"32 0 CURVE",
"180 0 LINE",
"180 0 OFFCURVE",
"408 417 OFFCURVE",
"408 417 CURVE SMOOTH",
"408 417 OFFCURVE",
"419 443 OFFCURVE",
"424 458 CURVE"
);
},
{
closed = 1;
nodes = (
"254 161 LINE",
"390 161 LINE",
"404 276 LINE",
"313 276 LINE"
);
}
);
width = 860;
}
);
unicode = 00C6;
},
{
glyphname = B;
lastChange = "2016-08-26 20:41:54 +0000";
layers = (
{
hints = (
{
place = "{418, 41}";
},
{
horizontal = 1;
place = "{0, 21}";
target = up;
type = BottomGhost;
},
{
horizontal = 1;
place = "{700, -20}";
target = down;
type = TopGhost;
}
);
layerId = UUID0;
paths = (
{
closed = 1;
nodes = (
"172 700 LINE",
"86 0 LINE",
"249 0 LINE SMOOTH",
"367 0 OFFCURVE",
"484 69 OFFCURVE",
"484 198 CURVE SMOOTH",
"484 285 OFFCURVE",
"423 336 OFFCURVE",
"350 352 CURVE",
"454 379 OFFCURVE",
"490 463 OFFCURVE",
"490 548 CURVE SMOOTH",
"490 656 OFFCURVE",
"417 700 OFFCURVE",
"307 700 CURVE SMOOTH"
);
},
{
closed = 1;
nodes = (
"102 14 LINE",
"142 344 LINE",
"271 344 LINE SMOOTH",
"376 344 OFFCURVE",
"470 298 OFFCURVE",
"470 194 CURVE SMOOTH",
"470 74 OFFCURVE",
"366 14 OFFCURVE",
"250 14 CURVE SMOOTH"
);
},
{
closed = 1;
nodes = (
"144 358 LINE",
"184 686 LINE",
"317 686 LINE SMOOTH",
"412 686 OFFCURVE",
"477 647 OFFCURVE",
"477 551 CURVE SMOOTH",
"477 440 OFFCURVE",
"409 358 OFFCURVE",
"291 358 CURVE SMOOTH"
);
}
);
width = 534;
},
{
hints = (
{
place = "{377, 108}";
},
{
horizontal = 1;
place = "{0, 21}";
target = up;
type = BottomGhost;
},
{
horizontal = 1;
place = "{700, -20}";
target = down;
type = TopGhost;
}
);
layerId = UUID1;
paths = (
{
closed = 1;
nodes = (
"178 736 LINE",
"88 0 LINE",
"333 0 LINE SMOOTH",
"471 0 OFFCURVE",
"610 64 OFFCURVE",
"610 227 CURVE SMOOTH",
"610 322 OFFCURVE",
"549 363 OFFCURVE",
"492 374 CURVE",
"587 402 OFFCURVE",
"618 492 OFFCURVE",
"618 570 CURVE SMOOTH",
"618 689 OFFCURVE",
"532 736 OFFCURVE",
"394 736 CURVE SMOOTH"
);
},
{
closed = 1;
nodes = (
"255 135 LINE",
"276 309 LINE",
"349 309 LINE SMOOTH",
"407 309 OFFCURVE",
"463 293 OFFCURVE",
"463 234 CURVE SMOOTH",
"463 168 OFFCURVE",
"407 135 OFFCURVE",
"338 135 CURVE SMOOTH"
);
},
{
closed = 1;
nodes = (
"291 435 LINE",
"312 601 LINE",
"380 601 LINE SMOOTH",
"432 601 OFFCURVE",
"465 577 OFFCURVE",
"465 531 CURVE SMOOTH",
"465 483 OFFCURVE",
"432 435 OFFCURVE",
"369 435 CURVE SMOOTH"
);
}
);
width = 622;
}
);
unicode = 0042;
},
{
glyphname = C;
lastChange = "2016-08-26 20:41:54 +0000";
layers = (
{
hints = (
{
horizontal = 1;
place = "{708, -20}";
target = down;
type = TopGhost;
},
{
horizontal = 1;
place = "{-8, 21}";
target = up;
type = BottomGhost;
}
);
layerId = UUID0;
paths = (
{
closed = 1;
nodes = (
"607 54 LINE",
"551 24 OFFCURVE",
"490 6 OFFCURVE",
"421 6 CURVE SMOOTH",
"235 6 OFFCURVE",
"124 144 OFFCURVE",
"124 308 CURVE SMOOTH",
"124 521 OFFCURVE",
"309 694 OFFCURVE",
"513 694 CURVE SMOOTH",
"576 694 OFFCURVE",
"635 677 OFFCURVE",
"682 646 CURVE",
"685 650 OFFCURVE",
"688 654 OFFCURVE",
"691 658 CURVE",
"641 690 OFFCURVE",
"581 708 OFFCURVE",
"514 708 CURVE SMOOTH",
"302 708 OFFCURVE",
"110 529 OFFCURVE",
"110 308 CURVE SMOOTH",
"110 135 OFFCURVE",
"229 -8 OFFCURVE",
"423 -8 CURVE SMOOTH",
"495 -8 OFFCURVE",
"558 11 OFFCURVE",
"615 42 CURVE"
);
}
);
width = 653;
},
{
hints = (
{
horizontal = 1;
place = "{708, -20}";
target = down;
type = TopGhost;
},
{
horizontal = 1;
place = "{-8, 21}";
target = up;
type = BottomGhost;
}
);
layerId = UUID1;
paths = (
{
closed = 1;
nodes = (
"601 193 LINE",
"611 190 OFFCURVE",
"520 145 OFFCURVE",
"431 145 CURVE SMOOTH",
"306 145 OFFCURVE",
"225 248 OFFCURVE",
"225 354 CURVE SMOOTH",
"225 479 OFFCURVE",
"345 603 OFFCURVE",
"494 603 CURVE SMOOTH",
"529 603 OFFCURVE",
"592 596 OFFCURVE",
"617 576 CURVE",
"663 644 OFFCURVE",
"664 647 OFFCURVE",
"698 693 CURVE",
"683 718 OFFCURVE",
"588 744 OFFCURVE",
"505 744 CURVE SMOOTH",
"279 744 OFFCURVE",
"72 566 OFFCURVE",
"72 319 CURVE SMOOTH",
"72 141 OFFCURVE",
"186 -8 OFFCURVE",
"399 -8 CURVE SMOOTH",
"522 -8 OFFCURVE",
"620 37 OFFCURVE",
"648 57 CURVE"
);
}
);
width = 692;
}
);
unicode = 0043;
},
{
glyphname = Ccedilla;
lastChange = "2016-08-26 20:41:54 +0000";
layers = (
{
hints = (
{
horizontal = 1;
place = "{-223, 229}";
},
{
horizontal = 1;
place = "{708, -20}";
target = down;
type = TopGhost;
}
);
layerId = UUID0;
paths = (
{
closed = 1;
nodes = (
"607 54 LINE",
"551 24 OFFCURVE",
"490 6 OFFCURVE",
"421 6 CURVE SMOOTH",
"235 6 OFFCURVE",
"124 144 OFFCURVE",
"124 308 CURVE SMOOTH",
"124 521 OFFCURVE",
"309 694 OFFCURVE",
"513 694 CURVE SMOOTH",
"576 694 OFFCURVE",
"635 677 OFFCURVE",
"682 646 CURVE",
"685 650 OFFCURVE",
"688 654 OFFCURVE",
"691 658 CURVE",
"641 690 OFFCURVE",
"581 708 OFFCURVE",
"514 708 CURVE SMOOTH",
"302 708 OFFCURVE",
"110 529 OFFCURVE",
"110 308 CURVE SMOOTH",
"110 135 OFFCURVE",
"229 -8 OFFCURVE",
"423 -8 CURVE SMOOTH",
"495 -8 OFFCURVE",
"558 11 OFFCURVE",
"615 42 CURVE"
);
},
{
closed = 1;
nodes = (
"428 0 LINE",
"413 0 LINE",
"411 -16 LINE SMOOTH",
"405 -66 OFFCURVE",
"480 -63 OFFCURVE",
"480 -128 CURVE SMOOTH",
"480 -174 OFFCURVE",
"445 -209 OFFCURVE",
"401 -209 CURVE SMOOTH",
"368 -209 OFFCURVE",
"345 -189 OFFCURVE",
"341 -161 CURVE",
"336 -162 OFFCURVE",
"330 -164 OFFCURVE",
"325 -165 CURVE",
"333 -204 OFFCURVE",
"364 -223 OFFCURVE",
"399 -223 CURVE SMOOTH",
"448 -223 OFFCURVE",
"495 -190 OFFCURVE",
"495 -122 CURVE SMOOTH",
"495 -105 OFFCURVE",
"486 -79 OFFCURVE",
"461 -61 CURVE SMOOTH",
"445 -50 OFFCURVE",
"421 -41 OFFCURVE",
"427 -6 CURVE SMOOTH"
);
}
);
width = 635;
},
{
hints = (
{
horizontal = 1;
place = "{-250, 321}";
},
{
horizontal = 1;
place = "{708, -20}";
target = down;
type = TopGhost;
}
);
layerId = UUID1;
paths = (
{
closed = 1;
nodes = (
"601 193 LINE",
"611 190 OFFCURVE",
"520 145 OFFCURVE",
"431 145 CURVE SMOOTH",
"306 145 OFFCURVE",
"225 248 OFFCURVE",
"225 354 CURVE SMOOTH",
"225 479 OFFCURVE",
"345 603 OFFCURVE",
"494 603 CURVE SMOOTH",
"529 603 OFFCURVE",
"592 596 OFFCURVE",
"617 576 CURVE",
"663 644 OFFCURVE",
"664 647 OFFCURVE",
"698 693 CURVE",
"683 718 OFFCURVE",
"588 744 OFFCURVE",
"505 744 CURVE SMOOTH",
"279 744 OFFCURVE",
"72 566 OFFCURVE",
"72 319 CURVE SMOOTH",
"72 141 OFFCURVE",
"186 -8 OFFCURVE",
"399 -8 CURVE SMOOTH",
"522 -8 OFFCURVE",
"620 37 OFFCURVE",
"648 57 CURVE"
);
},
{
closed = 1;
nodes = (
"426 0 LINE",
"352 0 LINE",
"349 -25 LINE SMOOTH",
"341 -95 OFFCURVE",
"399 -89 OFFCURVE",
"399 -128 CURVE SMOOTH",
"399 -154 OFFCURVE",
"385 -180 OFFCURVE",
"353 -180 CURVE SMOOTH",
"331 -180 OFFCURVE",
"317 -166 OFFCURVE",
"314 -148 CURVE",
"291 -160 OFFCURVE",
"267 -172 OFFCURVE",
"244 -184 CURVE",
"257 -243 OFFCURVE",
"302 -271 OFFCURVE",
"353 -271 CURVE SMOOTH",
"445 -271 OFFCURVE",
"489 -195 OFFCURVE",
"489 -133 CURVE SMOOTH",
"489 -103 OFFCURVE",
"480 -79 OFFCURVE",
"461 -62 CURVE SMOOTH",
"446 -48 OFFCURVE",
"420 -48 OFFCURVE",
"425 -8 CURVE SMOOTH"
);
}
);
width = 693;
}
);
unicode = 00C7;
},
{
glyphname = D;
lastChange = "2016-08-26 20:51:55 +0000";
layers = (
{
hints = (
{
horizontal = 1;
place = "{0, 21}";
target = up;
type = BottomGhost;
},
{
horizontal = 1;
place = "{700, -20}";
target = down;
type = TopGhost;
}
);
layerId = UUID0;
paths = (
{
closed = 1;
nodes = (
"246 0 LINE SMOOTH",
"453 0 OFFCURVE",
"644 154 OFFCURVE",
"644 387 CURVE SMOOTH",
"644 534 OFFCURVE",
"554 700 OFFCURVE",
"298 700 CURVE SMOOTH",
"155 700 LINE",
"69 0 LINE"
);
},
{
closed = 1;
nodes = (
"112 238 OFFCURVE",
"140 461 OFFCURVE",
"167 685 CURVE",
"305 685 LINE SMOOTH",
"545 685 OFFCURVE",
"631 526 OFFCURVE",
"631 385 CURVE SMOOTH",
"631 161 OFFCURVE",
"449 14 OFFCURVE",
"254 14 CURVE",
"85 14 LINE"
);
}
);
width = 653;
},
{
hints = (
{
horizontal = 1;
place = "{79, 21}";
target = up;
type = BottomGhost;
},
{
horizontal = 1;
place = "{622, -20}";
target = down;
type = TopGhost;
}
);
layerId = UUID1;
paths = (
{
closed = 1;
nodes = (
"323 0 LINE SMOOTH",
"539 0 OFFCURVE",
"740 153 OFFCURVE",
"740 401 CURVE SMOOTH",
"740 568 OFFCURVE",
"644 736 OFFCURVE",
"377 736 CURVE SMOOTH",
"177 736 LINE",
"87 0 LINE"
);
},
{
closed = 1;
nodes = (
"273 291 OFFCURVE",
"292 444 OFFCURVE",
"310 592 CURVE",
"398 592 LINE SMOOTH",
"461 592 OFFCURVE",
"589 557 OFFCURVE",
"589 397 CURVE SMOOTH",
"589 230 OFFCURVE",
"473 142 OFFCURVE",
"315 142 CURVE",
"254 142 LINE"
);
}
);
width = 726;
}
);
unicode = 0044;
},
{
glyphname = Eth;
lastChange = "2016-08-26 20:52:16 +0000";
layers = (
{
hints = (
{
horizontal = 1;
place = "{0, 21}";
target = up;
type = BottomGhost;
},
{
horizontal = 1;
place = "{700, -20}";
target = down;
type = TopGhost;
}
);
layerId = UUID0;
paths = (
{
closed = 1;
nodes = (
"246 0 LINE SMOOTH",
"452 0 OFFCURVE",
"643 154 OFFCURVE",
"643 387 CURVE SMOOTH",
"643 534 OFFCURVE",
"553 700 OFFCURVE",
"297 700 CURVE SMOOTH",
"154 700 LINE",
"69 0 LINE"
);
},
{
closed = 1;
nodes = (
"334 346 LINE",
"336 360 LINE",
"55 360 LINE",
"53 346 LINE"
);
},
{
closed = 1;
nodes = (
"112 238 OFFCURVE",
"139 461 OFFCURVE",
"167 685 CURVE",
"305 685 LINE SMOOTH",
"545 685 OFFCURVE",
"630 526 OFFCURVE",
"630 385 CURVE SMOOTH",
"630 161 OFFCURVE",
"448 14 OFFCURVE",
"253 14 CURVE SMOOTH",
"84 14 LINE"
);
}
);
width = 683;
},
{
hints = (
{
horizontal = 1;
place = "{0, 21}";
target = up;
type = BottomGhost;
},
{
horizontal = 1;
place = "{700, -20}";
target = down;
type = TopGhost;
}
);
layerId = UUID1;
paths = (
{
closed = 1;
nodes = (
"323 0 LINE SMOOTH",
"540 0 OFFCURVE",
"740 153 OFFCURVE",
"740 401 CURVE SMOOTH",
"740 568 OFFCURVE",
"645 736 OFFCURVE",
"378 736 CURVE SMOOTH",
"178 736 LINE",
"87 0 LINE"
);
},
{
closed = 1;
nodes = (
"357 306 LINE",
"369 405 LINE",
"61 405 LINE",
"49 306 LINE"
);
},
{
closed = 1;
nodes = (
"273 291 OFFCURVE",
"292 444 OFFCURVE",
"310 592 CURVE",
"398 592 LINE SMOOTH",
"461 592 OFFCURVE",
"590 557 OFFCURVE",
"590 397 CURVE SMOOTH",
"590 230 OFFCURVE",
"474 142 OFFCURVE",
"316 142 CURVE SMOOTH",
"255 142 LINE"
);
}
);
width = 651;
}
);
unicode = 00D0;
},
{
glyphname = Dcroat;
lastChange = "2016-08-26 20:41:54 +0000";
layers = (
{
components = (
{
name = D;
}
);
layerId = UUID0;
paths = (
{
closed = 1;
nodes = (
"58 386 LINE",
"339 386 LINE",
"341 400 LINE",
"60 400 LINE"
);
}
);
width = 653;
},
{
components = (
{
name = D;
}
);
layerId = UUID1;
paths = (
{
closed = 1;
nodes = (
"50 316 LINE",
"358 316 LINE",
"370 415 LINE",
"62 415 LINE"
);
}
);
width = 726;
}
);
unicode = 0110;
},
{
glyphname = E;
lastChange = "2016-08-26 20:41:54 +0000";
layers = (
{
hints = (
{
horizontal = 1;
place = "{0, 21}";
target = up;
type = BottomGhost;
},
{
horizontal = 1;
place = "{700, -20}";
target = down;
type = TopGhost;
}
);
layerId = UUID0;
paths = (
{
closed = 1;
nodes = (
"80 0 LINE",
"509 0 LINE",
"511 14 LINE",
"96 14 LINE",
"136 346 LINE",
"498 346 LINE",
"500 360 LINE",
"138 360 LINE",
"178 686 LINE",
"579 686 LINE",
"581 700 LINE",
"166 700 LINE"
);
}
);
width = 551;
},
{
hints = (
{
horizontal = 1;
place = "{0, 21}";
target = up;
type = BottomGhost;
},
{
horizontal = 1;
place = "{700, -20}";
target = down;
type = TopGhost;
}
);
layerId = UUID1;
paths = (
{
closed = 1;
nodes = (
"82 0 LINE",
"598 0 LINE",
"615 139 LINE",
"249 139 LINE",
"269 299 LINE",
"580 299 LINE",
"597 437 LINE",
"286 437 LINE",
"306 601 LINE",
"658 601 LINE",
"674 736 LINE",
"172 736 LINE"
);
}
);
width = 653;
}
);
unicode = 0045;
},
{
glyphname = F;
lastChange = "2016-08-26 20:41:54 +0000";
layers = (
{
hints = (
{
horizontal = 1;
place = "{0, 21}";
target = up;
type = BottomGhost;
},
{
horizontal = 1;
place = "{700, -20}";
target = down;
type = TopGhost;
}
);
layerId = UUID0;
paths = (
{
closed = 1;
nodes = (
"70 0 LINE",
"84 0 LINE",
"125 336 LINE",
"447 336 LINE",
"449 350 LINE",
"127 350 LINE",
"168 686 LINE",
"529 686 LINE",
"531 700 LINE",
"156 700 LINE"
);
}
);
width = 495;
},
{
hints = (
{
horizontal = 1;
place = "{0, 21}";
target = up;
type = BottomGhost;
},
{
horizontal = 1;
place = "{700, -20}";
target = down;
type = TopGhost;
}
);
layerId = UUID1;
paths = (
{
closed = 1;
nodes = (
"87 0 LINE",
"237 0 LINE",
"272 289 LINE",
"540 289 LINE",
"558 428 LINE",
"290 428 LINE",
"310 598 LINE",
"620 598 LINE",
"637 736 LINE",
"177 736 LINE"
);
}
);
width = 593;
}
);
unicode = 0046;
},
{
glyphname = G;
lastChange = "2016-08-26 20:41:54 +0000";
layers = (
{
hints = (
{
horizontal = 1;
place = "{708, -20}";
target = down;
type = TopGhost;
},
{
horizontal = 1;
place = "{-8, 21}";
target = up;
type = BottomGhost;
}
);
layerId = UUID0;
paths = (
{
closed = 1;
nodes = (
"646 300 LINE",
"460 300 LINE",
"458 286 LINE",
"630 286 LINE",
"601 51 LINE",
"547 22 OFFCURVE",
"487 6 OFFCURVE",
"425 6 CURVE SMOOTH",
"236 6 OFFCURVE",
"124 140 OFFCURVE",
"124 309 CURVE SMOOTH",
"124 519 OFFCURVE",
"309 694 OFFCURVE",
"512 694 CURVE SMOOTH",
"575 694 OFFCURVE",
"634 677 OFFCURVE",
"682 646 CURVE",
"691 658 LINE",
"641 690 OFFCURVE",
"581 708 OFFCURVE",
"514 708 CURVE SMOOTH",
"302 708 OFFCURVE",
"110 528 OFFCURVE",
"110 309 CURVE SMOOTH",
"110 132 OFFCURVE",
"228 -8 OFFCURVE",
"426 -8 CURVE SMOOTH",
"493 -8 OFFCURVE",
"558 11 OFFCURVE",
"614 42 CURVE"
);
}
);
width = 665;
},
{
hints = (
{
horizontal = 1;
place = "{708, -20}";
target = down;
type = TopGhost;
},
{
horizontal = 1;
place = "{-8, 21}";
target = up;
type = BottomGhost;
}
);
layerId = UUID1;
paths = (
{
closed = 1;
nodes = (
"705 367 LINE",
"440 367 LINE",
"424 239 LINE",
"551 239 LINE",
"539 142 LINE",
"506 134 OFFCURVE",
"464 133 OFFCURVE",
"447 133 CURVE SMOOTH",
"322 133 OFFCURVE",
"239 229 OFFCURVE",
"239 338 CURVE SMOOTH",
"239 486 OFFCURVE",
"378 603 OFFCURVE",
"508 603 CURVE SMOOTH",
"552 603 OFFCURVE",
"620 589 OFFCURVE",
"652 569 CURVE",
"740 691 LINE",
"689 725 OFFCURVE",
"598 744 OFFCURVE",
"528 744 CURVE SMOOTH",
"304 744 OFFCURVE",
"86 566 OFFCURVE",
"86 306 CURVE SMOOTH",
"86 123 OFFCURVE",
"212 -8 OFFCURVE",
"426 -8 CURVE SMOOTH",
"512 -8 OFFCURVE",
"605 11 OFFCURVE",
"665 44 CURVE"
);
}
);
width = 748;
}
);
unicode = 0047;
},
{
glyphname = H;
lastChange = "2016-08-26 20:41:54 +0000";
layers = (
{
hints = (
{
horizontal = 1;
place = "{0, 21}";
target = up;
type = BottomGhost;
},
{
horizontal = 1;
place = "{700, -20}";
target = down;
type = TopGhost;
}
);
layerId = UUID0;
paths = (
{
closed = 1;
nodes = (
"704 700 LINE",
"662 360 LINE",
"198 360 LINE",
"240 700 LINE",
"226 700 LINE",
"140 0 LINE",
"154 0 LINE",
"196 346 LINE",
"660 346 LINE",
"618 0 LINE",
"632 0 LINE",
"662 233 OFFCURVE",
"692 467 OFFCURVE",
"722 700 CURVE"
);
}
);
width = 774;
},
{
hints = (
{
horizontal = 1;
place = "{0, 21}";
target = up;
type = BottomGhost;
},
{
horizontal = 1;
place = "{700, -20}";
target = down;
type = TopGhost;
}
);
layerId = UUID1;
paths = (
{
closed = 1;
nodes = (
"702 736 LINE",
"666 441 LINE",
"347 441 LINE",
"383 736 LINE",
"233 736 LINE",
"143 0 LINE",
"293 0 LINE",
"330 299 LINE",
"649 299 LINE",
"612 0 LINE",
"762 0 LINE",
"762 0 OFFCURVE",
"852 736 OFFCURVE",
"852 736 CURVE"
);
}
);
width = 902;
}
);
unicode = 0048;
},
{
glyphname = Hbar;
lastChange = "2016-08-26 20:41:54 +0000";
layers = (
{
components = (
{
name = H;
}
);
hints = (
{
horizontal = 1;
place = "{492, 21}";
target = up;
type = BottomGhost;
},
{
horizontal = 1;
place = "{506, -20}";
target = down;
type = TopGhost;
}
);
layerId = UUID0;
paths = (
{
closed = 1;
nodes = (
"122 492 LINE",
"772 492 LINE",
"774 506 LINE",
"124 506 LINE"
);
}
);
width = 774;
},
{
components = (
{
name = H;
}
);
hints = (
{
horizontal = 1;
place = "{478, 21}";
target = up;
type = BottomGhost;
},
{
horizontal = 1;
place = "{531, -20}";
target = down;
type = TopGhost;
}
);
layerId = UUID1;
paths = (
{
closed = 1;
nodes = (
"128 529 LINE",
"903 529 LINE",
"912 606 LINE",
"137 606 LINE"
);
}
);
width = 902;
}
);
unicode = 0126;
},
{
glyphname = I;
lastChange = "2016-08-26 20:41:54 +0000";
layers = (
{
hints = (
{
horizontal = 1;
place = "{0, 21}";
target = up;
type = BottomGhost;
},
{
horizontal = 1;
place = "{700, -20}";
target = down;
type = TopGhost;
}
);
layerId = UUID0;
paths = (
{
closed = 1;
nodes = (
"140 0 LINE",
"154 0 LINE",
"240 700 LINE",
"226 700 LINE"
);
}
);
width = 294;
},
{
hints = (
{
horizontal = 1;
place = "{0, 21}";
target = up;
type = BottomGhost;
},
{
horizontal = 1;
place = "{700, -20}";
target = down;
type = TopGhost;
}
);
layerId = UUID1;
paths = (
{
closed = 1;
nodes = (
"93 0 LINE",
"243 0 LINE",
"333 736 LINE",
"183 736 LINE"
);
}
);
width = 330;
}
);
unicode = 0049;
},
{
glyphname = J;
lastChange = "2016-08-26 20:41:54 +0000";
layers = (
{
hints = (
{
horizontal = 1;
place = "{-142, 21}";
target = up;
type = BottomGhost;
},
{
horizontal = 1;
place = "{700, -20}";
target = down;
type = TopGhost;
}
);
layerId = UUID0;
paths = (
{
closed = 1;
nodes = (
"261 700 LINE",
"248 700 LINE",
"173 93 LINE SMOOTH",
"157 -42 OFFCURVE",
"73 -123 OFFCURVE",
"-25 -128 CURVE",
"-27 -142 LINE",
"-27 -142 LINE",
"74 -138 OFFCURVE",
"168 -58 OFFCURVE",
"186 90 CURVE SMOOTH"
);
}
);
width = 315;
},
{
hints = (
{
horizontal = 1;
place = "{-144, 21}";
target = up;
type = BottomGhost;
},
{
horizontal = 1;
place = "{700, -20}";
target = down;
type = TopGhost;
}
);
layerId = UUID1;
paths = (
{
closed = 1;
nodes = (
"437 736 LINE",
"286 736 LINE",
"215 158 LINE SMOOTH",
"200 38 OFFCURVE",
"132 -7 OFFCURVE",
"40 -12 CURVE",
"23 -153 LINE",
"23 -153 LINE",
"201 -148 OFFCURVE",
"342 -37 OFFCURVE",
"366 155 CURVE SMOOTH"
);
}
);
width = 428;
}
);
unicode = 004A;
},
{
glyphname = K;
lastChange = "2016-08-26 20:41:54 +0000";
layers = (
{
hints = (
{
horizontal = 1;
place = "{0, 21}";
target = up;
type = BottomGhost;
},
{
horizontal = 1;
place = "{701, -20}";
target = down;
type = TopGhost;
},
{
horizontal = 1;
place = "{700, -20}";
target = down;
type = TopGhost;
}
);
layerId = UUID0;
paths = (
{
closed = 1;
nodes = (
"187 700 LINE",
"173 700 LINE",
"87 0 LINE",
"101 0 LINE",
"114 105 OFFCURVE",
"126 211 OFFCURVE",
"139 316 CURVE",
"178 349 OFFCURVE",
"216 381 OFFCURVE",
"255 414 CURVE",
"347 276 OFFCURVE",
"438 138 OFFCURVE",
"530 0 CURVE",
"550 0 LINE",
"455 141 OFFCURVE",
"362 283 OFFCURVE",
"267 424 CURVE",
"375 516 OFFCURVE",
"483 608 OFFCURVE",
"591 700 CURVE",
"583 700 OFFCURVE",
"577 700 OFFCURVE",
"569 700 CURVE",
"433 584 OFFCURVE",
"296 467 OFFCURVE",
"160 351 CURVE",
"153 344 OFFCURVE",
"148 338 OFFCURVE",
"141 331 CURVE",
"142 341 OFFCURVE",
"144 350 OFFCURVE",
"145 360 CURVE SMOOTH"
);
}
);
width = 573;
},
{
hints = (
{
horizontal = 1;
place = "{0, 21}";
target = up;
type = BottomGhost;
},
{
horizontal = 1;
place = "{700, -20}";
target = down;
type = TopGhost;
},
{
horizontal = 1;
place = "{700, -20}";
target = down;
type = TopGhost;
}
);
layerId = UUID1;
paths = (
{
closed = 1;
nodes = (
"346 736 LINE",
"179 736 LINE",
"89 0 LINE",
"255 0 LINE",
"268 102 OFFCURVE",
"276 175 OFFCURVE",
"289 278 CURVE",
"300 286 OFFCURVE",
"309 294 OFFCURVE",
"319 305 CURVE",
"393 192 OFFCURVE",
"439 111 OFFCURVE",
"513 0 CURVE",
"697 0 LINE",
"606 145 OFFCURVE",
"542 261 OFFCURVE",
"447 406 CURVE",
"559 514 OFFCURVE",
"674 628 OFFCURVE",
"786 736 CURVE",
"727 736 OFFCURVE",
"657 736 OFFCURVE",
"598 736 CURVE",
"507 657 OFFCURVE",
"424 563 OFFCURVE",
"333 485 CURVE",
"324 474 OFFCURVE",
"314 467 OFFCURVE",
"307 457 CURVE",
"310 470 OFFCURVE",
"315 482 OFFCURVE",
"316 494 CURVE SMOOTH"
);
}
);
width = 714;
}
);
unicode = 004B;
},
{
glyphname = L;
lastChange = "2016-08-26 20:41:54 +0000";
layers = (
{
hints = (
{
horizontal = 1;
place = "{0, 21}";
target = up;
type = BottomGhost;
},
{
horizontal = 1;
place = "{700, -20}";
target = down;
type = TopGhost;
}
);
layerId = UUID0;
paths = (
{
closed = 1;
nodes = (
"90 0 LINE",
"509 0 LINE",
"511 14 LINE",
"106 14 LINE",
"190 700 LINE",
"176 700 LINE"
);
}
);
width = 550;
},
{
hints = (
{
horizontal = 1;
place = "{0, 21}";
target = up;
type = BottomGhost;
},
{
horizontal = 1;
place = "{700, -20}";
target = down;
type = TopGhost;
}
);
layerId = UUID1;
paths = (
{
closed = 1;
nodes = (
"92 0 LINE",
"583 0 LINE",
"600 142 LINE",
"259 142 LINE",
"332 736 LINE",
"182 736 LINE"
);
}
);
width = 640;
}
);
unicode = 004C;
},
{
glyphname = Lslash;
lastChange = "2016-08-26 20:41:54 +0000";
layers = (
{
components = (
{
name = L;
}
);
hints = (
{
horizontal = 1;
place = "{179, 21}";
target = up;
type = BottomGhost;
},
{
horizontal = 1;
place = "{193, -20}";
target = down;
type = TopGhost;
}
);
layerId = UUID0;
paths = (
{
closed = 1;
nodes = (
"59 293 LINE",
"57 279 LINE",
"385 394 LINE",
"387 408 LINE"
);
}
);
width = 550;
},
{
components = (
{
name = L;
}
);
hints = (
{
horizontal = 1;
place = "{327, 21}";
target = up;
type = BottomGhost;
},
{
horizontal = 1;
place = "{408, -20}";
target = down;
type = TopGhost;
}
);
layerId = UUID1;
paths = (
{
closed = 1;
nodes = (
"58 346 LINE",
"43 225 LINE",
"484 351 LINE",
"499 472 LINE"
);
}
);
width = 640;
}
);
unicode = 0141;
},
{
glyphname = M;
lastChange = "2016-08-26 20:41:54 +0000";
layers = (
{
hints = (
{
horizontal = 1;
place = "{0, 21}";
target = up;
type = BottomGhost;
},
{
horizontal = 1;
place = "{732, -20}";
target = down;
type = TopGhost;
}
);
layerId = UUID0;
paths = (
{
closed = 1;
nodes = (
"730 0 LINE",
"744 0 LINE",
"834 732 LINE",
"676 547 OFFCURVE",
"518 343 OFFCURVE",
"450 257 CURVE",
"356 417 OFFCURVE",
"284 545 OFFCURVE",
"182 732 CURVE",
"92 0 LINE",
"106 0 LINE",
"185 645 LINE SMOOTH",
"187 660 OFFCURVE",
"188 675 OFFCURVE",
"190 690 CURVE",
"230 615 OFFCURVE",
"370 346 OFFCURVE",
"446 228 CURVE",
"560 371 OFFCURVE",
"681 528 OFFCURVE",
"816 690 CURVE",
"814 675 OFFCURVE",
"811 660 OFFCURVE",
"809 645 CURVE SMOOTH"
);
}
);
width = 834;
},
{
hints = (
{
horizontal = 1;
place = "{0, 21}";
target = up;
type = BottomGhost;
},
{
horizontal = 1;
place = "{732, -20}";
target = down;
type = TopGhost;
}
);
layerId = UUID1;
paths = (
{
closed = 1;
nodes = (
"689 0 LINE",
"849 0 LINE",
"943 768 LINE",
"943 768 OFFCURVE",
"501 250 OFFCURVE",
"501 250 CURVE",
"501 250 OFFCURVE",
"185 768 OFFCURVE",
"185 768 CURVE",
"91 0 LINE",
"241 0 LINE",
"278 304 LINE SMOOTH",
"279 312 OFFCURVE",
"276 327 OFFCURVE",
"276 327 CURVE",
"276 327 OFFCURVE",
"471 9 OFFCURVE",
"471 9 CURVE",
"471 9 OFFCURVE",
"733 327 OFFCURVE",
"733 327 CURVE",
"733 327 OFFCURVE",
"727 312 OFFCURVE",
"726 304 CURVE SMOOTH"
);
}
);
width = 941;
}
);
unicode = 004D;
},
{
glyphname = N;
lastChange = "2016-08-26 20:41:54 +0000";
layers = (
{
hints = (
{
horizontal = 1;
place = "{732, -20}";
target = down;
type = TopGhost;
},
{
horizontal = 1;
place = "{-32, 21}";
target = up;
type = BottomGhost;
}
);
layerId = UUID0;
paths = (
{
closed = 1;
nodes = (
"111 0 LINE",
"125 0 LINE",
"207 664 LINE",
"207 675 OFFCURVE",
"207 685 OFFCURVE",
"207 696 CURVE",
"212 687 OFFCURVE",
"218 679 OFFCURVE",
"223 670 CURVE",
"368 439 OFFCURVE",
"517 205 OFFCURVE",
"678 -32 CURVE",
"768 700 LINE",
"754 700 LINE",
"672 34 LINE",
"672 23 OFFCURVE",
"672 13 OFFCURVE",
"671 2 CURVE",
"666 11 OFFCURVE",
"660 19 OFFCURVE",
"655 28 CURVE",
"501 262 OFFCURVE",
"363 489 OFFCURVE",
"201 732 CURVE"
);
}
);
width = 793;
},
{
hints = (
{
horizontal = 1;
place = "{732, -20}";
target = down;
type = TopGhost;
},
{
horizontal = 1;
place = "{-32, 21}";
target = up;
type = BottomGhost;
}
);
layerId = UUID1;
paths = (
{
closed = 1;
nodes = (
"113 0 LINE",
"263 0 LINE",
"312 398 LINE",
"312 409 OFFCURVE",
"312 419 OFFCURVE",
"313 430 CURVE",
"318 421 OFFCURVE",
"330 404 OFFCURVE",
"330 404 CURVE",
"330 404 OFFCURVE",
"772 -34 OFFCURVE",
"772 -34 CURVE",
"866 736 LINE",
"717 736 LINE",
"670 351 LINE",
"670 340 OFFCURVE",
"669 328 OFFCURVE",
"669 317 CURVE",
"664 326 OFFCURVE",
"653 345 OFFCURVE",
"653 345 CURVE",
"653 345 OFFCURVE",
"208 770 OFFCURVE",
"208 770 CURVE"
);
}
);
width = 892;
}
);
unicode = 004E;
},
{
glyphname = O;
lastChange = "2016-08-26 20:41:54 +0000";
layers = (
{
hints = (
{
horizontal = 1;
place = "{-8, 21}";
target = up;
type = BottomGhost;
},
{
horizontal = 1;
place = "{708, -20}";
target = down;
type = TopGhost;
}
);
layerId = UUID0;
paths = (
{
closed = 1;
nodes = (
"113 349 LINE",
"89 152 OFFCURVE",
"229 -8 OFFCURVE",
"426 -8 CURVE SMOOTH",
"639 -8 OFFCURVE",
"832 171 OFFCURVE",
"832 385 CURVE SMOOTH",
"832 565 OFFCURVE",
"697 708 OFFCURVE",
"514 708 CURVE SMOOTH",
"317 708 OFFCURVE",
"137 547 OFFCURVE",
"113 349 CURVE"
);
},
{
closed = 1;
nodes = (
"127 348 LINE",
"150 538 OFFCURVE",
"323 694 OFFCURVE",
"512 694 CURVE SMOOTH",
"687 694 OFFCURVE",
"817 555 OFFCURVE",
"817 383 CURVE SMOOTH",
"817 178 OFFCURVE",
"629 6 OFFCURVE",
"425 6 CURVE SMOOTH",
"238 6 OFFCURVE",
"104 159 OFFCURVE",
"127 348 CURVE"
);
}
);
width = 856;
},
{
hints = (
{
horizontal = 1;
place = "{71, 21}";
target = up;
type = BottomGhost;
},
{
horizontal = 1;
place = "{629, -20}";
target = down;
type = TopGhost;
}
);
layerId = UUID1;
paths = (
{
closed = 1;
nodes = (
"104 367 LINE",
"79 160 OFFCURVE",
"226 -8 OFFCURVE",
"433 -8 CURVE SMOOTH",
"653 -8 OFFCURVE",
"859 179 OFFCURVE",
"859 403 CURVE SMOOTH",
"859 589 OFFCURVE",
"715 744 OFFCURVE",
"525 744 CURVE SMOOTH",
"318 744 OFFCURVE",
"129 570 OFFCURVE",
"104 367 CURVE"
);
},
{
closed = 1;
nodes = (
"254 367 LINE",
"270 496 OFFCURVE",
"383 600 OFFCURVE",
"509 600 CURVE SMOOTH",
"624 600 OFFCURVE",
"709 508 OFFCURVE",
"709 391 CURVE SMOOTH",
"709 250 OFFCURVE",
"589 133 OFFCURVE",
"455 133 CURVE SMOOTH",
"327 133 OFFCURVE",
"238 238 OFFCURVE",
"254 367 CURVE"
);
}
);
width = 885;
}
);
unicode = 004F;
},
{
glyphname = Oslash;
lastChange = "2016-08-26 20:41:54 +0000";
layers = (
{
components = (
{
name = O;
}
);
hints = (
{
horizontal = 1;
place = "{-8, 21}";
target = up;
type = BottomGhost;
},
{
horizontal = 1;
place = "{708, -20}";
target = down;
type = TopGhost;
}
);
layerId = UUID0;
paths = (
{
closed = 1;
nodes = (
"792 716 LINE",
"631 547 OFFCURVE",
"274 176 OFFCURVE",
"113 8 CURVE",
"120 0 LINE",
"281 168 OFFCURVE",
"638 540 OFFCURVE",
"799 708 CURVE"
);
}
);
width = 836;
},
{
components = (
{
name = O;
}
);
hints = (
{
horizontal = 1;
place = "{-17, 21}";
target = up;
type = BottomGhost;
},
{
horizontal = 1;
place = "{719, -20}";
target = down;
type = TopGhost;
}
);
layerId = UUID1;
paths = (
{
closed = 1;
nodes = (
"792 739 LINE",
"666 612 OFFCURVE",
"226 166 OFFCURVE",
"101 40 CURVE",
"165 -23 LINE",
"290 103 OFFCURVE",
"728 549 OFFCURVE",
"854 675 CURVE"
);
}
);
width = 858;
}
);
unicode = 00D8;
},
{
glyphname = OE;
lastChange = "2016-08-26 20:41:54 +0000";
layers = (
{
hints = (
{
horizontal = 1;
place = "{-8, 21}";
target = up;
type = BottomGhost;
},
{
horizontal = 1;
place = "{708, -20}";
target = down;
type = TopGhost;
},
{
horizontal = 1;
place = "{0, 21}";
target = up;
type = BottomGhost;
},
{
horizontal = 1;
place = "{700, -20}";
target = down;
type = TopGhost;
}
);
layerId = UUID0;
paths = (
{
closed = 1;
nodes = (
"603 696 LINE",
"575 704 OFFCURVE",
"546 708 OFFCURVE",
"514 708 CURVE SMOOTH",
"302 708 OFFCURVE",
"110 528 OFFCURVE",
"110 313 CURVE SMOOTH",
"110 134 OFFCURVE",
"244 -8 OFFCURVE",
"426 -8 CURVE SMOOTH",
"457 -8 OFFCURVE",
"487 -4 OFFCURVE",
"516 3 CURVE",
"503 15 LINE",
"477 9 OFFCURVE",
"452 6 OFFCURVE",
"425 6 CURVE SMOOTH",
"252 6 OFFCURVE",
"124 142 OFFCURVE",
"124 313 CURVE SMOOTH",
"124 519 OFFCURVE",
"309 694 OFFCURVE",
"512 694 CURVE SMOOTH",
"538 694 OFFCURVE",
"563 691 OFFCURVE",
"586 686 CURVE"
);
},
{
closed = 1;
nodes = (
"496 0 LINE",
"895 0 LINE",
"897 14 LINE",
"512 14 LINE",
"552 346 LINE",
"884 346 LINE",
"886 360 LINE",
"554 360 LINE",
"594 686 LINE",
"965 686 LINE",
"967 700 LINE",
"582 700 LINE"
);
}
);
width = 988;
},
{
hints = (
{
horizontal = 1;
place = "{71, 21}";
target = up;
type = BottomGhost;
},
{
horizontal = 1;
place = "{629, -20}";
target = down;
type = TopGhost;
},
{
horizontal = 1;
place = "{0, 21}";
target = up;
type = BottomGhost;
},
{
horizontal = 1;
place = "{700, -20}";
target = down;
type = TopGhost;
}
);
layerId = UUID1;
paths = (
{
closed = 1;
nodes = (
"619 731 LINE",
"590 739 OFFCURVE",
"558 744 OFFCURVE",
"525 744 CURVE SMOOTH",
"303 744 OFFCURVE",
"101 550 OFFCURVE",
"101 329 CURVE SMOOTH",
"101 141 OFFCURVE",
"241 -8 OFFCURVE",
"433 -8 CURVE SMOOTH",
"465 -8 OFFCURVE",
"495 -4 OFFCURVE",
"526 4 CURVE",
"506 139 LINE",
"489 135 OFFCURVE",
"472 133 OFFCURVE",
"455 133 CURVE SMOOTH",
"337 133 OFFCURVE",
"252 226 OFFCURVE",
"252 343 CURVE SMOOTH",
"252 483 OFFCURVE",
"373 600 OFFCURVE",
"508 600 CURVE SMOOTH",
"525 600 OFFCURVE",
"541 598 OFFCURVE",
"557 594 CURVE"
);
},
{
closed = 1;
nodes = (
"477 0 LINE",
"963 0 LINE",
"980 139 LINE",
"644 139 LINE",
"664 299 LINE",
"945 299 LINE",
"961 437 LINE",
"680 437 LINE",
"701 601 LINE",
"1023 601 LINE",
"1039 736 LINE",
"567 736 LINE"
);
}
);
width = 1021;
}
);
unicode = 0152;
},
{
glyphname = P;
lastChange = "2016-08-26 20:41:54 +0000";
layers = (
{
hints = (
{
horizontal = 1;
place = "{0, 21}";
target = up;
type = BottomGhost;
},
{
horizontal = 1;
place = "{700, -20}";
target = down;
type = TopGhost;
}
);
layerId = UUID0;
paths = (
{
closed = 1;
nodes = (
"166 700 LINE",
"80 0 LINE",
"94 0 LINE",
"133 321 LINE",
"245 321 LINE SMOOTH",
"409 321 OFFCURVE",
"485 431 OFFCURVE",
"485 537 CURVE SMOOTH",
"485 658 OFFCURVE",
"378 700 OFFCURVE",
"306 700 CURVE SMOOTH"
);
},
{
closed = 1;
nodes = (
"135 335 LINE",
"178 686 LINE",
"294 686 LINE SMOOTH",
"397 686 OFFCURVE",
"471 627 OFFCURVE",
"471 536 CURVE SMOOTH",
"471 464 OFFCURVE",
"421 335 OFFCURVE",
"250 335 CURVE SMOOTH"
);
}
);
width = 475;
},
{
hints = (
{
horizontal = 1;
place = "{0, 21}";
target = up;
type = BottomGhost;
},
{
horizontal = 1;
place = "{700, -20}";
target = down;
type = TopGhost;
}
);
layerId = UUID1;
paths = (
{
closed = 1;
nodes = (
"172 736 LINE",
"82 0 LINE",
"232 0 LINE",
"261 233 LINE",
"360 233 LINE SMOOTH",
"574 233 OFFCURVE",
"650 392 OFFCURVE",
"650 519 CURVE SMOOTH",
"650 651 OFFCURVE",
"562 736 OFFCURVE",
"395 736 CURVE SMOOTH"
);
},
{
closed = 1;
nodes = (
"278 374 LINE",
"305 596 LINE",
"399 596 LINE SMOOTH",
"485 596 OFFCURVE",
"498 531 OFFCURVE",
"498 498 CURVE SMOOTH",
"498 455 OFFCURVE",
"466 374 OFFCURVE",
"371 374 CURVE SMOOTH"
);
}
);
width = 635;
}
);
unicode = 0050;
},
{
glyphname = Thorn;
lastChange = "2016-08-26 20:41:54 +0000";
layers = (
{
hints = (
{
horizontal = 1;
place = "{700, -20}";
target = down;
type = TopGhost;
},
{
horizontal = 1;
place = "{0, 21}";
target = up;
type = BottomGhost;
}
);
layerId = UUID0;
paths = (
{
closed = 1;
nodes = (
"150 535 LINE",
"170 700 LINE",
"156 700 LINE",
"70 0 LINE",
"84 0 LINE",
"103 156 LINE",
"215 156 LINE SMOOTH",
"378 156 OFFCURVE",
"455 266 OFFCURVE",
"455 372 CURVE SMOOTH",
"455 493 OFFCURVE",
"348 535 OFFCURVE",
"276 535 CURVE SMOOTH"
);
},
{
closed = 1;
nodes = (
"105 170 LINE",
"148 521 LINE",
"264 521 LINE SMOOTH",
"367 521 OFFCURVE",
"441 462 OFFCURVE",
"441 371 CURVE SMOOTH",
"441 299 OFFCURVE",
"391 170 OFFCURVE",
"220 170 CURVE SMOOTH"
);
}
);
width = 470;
},
{
hints = (
{
horizontal = 1;
place = "{700, -20}";
target = down;
type = TopGhost;
},
{
horizontal = 1;
place = "{0, 21}";
target = up;
type = BottomGhost;
}
);
layerId = UUID1;
paths = (
{
closed = 1;
nodes = (
"308 616 LINE",
"320 714 LINE",
"170 714 LINE",
"82 0 LINE",
"232 0 LINE",
"246 113 LINE",
"345 113 LINE SMOOTH",
"559 113 OFFCURVE",
"636 272 OFFCURVE",
"636 399 CURVE SMOOTH",
"636 531 OFFCURVE",
"547 616 OFFCURVE",
"381 616 CURVE SMOOTH"
);
},
{
closed = 1;
nodes = (
"263 254 LINE",
"290 476 LINE",
"384 476 LINE SMOOTH",
"470 476 OFFCURVE",
"484 411 OFFCURVE",
"484 378 CURVE SMOOTH",
"484 335 OFFCURVE",
"451 254 OFFCURVE",
"356 254 CURVE SMOOTH"
);
}
);
width = 518;
}
);
unicode = 00DE;
},
{
glyphname = Q;
lastChange = "2016-08-26 20:41:54 +0000";
layers = (
{
hints = (
{
horizontal = 1;
place = "{-8, 21}";
target = up;
type = BottomGhost;
},
{
horizontal = 1;
place = "{708, -20}";
target = down;
type = TopGhost;
}
);
layerId = UUID0;
paths = (
{
closed = 1;
nodes = (
"798 0 LINE",
"800 14 LINE",
"543 14 LINE",
"700 69 OFFCURVE",
"822 215 OFFCURVE",
"822 385 CURVE SMOOTH",
"822 565 OFFCURVE",
"687 708 OFFCURVE",
"504 708 CURVE SMOOTH",
"292 708 OFFCURVE",
"100 528 OFFCURVE",
"100 313 CURVE SMOOTH",
"100 313 LINE SMOOTH",
"100 134 OFFCURVE",
"234 -8 OFFCURVE",
"416 -8 CURVE SMOOTH",
"441 -8 OFFCURVE",
"466 -5 OFFCURVE",
"491 0 CURVE"
);
},
{
closed = 1;
nodes = (
"114 313 LINE SMOOTH",
"114 519 OFFCURVE",
"299 694 OFFCURVE",
"502 694 CURVE SMOOTH",
"677 694 OFFCURVE",
"807 555 OFFCURVE",
"807 383 CURVE SMOOTH",
"807 178 OFFCURVE",
"619 6 OFFCURVE",
"415 6 CURVE SMOOTH",
"242 6 OFFCURVE",
"114 142 OFFCURVE",
"114 313 CURVE SMOOTH"
);
}
);
width = 858;
},
{
hints = (
{
horizontal = 1;
place = "{-8, 21}";
target = up;
type = BottomGhost;
},
{
horizontal = 1;
place = "{708, -20}";
target = down;
type = TopGhost;
}
);
layerId = UUID1;
paths = (
{
closed = 1;
nodes = (
"843 0 LINE",
"860 142 LINE",
"790 130 LINE",
"859 264 OFFCURVE",
"867 352 OFFCURVE",
"867 403 CURVE SMOOTH",
"867 589 OFFCURVE",
"723 744 OFFCURVE",
"533 744 CURVE SMOOTH",
"311 744 OFFCURVE",
"109 550 OFFCURVE",
"109 329 CURVE SMOOTH",
"109 329 LINE SMOOTH",
"109 141 OFFCURVE",
"250 -8 OFFCURVE",
"441 -8 CURVE SMOOTH",
"468 -8 OFFCURVE",
"493 -5 OFFCURVE",
"521 0 CURVE"
);
},
{
closed = 1;
nodes = (
"260 343 LINE SMOOTH",
"260 483 OFFCURVE",
"381 600 OFFCURVE",
"517 600 CURVE SMOOTH",
"632 600 OFFCURVE",
"717 508 OFFCURVE",
"717 391 CURVE SMOOTH",
"717 250 OFFCURVE",
"597 133 OFFCURVE",
"463 133 CURVE SMOOTH",
"345 133 OFFCURVE",
"260 226 OFFCURVE",
"260 343 CURVE SMOOTH"
);
}
);
width = 870;
}
);
unicode = 0051;
},
{
glyphname = R;
lastChange = "2016-08-26 20:41:54 +0000";
layers = (
{
hints = (
{
horizontal = 1;
place = "{0, 21}";
target = up;
type = BottomGhost;
},
{
horizontal = 1;
place = "{700, -20}";
target = down;
type = TopGhost;
}
);
layerId = UUID0;
paths = (
{
closed = 1;
nodes = (
"176 700 LINE",
"90 0 LINE",
"104 0 LINE",
"143 321 LINE",
"255 321 LINE SMOOTH",
"419 321 OFFCURVE",
"495 431 OFFCURVE",
"495 537 CURVE SMOOTH",
"495 658 OFFCURVE",
"388 700 OFFCURVE",
"316 700 CURVE SMOOTH"
);
},
{
closed = 1;
nodes = (
"145 335 LINE",
"188 686 LINE",
"304 686 LINE SMOOTH",
"407 686 OFFCURVE",
"481 626 OFFCURVE",
"481 537 CURVE SMOOTH",
"481 468 OFFCURVE",
"430 335 OFFCURVE",
"260 335 CURVE SMOOTH"
);
},
{
closed = 1;
nodes = (
"327 337 LINE",
"327 337 OFFCURVE",
"486 0 OFFCURVE",
"486 0 CURVE",
"504 0 LINE",
"504 0 OFFCURVE",
"343 337 OFFCURVE",
"343 337 CURVE"
);
}
);
width = 512;
},
{
hints = (
{
horizontal = 1;
place = "{0, 21}";
target = up;
type = BottomGhost;
},
{
horizontal = 1;
place = "{700, -20}";
target = down;
type = TopGhost;
}
);
layerId = UUID1;
paths = (
{
closed = 1;
nodes = (
"182 736 LINE",
"92 0 LINE",
"242 0 LINE",
"271 233 LINE",
"370 233 LINE SMOOTH",
"584 233 OFFCURVE",
"660 392 OFFCURVE",
"660 519 CURVE SMOOTH",
"660 651 OFFCURVE",
"572 736 OFFCURVE",
"405 736 CURVE SMOOTH"
);
},
{
closed = 1;
nodes = (
"288 374 LINE",
"315 596 LINE",
"409 596 LINE SMOOTH",
"495 596 OFFCURVE",
"508 533 OFFCURVE",
"508 498 CURVE SMOOTH",
"508 451 OFFCURVE",
"477 374 OFFCURVE",
"381 374 CURVE SMOOTH"
);
},
{
closed = 1;
nodes = (
"337 280 LINE",
"396 176 OFFCURVE",
"417 139 OFFCURVE",
"489 0 CURVE",
"668 0 LINE",
"593 144 OFFCURVE",
"583 161 OFFCURVE",
"521 284 CURVE"
);
}
);
width = 693;
}
);
unicode = 0052;
},
{
glyphname = S;
lastChange = "2016-08-26 20:41:54 +0000";
layers = (
{
hints = (
{
horizontal = 1;
place = "{704, -20}";
target = down;
type = TopGhost;
},
{
horizontal = 1;
place = "{-8, 21}";
target = up;
type = BottomGhost;
}
);
layerId = UUID0;
paths = (
{
closed = 1;
nodes = (
"535 667 LINE",
"535 667 LINE",
"490 689 OFFCURVE",
"416 704 OFFCURVE",
"368 704 CURVE SMOOTH",
"256 704 OFFCURVE",
"161 627 OFFCURVE",
"161 529 CURVE SMOOTH",
"161 355 OFFCURVE",
"500 414 OFFCURVE",
"500 207 CURVE SMOOTH",
"500 72 OFFCURVE",
"383 6 OFFCURVE",
"276 6 CURVE SMOOTH",
"194 6 OFFCURVE",
"118 47 OFFCURVE",
"82 76 CURVE",
"72 63 LINE",
"93 49 OFFCURVE",
"162 -8 OFFCURVE",
"271 -8 CURVE SMOOTH",
"407 -8 OFFCURVE",
"514 76 OFFCURVE",
"514 210 CURVE SMOOTH",
"514 426 OFFCURVE",
"175 370 OFFCURVE",
"175 533 CURVE SMOOTH",
"175 617 OFFCURVE",
"254 691 OFFCURVE",
"372 691 CURVE SMOOTH",
"430 691 OFFCURVE",
"494 672 OFFCURVE",
"528 656 CURVE"
);
}
);
width = 555;
},
{
hints = (
{
horizontal = 1;
place = "{704, -20}";
target = down;
type = TopGhost;
},
{
horizontal = 1;
place = "{-8, 21}";
target = up;
type = BottomGhost;
}
);
layerId = UUID1;
paths = (
{
closed = 1;
nodes = (
"635 693 LINE",
"635 693 LINE",
"635 693 OFFCURVE",
"536 740 OFFCURVE",
"420 740 CURVE SMOOTH",
"226 740 OFFCURVE",
"133 613 OFFCURVE",
"133 506 CURVE SMOOTH",
"133 312 OFFCURVE",
"451 327 OFFCURVE",
"451 221 CURVE SMOOTH",
"451 147 OFFCURVE",
"317 138 OFFCURVE",
"281 138 CURVE SMOOTH",
"240 138 OFFCURVE",
"173 150 OFFCURVE",
"118 181 CURVE",
"37 50 LINE",
"82 21 OFFCURVE",
"151 -8 OFFCURVE",
"270 -8 CURVE SMOOTH",
"497 -8 OFFCURVE",
"599 94 OFFCURVE",
"599 233 CURVE SMOOTH",
"599 451 OFFCURVE",
"283 425 OFFCURVE",
"283 528 CURVE SMOOTH",
"283 573 OFFCURVE",
"335 603 OFFCURVE",
"412 603 CURVE SMOOTH",
"457 603 OFFCURVE",
"509 592 OFFCURVE",
"567 571 CURVE"
);
}
);
width = 630;
}
);
unicode = 0053;
},
{
glyphname = T;
lastChange = "2016-08-26 20:41:54 +0000";
layers = (
{
hints = (
{
horizontal = 1;
place = "{700, -20}";
target = down;
type = TopGhost;
},
{
horizontal = 1;
place = "{0, 21}";
target = up;
type = BottomGhost;
}
);
layerId = UUID0;
paths = (
{
closed = 1;
nodes = (
"126 686 LINE",
"326 686 LINE",
"242 0 LINE",
"256 0 LINE",
"340 686 LINE",
"540 686 LINE",
"542 700 LINE",
"128 700 LINE"
);
}
);
width = 498;
},
{
hints = (
{
horizontal = 1;
place = "{700, -20}";
target = down;
type = TopGhost;
},
{
horizontal = 1;
place = "{0, 21}";
target = up;
type = BottomGhost;
}
);
layerId = UUID1;
paths = (
{
closed = 1;
nodes = (
"116 593 LINE",
"286 593 LINE",
"213 0 LINE",
"363 0 LINE",
"436 593 LINE",
"612 593 LINE",
"630 736 LINE",
"134 736 LINE"
);
}
);
width = 576;
}
);
unicode = 0054;
},
{
glyphname = U;
lastChange = "2016-08-26 20:41:54 +0000";
layers = (
{
hints = (
{
horizontal = 1;
place = "{-8, 21}";
target = up;
type = BottomGhost;
},
{
horizontal = 1;
place = "{700, -20}";
target = down;
type = TopGhost;
}
);
layerId = UUID0;
paths = (
{
closed = 1;
nodes = (
"190 700 LINE",
"176 700 LINE",
"118 226 LINE SMOOTH",
"99 73 OFFCURVE",
"185 -8 OFFCURVE",
"314 -8 CURVE SMOOTH",
"314 -8 LINE SMOOTH",
"441 -8 OFFCURVE",
"549 73 OFFCURVE",
"568 226 CURVE SMOOTH",
"626 700 LINE",
"612 700 LINE",
"554 229 LINE SMOOTH",
"536 86 OFFCURVE",
"437 6 OFFCURVE",
"316 6 CURVE SMOOTH",
"193 6 OFFCURVE",
"114 86 OFFCURVE",
"132 229 CURVE SMOOTH"
);
}
);
width = 630;
},
{
hints = (
{
horizontal = 1;
place = "{-8, 21}";
target = up;
type = BottomGhost;
},
{
horizontal = 1;
place = "{700, -20}";
target = down;
type = TopGhost;
}
);
layerId = UUID1;
paths = (
{
closed = 1;
nodes = (
"332 736 LINE",
"182 736 LINE",
"125 269 LINE SMOOTH",
"105 107 OFFCURVE",
"223 -8 OFFCURVE",
"388 -8 CURVE SMOOTH",
"388 -8 LINE SMOOTH",
"554 -8 OFFCURVE",
"701 107 OFFCURVE",
"721 269 CURVE SMOOTH",
"778 736 LINE",
"628 736 LINE",
"571 272 LINE SMOOTH",
"562 202 OFFCURVE",
"487 133 OFFCURVE",
"405 133 CURVE SMOOTH",
"323 133 OFFCURVE",
"266 202 OFFCURVE",
"275 272 CURVE SMOOTH"
);
}
);
width = 780;
}
);
unicode = 0055;
},
{
glyphname = Uring;
lastChange = "2016-08-26 20:41:54 +0000";
layers = (
{
components = (
{
name = U;
}
);
layerId = UUID0;
paths = (
{
closed = 1;
nodes = (
"357 806 LINE SMOOTH",
"357 774 OFFCURVE",
"380 750 OFFCURVE",
"413 750 CURVE SMOOTH",
"452 750 OFFCURVE",
"484 781 OFFCURVE",
"484 820 CURVE SMOOTH",
"484 852 OFFCURVE",
"462 876 OFFCURVE",
"429 876 CURVE SMOOTH",
"390 876 OFFCURVE",
"357 845 OFFCURVE",
"357 806 CURVE SMOOTH"
);
},
{
closed = 1;
nodes = (
"371 809 LINE SMOOTH",
"371 837 OFFCURVE",
"399 862 OFFCURVE",
"427 862 CURVE SMOOTH",
"451 862 OFFCURVE",
"470 841 OFFCURVE",
"470 817 CURVE SMOOTH",
"470 789 OFFCURVE",
"443 764 OFFCURVE",
"415 764 CURVE SMOOTH",
"391 764 OFFCURVE",
"371 785 OFFCURVE",
"371 809 CURVE SMOOTH"
);
}
);
width = 630;
},
{
components = (
{
name = U;
}
);
layerId = UUID1;
paths = (
{
closed = 1;
nodes = (
"407 856 LINE SMOOTH",
"407 809 OFFCURVE",
"443 770 OFFCURVE",
"491 770 CURVE SMOOTH",
"544 770 OFFCURVE",
"597 819 OFFCURVE",
"597 874 CURVE SMOOTH",
"597 920 OFFCURVE",
"560 959 OFFCURVE",
"514 959 CURVE SMOOTH",
"459 959 OFFCURVE",
"407 910 OFFCURVE",
"407 856 CURVE SMOOTH"
);
},
{
closed = 1;
nodes = (
"473 860 LINE SMOOTH",
"473 879 OFFCURVE",
"487 893 OFFCURVE",
"506 893 CURVE SMOOTH",
"521 893 OFFCURVE",
"531 883 OFFCURVE",
"531 867 CURVE SMOOTH",
"531 849 OFFCURVE",
"517 835 OFFCURVE",
"499 835 CURVE SMOOTH",
"483 835 OFFCURVE",
"473 846 OFFCURVE",
"473 860 CURVE SMOOTH"
);
}
);
width = 780;
}
);
unicode = 016E;
},
{
glyphname = V;
lastChange = "2016-08-26 20:41:54 +0000";
layers = (
{
hints = (
{
horizontal = 1;
place = "{700, -20}";
target = down;
type = TopGhost;
},
{
horizontal = 1;
place = "{-32, 21}";
target = up;
type = BottomGhost;
}
);
layerId = UUID0;
paths = (
{
closed = 1;
nodes = (
"126 700 LINE",
"199 456 OFFCURVE",
"253 212 OFFCURVE",
"326 -32 CURVE",
"459 212 OFFCURVE",
"573 456 OFFCURVE",
"706 700 CURVE",
"691 700 LINE",
"568 475 OFFCURVE",
"464 250 OFFCURVE",
"342 25 CURVE SMOOTH",
"338 17 OFFCURVE",
"334 8 OFFCURVE",
"330 0 CURVE",
"328 8 OFFCURVE",
"326 17 OFFCURVE",
"324 25 CURVE SMOOTH",
"257 250 OFFCURVE",
"208 475 OFFCURVE",
"141 700 CURVE"
);
}
);
width = 700;
},
{
hints = (
{
horizontal = 1;
place = "{700, -20}";
target = down;
type = TopGhost;
},
{
horizontal = 1;
place = "{-32, 21}";
target = up;
type = BottomGhost;
}
);
layerId = UUID1;
paths = (
{
closed = 1;
nodes = (
"122 736 LINE",
"122 736 OFFCURVE",
"363 -34 OFFCURVE",
"363 -34 CURVE",
"363 -34 OFFCURVE",
"794 736 OFFCURVE",
"794 736 CURVE",
"646 736 LINE",
"646 736 OFFCURVE",
"418 319 OFFCURVE",
"418 319 CURVE SMOOTH",
"418 319 OFFCURVE",
"407 293 OFFCURVE",
"402 278 CURVE",
"401 293 OFFCURVE",
"396 319 OFFCURVE",
"396 319 CURVE SMOOTH",
"396 319 OFFCURVE",
"270 736 OFFCURVE",
"270 736 CURVE"
);
}
);
width = 710;
}
);
unicode = 0056;
},
{
glyphname = W;
lastChange = "2016-08-26 20:41:54 +0000";
layers = (
{
hints = (
{
horizontal = 1;
place = "{700, -20}";
target = down;
type = TopGhost;
},
{
horizontal = 1;
place = "{-32, 21}";
target = up;
type = BottomGhost;
}
);
layerId = UUID0;
paths = (
{
closed = 1;
nodes = (
"638 -32 LINE",
"638 -32 OFFCURVE",
"885 456 OFFCURVE",
"1018 700 CURVE",
"1003 700 LINE",
"880 475 OFFCURVE",
"654 25 OFFCURVE",
"654 25 CURVE",
"654 25 OFFCURVE",
"646 8 OFFCURVE",
"642 0 CURVE",
"640 8 OFFCURVE",
"638 17 OFFCURVE",
"636 25 CURVE",
"590 243 OFFCURVE",
"473 700 OFFCURVE",
"473 700 CURVE",
"458 700 LINE",
"458 700 OFFCURVE",
"531 408 OFFCURVE",
"531 408 CURVE",
"531 408 OFFCURVE",
"360 25 OFFCURVE",
"360 25 CURVE",
"360 25 OFFCURVE",
"350 0 OFFCURVE",
"350 0 CURVE",
"350 0 OFFCURVE",
"344 25 OFFCURVE",
"344 25 CURVE",
"344 25 OFFCURVE",
"227 475 OFFCURVE",
"161 700 CURVE",
"146 700 LINE",
"219 456 OFFCURVE",
"273 212 OFFCURVE",
"346 -32 CURVE",
"405 101 OFFCURVE",
"525 367 OFFCURVE",
"525 367 CURVE",
"525 367 OFFCURVE",
"535 388 OFFCURVE",
"535 388 CURVE",
"535 388 OFFCURVE",
"539 367 OFFCURVE",
"539 367 CURVE"
);
}
);
width = 991;
},
{
hints = (
{
horizontal = 1;
place = "{700, -20}";
target = down;
type = TopGhost;
},
{
horizontal = 1;
place = "{-32, 21}";
target = up;
type = BottomGhost;
}
);
layerId = UUID1;
paths = (
{
closed = 1;
nodes = (
"692 -32 LINE",
"816 221 OFFCURVE",
"952 476 OFFCURVE",
"1076 731 CURVE",
"920 731 LINE",
"852 588 OFFCURVE",
"798 501 OFFCURVE",
"745 353 CURVE",
"740 340 OFFCURVE",
"739 328 OFFCURVE",
"734 315 CURVE",
"734 328 OFFCURVE",
"734 340 OFFCURVE",
"731 353 CURVE",
"731 353 OFFCURVE",
"630 731 OFFCURVE",
"630 731 CURVE",
"486 731 LINE",
"496 674 OFFCURVE",
"516 562 OFFCURVE",
"516 562 CURVE",
"516 562 OFFCURVE",
"399 386 OFFCURVE",
"383 351 CURVE",
"379 341 OFFCURVE",
"368 324 OFFCURVE",
"366 314 CURVE",
"364 326 OFFCURVE",
"365 340 OFFCURVE",
"364 353 CURVE",
"343 496 OFFCURVE",
"320 577 OFFCURVE",
"287 731 CURVE",
"117 731 LINE",
"179 476 OFFCURVE",
"251 221 OFFCURVE",
"313 -34 CURVE",
"394 101 OFFCURVE",
"561 377 OFFCURVE",
"561 377 CURVE",
"561 377 OFFCURVE",
"566 388 OFFCURVE",
"568 401 CURVE",
"571 386 OFFCURVE",
"570 391 OFFCURVE",
"574 376 CURVE"
);
}
);
width = 1032;
}
);
unicode = 0057;
},
{
glyphname = X;
lastChange = "2016-08-26 20:41:54 +0000";
layers = (
{
hints = (
{
horizontal = 1;
place = "{0, 21}";
target = up;
type = BottomGhost;
},
{
horizontal = 1;
place = "{700, -20}";
target = down;
type = TopGhost;
}
);
layerId = UUID0;
paths = (
{
closed = 1;
nodes = (
"545 0 LINE",
"562 0 LINE",
"500 119 OFFCURVE",
"434 240 OFFCURVE",
"372 359 CURVE",
"459 474 OFFCURVE",
"545 585 OFFCURVE",
"632 700 CURVE",
"620 700 LINE",
"539 594 OFFCURVE",
"458 487 OFFCURVE",
"377 381 CURVE",
"373 377 OFFCURVE",
"371 372 OFFCURVE",
"367 368 CURVE",
"365 372 OFFCURVE",
"363 377 OFFCURVE",
"361 381 CURVE",
"305 487 OFFCURVE",
"248 594 OFFCURVE",
"192 700 CURVE",
"176 700 LINE",
"235 587 OFFCURVE",
"295 473 OFFCURVE",
"354 360 CURVE",
"354 360 LINE",
"262 240 OFFCURVE",
"172 120 OFFCURVE",
"80 0 CURVE",
"92 0 LINE",
"177 112 OFFCURVE",
"265 226 OFFCURVE",
"350 338 CURVE",
"353 342 OFFCURVE",
"356 347 OFFCURVE",
"359 351 CURVE",
"373 330 OFFCURVE",
"384 301 OFFCURVE",
"396 279 CURVE"
);
}
);
width = 637;
},
{
hints = (
{
horizontal = 1;
place = "{0, 21}";
target = up;
type = BottomGhost;
},
{
horizontal = 1;
place = "{700, -20}";
target = down;
type = TopGhost;
}
);
layerId = UUID1;
paths = (
{
closed = 1;
nodes = (
"489 0 LINE",
"676 0 LINE",
"676 0 OFFCURVE",
"484 368 OFFCURVE",
"484 368 CURVE",
"484 368 OFFCURVE",
"759 736 OFFCURVE",
"759 736 CURVE",
"573 736 LINE",
"573 736 OFFCURVE",
"425 522 OFFCURVE",
"425 522 CURVE",
"425 522 OFFCURVE",
"408 495 OFFCURVE",
"401 480 CURVE",
"398 495 OFFCURVE",
"387 522 OFFCURVE",
"387 522 CURVE",
"387 522 OFFCURVE",
"286 736 OFFCURVE",
"286 736 CURVE",
"101 736 LINE",
"101 736 OFFCURVE",
"288 376 OFFCURVE",
"288 376 CURVE",
"288 376 LINE",
"288 376 OFFCURVE",
"1 0 OFFCURVE",
"1 0 CURVE",
"191 0 LINE",
"191 0 OFFCURVE",
"346 221 OFFCURVE",
"346 221 CURVE",
"346 221 OFFCURVE",
"361 243 OFFCURVE",
"368 258 CURVE",
"368 253 OFFCURVE",
"383 221 OFFCURVE",
"383 221 CURVE"
);
}
);
width = 681;
}
);
unicode = 0058;
},
{
glyphname = Y;
lastChange = "2016-08-26 20:41:54 +0000";
layers = (
{
hints = (
{
horizontal = 1;
place = "{700, -20}";
target = down;
type = TopGhost;
},
{
horizontal = 1;
place = "{0, 21}";
target = up;
type = BottomGhost;
}
);
layerId = UUID0;
paths = (
{
closed = 1;
nodes = (
"303 0 LINE",
"317 0 LINE",
"349 262 LINE",
"665 700 LINE",
"648 700 LINE",
"552 566 OFFCURVE",
"455 432 OFFCURVE",
"359 298 CURVE",
"354 289 OFFCURVE",
"350 281 OFFCURVE",
"344 272 CURVE",
"335 298 LINE",
"273 433 OFFCURVE",
"207 566 OFFCURVE",
"143 700 CURVE",
"126 700 LINE",
"196 554 OFFCURVE",
"265 408 OFFCURVE",
"335 262 CURVE"
);
}
);
width = 619;
},
{
hints = (
{
horizontal = 1;
place = "{700, -20}";
target = down;
type = TopGhost;
},
{
horizontal = 1;
place = "{0, 21}";
target = up;
type = BottomGhost;
}
);
layerId = UUID1;
paths = (
{
closed = 1;
nodes = (
"250 0 LINE",
"401 0 LINE",
"429 229 LINE",
"761 736 LINE",
"592 736 LINE",
"592 736 OFFCURVE",
"444 492 OFFCURVE",
"388 401 CURVE",
"383 391 OFFCURVE",
"377 376 OFFCURVE",
"370 365 CURVE",
"364 401 LINE",
"331 491 OFFCURVE",
"238 736 OFFCURVE",
"238 736 CURVE",
"69 736 LINE",
"69 736 OFFCURVE",
"278 229 OFFCURVE",
"278 229 CURVE"
);
}
);
width = 650;
}
);
unicode = 0059;
},
{
glyphname = Z;
lastChange = "2016-08-26 20:41:54 +0000";
layers = (
{
hints = (
{
horizontal = 1;
place = "{735, -20}";
target = down;
type = TopGhost;
},
{
horizontal = 1;
place = "{0, 21}";
target = up;
type = BottomGhost;
}
);
layerId = UUID0;
paths = (
{
closed = 1;
nodes = (
"611 0 LINE",
"613 14 LINE",
"62 14 LINE",
"664 700 LINE",
"189 700 LINE",
"189 700 LINE",
"167 700 OFFCURVE",
"161 711 OFFCURVE",
"162 723 CURVE SMOOTH",
"163 735 LINE",
"147 735 LINE",
"147 731 LINE SMOOTH",
"145 693 OFFCURVE",
"160 686 OFFCURVE",
"201 686 CURVE SMOOTH",
"634 686 LINE",
"437 462 OFFCURVE",
"234 238 OFFCURVE",
"35 0 CURVE"
);
}
);
width = 629;
},
{
hints = (
{
horizontal = 1;
place = "{735, -20}";
target = down;
type = TopGhost;
},
{
horizontal = 1;
place = "{0, 21}";
target = up;
type = BottomGhost;
}
);
layerId = UUID1;
paths = (
{
closed = 1;
nodes = (
"661 0 LINE",
"679 144 LINE",
"314 144 LINE",
"752 736 LINE",
"343 736 LINE",
"343 736 LINE",
"319 736 OFFCURVE",
"310 730 OFFCURVE",
"314 759 CURVE SMOOTH",
"316 773 LINE",
"183 773 LINE",
"173 692 LINE SMOOTH",
"168 651 OFFCURVE",
"218 620 OFFCURVE",
"261 620 CURVE SMOOTH",
"491 620 LINE",
"491 620 OFFCURVE",
"35 0 OFFCURVE",
"35 0 CURVE"
);
}
);
width = 738;
}
);
unicode = 005A;
},
{
glyphname = a;
lastChange = "2016-08-26 20:41:54 +0000";
layers = (
{
hints = (
{
horizontal = 1;
place = "{-6, 21}";
target = up;
type = BottomGhost;
},
{
horizontal = 1;
place = "{383, -20}";
target = down;
type = TopGhost;
}
);
layerId = UUID0;
paths = (
{
closed = 1;
nodes = (
"405 0 LINE",
"419 0 LINE",
"465 375 LINE",
"455 375 LINE",
"448 337 OFFCURVE",
"442 298 OFFCURVE",
"437 260 CURVE",
"417 332 OFFCURVE",
"353 383 OFFCURVE",
"271 383 CURVE SMOOTH",
"155 383 OFFCURVE",
"52 285 OFFCURVE",
"52 168 CURVE SMOOTH",
"52 168 LINE SMOOTH",
"52 70 OFFCURVE",
"124 -6 OFFCURVE",
"223 -6 CURVE SMOOTH",
"306 -6 OFFCURVE",
"384 45 OFFCURVE",
"420 117 CURVE",
"418 96 OFFCURVE",
"415 75 OFFCURVE",
"412 54 CURVE SMOOTH"
);
},
{
closed = 1;
nodes = (
"66 170 LINE SMOOTH",
"66 278 OFFCURVE",
"161 369 OFFCURVE",
"269 369 CURVE SMOOTH",
"361 369 OFFCURVE",
"429 297 OFFCURVE",
"429 206 CURVE SMOOTH",
"429 98 OFFCURVE",
"333 8 OFFCURVE",
"225 8 CURVE SMOOTH",
"133 8 OFFCURVE",
"66 79 OFFCURVE",
"66 170 CURVE SMOOTH"
);
}
);
width = 499;
},
{
hints = (
{
horizontal = 1;
place = "{-9, 21}";
target = up;
type = BottomGhost;
},
{
horizontal = 1;
place = "{382, -20}";
target = down;
type = TopGhost;
}
);
layerId = UUID1;
paths = (
{
closed = 1;
nodes = (
"398 0 LINE",
"515 0 LINE",
"569 437 LINE",
"456 437 LINE",
"453 425 OFFCURVE",
"450 412 OFFCURVE",
"447 402 CURVE",
"446 404 OFFCURVE",
"408 449 OFFCURVE",
"328 449 CURVE SMOOTH",
"195 449 OFFCURVE",
"67 328 OFFCURVE",
"67 190 CURVE SMOOTH",
"67 190 LINE SMOOTH",
"67 82 OFFCURVE",
"146 -12 OFFCURVE",
"273 -12 CURVE SMOOTH",
"355 -12 OFFCURVE",
"396 26 OFFCURVE",
"401 26 CURVE",
"401 28 OFFCURVE",
"401 24 OFFCURVE",
"401 22 CURVE SMOOTH"
);
},
{
closed = 1;
nodes = (
"186 206 LINE SMOOTH",
"186 280 OFFCURVE",
"243 335 OFFCURVE",
"320 335 CURVE SMOOTH",
"386 335 OFFCURVE",
"426 292 OFFCURVE",
"426 233 CURVE SMOOTH",
"426 161 OFFCURVE",
"370 102 OFFCURVE",
"292 102 CURVE SMOOTH",
"227 102 OFFCURVE",
"186 147 OFFCURVE",
"186 206 CURVE SMOOTH"
);
}
);
width = 586;
}
);
unicode = 0061;
},
{
glyphname = aring;
lastChange = "2016-08-26 20:41:54 +0000";
layers = (
{
components = (
{
name = a;
}
);
hints = (
{
place = "{187, 126}";
},
{
horizontal = 1;
place = "{477, 126}";
}
);
layerId = UUID0;
paths = (
{
closed = 1;
nodes = (
"225 462 LINE SMOOTH",
"225 430 OFFCURVE",
"248 406 OFFCURVE",
"281 406 CURVE SMOOTH",
"320 406 OFFCURVE",
"352 437 OFFCURVE",
"352 476 CURVE SMOOTH",
"352 508 OFFCURVE",
"329 532 OFFCURVE",
"296 532 CURVE SMOOTH",
"257 532 OFFCURVE",
"225 501 OFFCURVE",
"225 462 CURVE SMOOTH"
);
},
{
closed = 1;
nodes = (
"239 465 LINE SMOOTH",
"239 493 OFFCURVE",
"267 518 OFFCURVE",
"295 518 CURVE SMOOTH",
"319 518 OFFCURVE",
"338 497 OFFCURVE",
"338 473 CURVE SMOOTH",
"338 445 OFFCURVE",
"311 420 OFFCURVE",
"283 420 CURVE SMOOTH",
"259 420 OFFCURVE",
"239 441 OFFCURVE",
"239 465 CURVE SMOOTH"
);
}
);
width = 551;
},
{
components = (
{
name = a;
transform = "{1, 0, 0, 1, 17, 0}";
}
);
hints = (
{
place = "{218, 65}";
},
{
horizontal = 1;
place = "{507, 65}";
}
);
layerId = UUID1;
paths = (
{
closed = 1;
nodes = (
"274 567 LINE SMOOTH",
"274 520 OFFCURVE",
"311 481 OFFCURVE",
"358 481 CURVE SMOOTH",
"412 481 OFFCURVE",
"464 530 OFFCURVE",
"464 585 CURVE SMOOTH",
"464 631 OFFCURVE",
"428 670 OFFCURVE",
"381 670 CURVE SMOOTH",
"327 670 OFFCURVE",
"274 621 OFFCURVE",
"274 567 CURVE SMOOTH"
);
},
{
closed = 1;
nodes = (
"340 571 LINE SMOOTH",
"340 590 OFFCURVE",
"355 604 OFFCURVE",
"373 604 CURVE SMOOTH",
"389 604 OFFCURVE",
"399 594 OFFCURVE",
"399 578 CURVE SMOOTH",
"399 560 OFFCURVE",
"384 546 OFFCURVE",
"366 546 CURVE SMOOTH",
"350 546 OFFCURVE",
"340 557 OFFCURVE",
"340 571 CURVE SMOOTH"
);
}
);
width = 551;
}
);
unicode = 00E5;
},
{
glyphname = ae;
lastChange = "2016-08-26 20:41:54 +0000";
layers = (
{
hints = (
{
horizontal = 1;
place = "{-6, 199}";
},
{
horizontal = 1;
place = "{179, 204}";
},
{
horizontal = 1;
place = "{-8, 21}";
target = up;
type = BottomGhost;
}
);
layerId = UUID0;
paths = (
{
closed = 1;
nodes = (
"530 56 LINE",
"494 26 OFFCURVE",
"449 8 OFFCURVE",
"401 8 CURVE SMOOTH",
"324 8 OFFCURVE",
"265 55 OFFCURVE",
"247 122 CURVE",
"353 164 OFFCURVE",
"496 218 OFFCURVE",
"601 259 CURVE",
"580 330 OFFCURVE",
"529 384 OFFCURVE",
"447 384 CURVE SMOOTH",
"331 384 OFFCURVE",
"228 285 OFFCURVE",
"228 168 CURVE SMOOTH",
"228 70 OFFCURVE",
"300 -6 OFFCURVE",
"399 -6 CURVE SMOOTH",
"451 -6 OFFCURVE",
"501 14 OFFCURVE",
"540 46 CURVE"
);
},
{
closed = 1;
nodes = (
"237 178 LINE",
"240 195 LINE",
"162 195 LINE SMOOTH",
"103 195 OFFCURVE",
"31 162 OFFCURVE",
"31 94 CURVE SMOOTH",
"31 40 OFFCURVE",
"77 -8 OFFCURVE",
"158 -8 CURVE SMOOTH",
"228 -8 OFFCURVE",
"292 15 OFFCURVE",
"315 75 CURVE",
"306 93 LINE",
"295 48 OFFCURVE",
"245 8 OFFCURVE",
"167 8 CURVE SMOOTH",
"109 8 OFFCURVE",
"48 31 OFFCURVE",
"48 94 CURVE SMOOTH",
"48 132 OFFCURVE",
"75 178 OFFCURVE",
"177 178 CURVE SMOOTH"
);
},
{
closed = 1;
nodes = (
"80 332 LINE",
"110 352 OFFCURVE",
"141 367 OFFCURVE",
"206 367 CURVE SMOOTH",
"269 367 OFFCURVE",
"303 352 OFFCURVE",
"318 324 CURVE",
"331 334 LINE",
"315 365 OFFCURVE",
"279 383 OFFCURVE",
"213 383 CURVE SMOOTH",
"150 383 OFFCURVE",
"103 367 OFFCURVE",
"73 346 CURVE"
);
},
{
closed = 1;
nodes = (
"583 266 LINE",
"479 225 OFFCURVE",
"347 176 OFFCURVE",
"244 135 CURVE",
"242 144 OFFCURVE",
"241 157 OFFCURVE",
"241 166 CURVE SMOOTH",
"241 278 OFFCURVE",
"337 369 OFFCURVE",
"445 369 CURVE SMOOTH",
"516 369 OFFCURVE",
"562 326 OFFCURVE",
"583 266 CURVE"
);
}
);
width = 605;
},
{
hints = (
{
horizontal = 1;
place = "{-8, 230}";
},
{
horizontal = 1;
place = "{136, 249}";
},
{
horizontal = 1;
place = "{-8, 21}";
target = up;
type = BottomGhost;
}
);
layerId = UUID1;
paths = (
{
closed = 1;
nodes = (
"611 134 LINE",
"589 115 OFFCURVE",
"549 102 OFFCURVE",
"518 102 CURVE SMOOTH",
"475 102 OFFCURVE",
"440 125 OFFCURVE",
"423 160 CURVE",
"525 196 OFFCURVE",
"672 256 OFFCURVE",
"750 282 CURVE",
"733 383 OFFCURVE",
"658 448 OFFCURVE",
"559 448 CURVE SMOOTH",
"427 448 OFFCURVE",
"299 333 OFFCURVE",
"299 196 CURVE SMOOTH",
"299 82 OFFCURVE",
"387 -12 OFFCURVE",
"507 -12 CURVE SMOOTH",
"570 -12 OFFCURVE",
"640 12 OFFCURVE",
"687 50 CURVE"
);
},
{
closed = 1;
nodes = (
"322 169 LINE",
"333 252 LINE",
"196 252 LINE SMOOTH",
"126 252 OFFCURVE",
"32 207 OFFCURVE",
"32 103 CURVE SMOOTH",
"32 45 OFFCURVE",
"66 -9 OFFCURVE",
"172 -9 CURVE SMOOTH",
"284 -9 OFFCURVE",
"380 49 OFFCURVE",
"406 131 CURVE",
"306 150 LINE",
"296 110 OFFCURVE",
"244 102 OFFCURVE",
"191 102 CURVE SMOOTH",
"166 102 OFFCURVE",
"139 104 OFFCURVE",
"139 127 CURVE SMOOTH",
"139 153 OFFCURVE",
"162 169 OFFCURVE",
"246 169 CURVE SMOOTH"
);
},
{
closed = 1;
nodes = (
"125 306 LINE",
"158 322 OFFCURVE",
"205 335 OFFCURVE",
"253 335 CURVE SMOOTH",
"298 335 OFFCURVE",
"325 324 OFFCURVE",
"330 289 CURVE",
"415 390 LINE",
"394 427 OFFCURVE",
"343 449 OFFCURVE",
"281 449 CURVE SMOOTH",
"214 449 OFFCURVE",
"145 429 OFFCURVE",
"89 395 CURVE"
);
},
{
closed = 1;
nodes = (
"609 307 LINE",
"564 292 OFFCURVE",
"477 255 OFFCURVE",
"416 232 CURVE",
"417 226 OFFCURVE",
"417 222 OFFCURVE",
"417 224 CURVE SMOOTH",
"424 278 OFFCURVE",
"481 335 OFFCURVE",
"547 335 CURVE SMOOTH",
"568 335 OFFCURVE",
"600 329 OFFCURVE",
"609 307 CURVE"
);
}
);
width = 744;
}
);
unicode = 00E6;
},
{
glyphname = b;
lastChange = "2016-08-26 20:41:54 +0000";
layers = (
{
hints = (
{
horizontal = 1;
place = "{750, -20}";
target = down;
type = TopGhost;
},
{
horizontal = 1;
place = "{-6, 21}";
target = up;
type = BottomGhost;
}
);
layerId = UUID0;
paths = (
{
closed = 1;
nodes = (
"172 750 LINE",
"80 0 LINE",
"94 0 LINE",
"101 54 LINE SMOOTH",
"104 75 OFFCURVE",
"105 96 OFFCURVE",
"107 117 CURVE",
"127 45 OFFCURVE",
"191 -6 OFFCURVE",
"274 -6 CURVE SMOOTH",
"382 -6 OFFCURVE",
"479 80 OFFCURVE",
"492 188 CURVE",
"492 188 LINE",
"505 296 OFFCURVE",
"430 383 OFFCURVE",
"322 383 CURVE SMOOTH",
"240 383 OFFCURVE",
"164 332 OFFCURVE",
"126 260 CURVE",
"131 298 OFFCURVE",
"186 750 OFFCURVE",
"186 750 CURVE"
);
},
{
closed = 1;
nodes = (
"478 188 LINE",
"466 88 OFFCURVE",
"376 8 OFFCURVE",
"276 8 CURVE SMOOTH",
"184 8 OFFCURVE",
"116 79 OFFCURVE",
"116 170 CURVE SMOOTH",
"116 278 OFFCURVE",
"212 369 OFFCURVE",
"320 369 CURVE SMOOTH",
"420 369 OFFCURVE",
"490 288 OFFCURVE",
"478 188 CURVE"
);
}
);
width = 505;
},
{
hints = (
{
horizontal = 1;
place = "{750, -20}";
target = down;
type = TopGhost;
},
{
horizontal = 1;
place = "{-9, 21}";
target = up;
type = BottomGhost;
}
);
layerId = UUID1;
paths = (
{
closed = 1;
nodes = (
"177 789 LINE",
"80 0 LINE",
"197 0 LINE",
"200 25 LINE SMOOTH",
"200 27 OFFCURVE",
"199 28 OFFCURVE",
"200 29 CURVE",
"214 13 OFFCURVE",
"261 -12 OFFCURVE",
"321 -12 CURVE SMOOTH",
"459 -12 OFFCURVE",
"562 84 OFFCURVE",
"579 217 CURVE",
"579 217 LINE",
"597 364 OFFCURVE",
"518 449 OFFCURVE",
"383 449 CURVE SMOOTH",
"312 449 OFFCURVE",
"266 414 OFFCURVE",
"246 399 CURVE",
"247 409 OFFCURVE",
"291 766 OFFCURVE",
"294 789 CURVE"
);
},
{
closed = 1;
nodes = (
"452 219 LINE",
"444 154 OFFCURVE",
"401 102 OFFCURVE",
"329 102 CURVE SMOOTH",
"263 102 OFFCURVE",
"223 147 OFFCURVE",
"223 206 CURVE SMOOTH",
"223 280 OFFCURVE",
"280 335 OFFCURVE",
"357 335 CURVE SMOOTH",
"429 335 OFFCURVE",
"460 287 OFFCURVE",
"452 219 CURVE"
);
}
);
width = 566;
}
);
unicode = 0062;
},
{
glyphname = c;
lastChange = "2016-08-26 20:41:54 +0000";
layers = (
{
hints = (
{
horizontal = 1;
place = "{383, -20}";
target = down;
type = TopGhost;
},
{
horizontal = 1;
place = "{-6, 21}";
target = up;
type = BottomGhost;
}
);
layerId = UUID0;
paths = (
{
closed = 1;
nodes = (
"349 47 LINE",
"315 23 OFFCURVE",
"274 8 OFFCURVE",
"231 8 CURVE SMOOTH",
"139 8 OFFCURVE",
"72 79 OFFCURVE",
"72 170 CURVE SMOOTH",
"72 278 OFFCURVE",
"168 369 OFFCURVE",
"276 369 CURVE SMOOTH",
"319 369 OFFCURVE",
"356 354 OFFCURVE",
"384 329 CURVE",
"387 333 OFFCURVE",
"392 336 OFFCURVE",
"395 340 CURVE",
"365 367 OFFCURVE",
"324 383 OFFCURVE",
"277 383 CURVE SMOOTH",
"161 383 OFFCURVE",
"58 285 OFFCURVE",
"58 168 CURVE SMOOTH",
"58 70 OFFCURVE",
"130 -6 OFFCURVE",
"230 -6 CURVE SMOOTH",
"277 -6 OFFCURVE",
"321 10 OFFCURVE",
"358 37 CURVE",
"355 40 OFFCURVE",
"352 44 OFFCURVE",
"349 47 CURVE"
);
}
);
width = 379;
},
{
hints = (
{
horizontal = 1;
place = "{384, -20}";
target = down;
type = TopGhost;
},
{
horizontal = 1;
place = "{-9, 21}";
target = up;
type = BottomGhost;
}
);
layerId = UUID1;
paths = (
{
closed = 1;
nodes = (
"370 127 LINE",
"349 111 OFFCURVE",
"322 102 OFFCURVE",
"291 102 CURVE SMOOTH",
"225 102 OFFCURVE",
"186 148 OFFCURVE",
"186 206 CURVE SMOOTH",
"186 280 OFFCURVE",
"241 335 OFFCURVE",
"320 335 CURVE SMOOTH",
"350 335 OFFCURVE",
"376 326 OFFCURVE",
"393 311 CURVE",
"422 341 OFFCURVE",
"450 369 OFFCURVE",
"478 398 CURVE",
"440 429 OFFCURVE",
"392 449 OFFCURVE",
"334 449 CURVE SMOOTH",
"194 449 OFFCURVE",
"69 333 OFFCURVE",
"69 196 CURVE SMOOTH",
"69 82 OFFCURVE",
"157 -12 OFFCURVE",
"277 -12 CURVE SMOOTH",
"333 -12 OFFCURVE",
"387 8 OFFCURVE",
"430 39 CURVE",
"409 69 OFFCURVE",
"392 97 OFFCURVE",
"370 127 CURVE"
);
}
);
width = 468;
}
);
unicode = 0063;
},
{
glyphname = ccedilla;
lastChange = "2016-08-26 20:41:54 +0000";
layers = (
{
hints = (
{
horizontal = 1;
place = "{-223, 231}";
},
{
horizontal = 1;
place = "{383, -20}";
target = down;
type = TopGhost;
},
{
horizontal = 1;
place = "{383, -20}";
target = down;
type = TopGhost;
},
{
horizontal = 1;
place = "{-6, 21}";
target = up;
type = BottomGhost;
}
);
layerId = UUID0;
paths = (
{
closed = 1;
nodes = (
"349 47 LINE",
"315 23 OFFCURVE",
"274 8 OFFCURVE",
"231 8 CURVE SMOOTH",
"139 8 OFFCURVE",
"72 79 OFFCURVE",
"72 170 CURVE SMOOTH",
"72 278 OFFCURVE",
"168 369 OFFCURVE",
"276 369 CURVE SMOOTH",
"319 369 OFFCURVE",
"356 354 OFFCURVE",
"384 329 CURVE",
"387 333 OFFCURVE",
"392 336 OFFCURVE",
"395 340 CURVE",
"365 367 OFFCURVE",
"324 383 OFFCURVE",
"277 383 CURVE SMOOTH",
"161 383 OFFCURVE",
"58 285 OFFCURVE",
"58 168 CURVE SMOOTH",
"58 70 OFFCURVE",
"130 -6 OFFCURVE",
"230 -6 CURVE SMOOTH",
"277 -6 OFFCURVE",
"321 10 OFFCURVE",
"358 37 CURVE",
"355 40 OFFCURVE",
"352 44 OFFCURVE",
"349 47 CURVE"
);
},
{
closed = 1;
nodes = (
"228 0 LINE",
"213 0 LINE",
"211 -16 LINE SMOOTH",
"205 -66 OFFCURVE",
"280 -63 OFFCURVE",
"280 -128 CURVE SMOOTH",
"280 -174 OFFCURVE",
"245 -209 OFFCURVE",
"201 -209 CURVE SMOOTH",
"168 -209 OFFCURVE",
"145 -189 OFFCURVE",
"141 -161 CURVE",
"136 -162 OFFCURVE",
"130 -164 OFFCURVE",
"125 -165 CURVE",
"133 -204 OFFCURVE",
"164 -223 OFFCURVE",
"199 -223 CURVE SMOOTH",
"248 -223 OFFCURVE",
"295 -190 OFFCURVE",
"295 -122 CURVE SMOOTH",
"295 -105 OFFCURVE",
"286 -79 OFFCURVE",
"261 -61 CURVE SMOOTH",
"245 -50 OFFCURVE",
"221 -41 OFFCURVE",
"227 -6 CURVE SMOOTH"
);
}
);
width = 379;
},
{
hints = (
{
horizontal = 1;
place = "{-244, 316}";
},
{
horizontal = 1;
place = "{384, -20}";
target = down;
type = TopGhost;
},
{
horizontal = 1;
place = "{384, -20}";
target = down;
type = TopGhost;
},
{
horizontal = 1;
place = "{-9, 21}";
target = up;
type = BottomGhost;
}
);
layerId = UUID1;
paths = (
{
closed = 1;
nodes = (
"370 127 LINE",
"349 111 OFFCURVE",
"322 102 OFFCURVE",
"291 102 CURVE SMOOTH",
"225 102 OFFCURVE",
"186 148 OFFCURVE",
"186 206 CURVE SMOOTH",
"186 280 OFFCURVE",
"241 335 OFFCURVE",
"320 335 CURVE SMOOTH",
"350 335 OFFCURVE",
"376 326 OFFCURVE",
"393 311 CURVE",
"422 341 OFFCURVE",
"450 369 OFFCURVE",
"478 398 CURVE",
"440 429 OFFCURVE",
"392 449 OFFCURVE",
"334 449 CURVE SMOOTH",
"194 449 OFFCURVE",
"69 333 OFFCURVE",
"69 196 CURVE SMOOTH",
"69 82 OFFCURVE",
"157 -12 OFFCURVE",
"277 -12 CURVE SMOOTH",
"333 -12 OFFCURVE",
"387 8 OFFCURVE",
"430 39 CURVE",
"409 69 OFFCURVE",
"392 97 OFFCURVE",
"370 127 CURVE"
);
},
{
closed = 1;
nodes = (
"286 0 LINE",
"212 0 LINE",
"209 -25 LINE SMOOTH",
"201 -95 OFFCURVE",
"259 -89 OFFCURVE",
"259 -128 CURVE SMOOTH",
"259 -154 OFFCURVE",
"245 -180 OFFCURVE",
"213 -180 CURVE SMOOTH",
"191 -180 OFFCURVE",
"177 -166 OFFCURVE",
"174 -148 CURVE",
"151 -160 OFFCURVE",
"127 -172 OFFCURVE",
"104 -184 CURVE",
"117 -243 OFFCURVE",
"162 -271 OFFCURVE",
"213 -271 CURVE SMOOTH",
"305 -271 OFFCURVE",
"349 -195 OFFCURVE",
"349 -133 CURVE SMOOTH",
"349 -103 OFFCURVE",
"340 -79 OFFCURVE",
"321 -62 CURVE SMOOTH",
"306 -48 OFFCURVE",
"280 -48 OFFCURVE",
"285 -8 CURVE SMOOTH"
);
}
);
width = 468;
}
);
unicode = 00E7;
},
{
glyphname = d;
lastChange = "2016-08-26 20:41:54 +0000";
layers = (
{
hints = (
{
horizontal = 1;
place = "{-6, 21}";
target = up;
type = BottomGhost;
},
{
horizontal = 1;
place = "{750, -20}";
target = down;
type = TopGhost;
}
);
layerId = UUID0;
paths = (
{
closed = 1;
nodes = (
"411 0 LINE",
"425 0 LINE",
"517 750 LINE",
"503 750 LINE",
"503 750 OFFCURVE",
"448 298 OFFCURVE",
"443 260 CURVE",
"423 332 OFFCURVE",
"359 383 OFFCURVE",
"277 383 CURVE SMOOTH",
"161 383 OFFCURVE",
"58 285 OFFCURVE",
"58 168 CURVE SMOOTH",
"58 168 LINE SMOOTH",
"58 70 OFFCURVE",
"130 -6 OFFCURVE",
"229 -6 CURVE SMOOTH",
"312 -6 OFFCURVE",
"390 45 OFFCURVE",
"426 117 CURVE",
"424 96 OFFCURVE",
"421 75 OFFCURVE",
"418 54 CURVE SMOOTH"
);
},
{
closed = 1;
nodes = (
"72 170 LINE SMOOTH",
"72 278 OFFCURVE",
"167 369 OFFCURVE",
"275 369 CURVE SMOOTH",
"367 369 OFFCURVE",
"435 297 OFFCURVE",
"435 206 CURVE SMOOTH",
"435 98 OFFCURVE",
"339 8 OFFCURVE",
"231 8 CURVE SMOOTH",
"139 8 OFFCURVE",
"72 79 OFFCURVE",
"72 170 CURVE SMOOTH"
);
}
);
width = 505;
},
{
hints = (
{
horizontal = 1;
place = "{-9, 21}";
target = up;
type = BottomGhost;
},
{
horizontal = 1;
place = "{750, -20}";
target = down;
type = TopGhost;
}
);
layerId = UUID1;
paths = (
{
closed = 1;
nodes = (
"398 0 LINE",
"515 0 LINE",
"612 789 LINE",
"495 789 LINE",
"492 766 OFFCURVE",
"448 409 OFFCURVE",
"447 399 CURVE",
"436 408 OFFCURVE",
"409 449 OFFCURVE",
"323 449 CURVE SMOOTH",
"184 449 OFFCURVE",
"68 344 OFFCURVE",
"68 189 CURVE SMOOTH",
"68 189 LINE SMOOTH",
"68 78 OFFCURVE",
"133 -12 OFFCURVE",
"264 -12 CURVE SMOOTH",
"340 -12 OFFCURVE",
"378 18 OFFCURVE",
"405 31 CURVE",
"405 31 OFFCURVE",
"401 24 OFFCURVE",
"401 21 CURVE SMOOTH"
);
},
{
closed = 1;
nodes = (
"186 206 LINE SMOOTH",
"186 280 OFFCURVE",
"243 335 OFFCURVE",
"320 335 CURVE SMOOTH",
"386 335 OFFCURVE",
"426 292 OFFCURVE",
"426 233 CURVE SMOOTH",
"426 161 OFFCURVE",
"370 102 OFFCURVE",
"292 102 CURVE SMOOTH",
"227 102 OFFCURVE",
"186 147 OFFCURVE",
"186 206 CURVE SMOOTH"
);
}
);
width = 595;
}
);
unicode = 0064;
},
{
glyphname = eth;
lastChange = "2016-08-26 20:41:54 +0000";
layers = (
{
components = (
{
name = o;
transform = "{1, 0, 0, 1, 13, 0}";
}
);
hints = (
{
horizontal = 1;
place = "{-6, 21}";
target = up;
type = BottomGhost;
},
{
horizontal = 1;
place = "{726, -20}";
target = down;
type = TopGhost;
}
);
layerId = UUID0;
paths = (
{
closed = 1;
nodes = (
"213 547 LINE",
"216 544 OFFCURVE",
"218 542 OFFCURVE",
"220 539 CURVE",
"248 566 OFFCURVE",
"277 593 OFFCURVE",
"305 620 CURVE",
"400 492 OFFCURVE",
"437 370 OFFCURVE",
"445 295 CURVE",
"453 210 OFFCURVE",
"467 115 OFFCURVE",
"467 225 CURVE SMOOTH",
"467 358 OFFCURVE",
"399 513 OFFCURVE",
"314 629 CURVE",
"341 655 OFFCURVE",
"368 681 OFFCURVE",
"395 707 CURVE",
"392 709 OFFCURVE",
"390 712 OFFCURVE",
"388 714 CURVE",
"361 688 OFFCURVE",
"334 663 OFFCURVE",
"308 637 CURVE",
"281 671 OFFCURVE",
"253 701 OFFCURVE",
"223 726 CURVE",
"221 723 OFFCURVE",
"218 720 OFFCURVE",
"216 717 CURVE",
"247 690 OFFCURVE",
"274 660 OFFCURVE",
"299 629 CURVE",
"271 602 OFFCURVE",
"241 574 OFFCURVE",
"213 547 CURVE"
);
}
);
width = 493;
},
{
components = (
{
name = o;
}
);
hints = (
{
horizontal = 1;
place = "{-6, 21}";
target = up;
type = BottomGhost;
},
{
horizontal = 1;
place = "{738, -20}";
target = down;
type = TopGhost;
}
);
layerId = UUID1;
paths = (
{
closed = 1;
nodes = (
"213 610 LINE",
"232 589 OFFCURVE",
"253 570 OFFCURVE",
"272 549 CURVE",
"292 568 OFFCURVE",
"313 586 OFFCURVE",
"332 606 CURVE",
"361 553 OFFCURVE",
"385 497 OFFCURVE",
"397 436 CURVE",
"431 286 OFFCURVE",
"539 161 OFFCURVE",
"539 270 CURVE SMOOTH",
"539 407 OFFCURVE",
"481 573 OFFCURVE",
"412 684 CURVE",
"435 707 OFFCURVE",
"458 728 OFFCURVE",
"481 751 CURVE",
"462 771 OFFCURVE",
"441 791 OFFCURVE",
"422 811 CURVE",
"402 791 OFFCURVE",
"383 773 OFFCURVE",
"363 754 CURVE",
"334 789 OFFCURVE",
"304 821 OFFCURVE",
"271 849 CURVE",
"246 828 OFFCURVE",
"218 806 OFFCURVE",
"192 785 CURVE",
"226 754 OFFCURVE",
"256 718 OFFCURVE",
"285 679 CURVE",
"261 656 OFFCURVE",
"237 633 OFFCURVE",
"213 610 CURVE"
);
}
);
width = 568;
}
);
unicode = 00F0;
},
{
glyphname = dcroat;
lastChange = "2016-08-26 20:41:54 +0000";
layers = (
{
components = (
{
name = d;
}
);
layerId = UUID0;
paths = (
{
closed = 1;
nodes = (
"287 616 LINE",
"568 616 LINE",
"570 630 LINE",
"289 630 LINE"
);
}
);
width = 505;
},
{
components = (
{
name = d;
}
);
layerId = UUID1;
paths = (
{
closed = 1;
nodes = (
"335 601 LINE",
"643 601 LINE",
"655 700 LINE",
"347 700 LINE"
);
}
);
width = 595;
}
);
unicode = 0111;
},
{
glyphname = e;
lastChange = "2016-08-26 20:41:54 +0000";
layers = (
{
hints = (
{
horizontal = 1;
place = "{384, -20}";
target = down;
type = TopGhost;
},
{
horizontal = 1;
place = "{-9, 21}";
target = up;
type = BottomGhost;
}
);
layerId = UUID0;
paths = (
{
closed = 1;
nodes = (
"360 56 LINE",
"325 26 OFFCURVE",
"279 8 OFFCURVE",
"231 8 CURVE SMOOTH",
"154 8 OFFCURVE",
"95 55 OFFCURVE",
"77 122 CURVE",
"184 164 OFFCURVE",
"326 218 OFFCURVE",
"431 259 CURVE",
"411 330 OFFCURVE",
"360 384 OFFCURVE",
"278 384 CURVE SMOOTH",
"162 384 OFFCURVE",
"58 285 OFFCURVE",
"58 168 CURVE SMOOTH",
"58 70 OFFCURVE",
"130 -6 OFFCURVE",
"230 -6 CURVE SMOOTH",
"282 -6 OFFCURVE",
"331 14 OFFCURVE",
"370 46 CURVE"
);
},
{
closed = 1;
nodes = (
"413 266 LINE",
"309 225 OFFCURVE",
"177 176 OFFCURVE",
"74 135 CURVE",
"72 144 OFFCURVE",
"72 157 OFFCURVE",
"72 166 CURVE SMOOTH",
"72 278 OFFCURVE",
"168 369 OFFCURVE",
"276 369 CURVE SMOOTH",
"347 369 OFFCURVE",
"392 326 OFFCURVE",
"413 266 CURVE"
);
}
);
width = 448;
},
{
hints = (
{
horizontal = 1;
place = "{384, -20}";
target = down;
type = TopGhost;
},
{
horizontal = 1;
place = "{-9, 21}";
target = up;
type = BottomGhost;
}
);
layerId = UUID1;
paths = (
{
closed = 1;
nodes = (
"381 134 LINE",
"359 115 OFFCURVE",
"319 102 OFFCURVE",
"288 102 CURVE SMOOTH",
"245 102 OFFCURVE",
"210 125 OFFCURVE",
"194 160 CURVE",
"295 196 OFFCURVE",
"442 256 OFFCURVE",
"521 282 CURVE",
"503 383 OFFCURVE",
"428 448 OFFCURVE",
"329 448 CURVE SMOOTH",
"197 448 OFFCURVE",
"69 333 OFFCURVE",
"69 196 CURVE SMOOTH",
"69 82 OFFCURVE",
"157 -12 OFFCURVE",
"277 -12 CURVE SMOOTH",
"340 -12 OFFCURVE",
"410 12 OFFCURVE",
"457 50 CURVE"
);
},
{
closed = 1;
nodes = (
"380 307 LINE",
"335 292 OFFCURVE",
"247 255 OFFCURVE",
"186 232 CURVE",
"188 226 OFFCURVE",
"187 222 OFFCURVE",
"187 224 CURVE SMOOTH",
"194 278 OFFCURVE",
"251 335 OFFCURVE",
"317 335 CURVE SMOOTH",
"338 335 OFFCURVE",
"370 329 OFFCURVE",
"380 307 CURVE"
);
}
);
width = 509;
}
);
unicode = 0065;
},
{
glyphname = f;
lastChange = "2016-08-26 20:41:54 +0000";
layers = (
{
hints = (
{
horizontal = 1;
place = "{0, 21}";
target = up;
type = BottomGhost;
},
{
horizontal = 1;
place = "{750, -20}";
target = down;
type = TopGhost;
}
);
layerId = UUID0;
paths = (
{
closed = 1;
nodes = (
"141 372 LINE",
"76 372 LINE",
"74 358 LINE",
"139 358 LINE",
"95 0 LINE",
"109 0 LINE",
"153 358 LINE",
"283 358 LINE",
"285 372 LINE",
"155 372 LINE",
"173 522 LINE SMOOTH",
"189 653 OFFCURVE",
"279 736 OFFCURVE",
"370 736 CURVE",
"372 750 LINE",
"271 746 OFFCURVE",
"177 666 OFFCURVE",
"159 518 CURVE SMOOTH"
);
}
);
width = 280;
},
{
hints = (
{
horizontal = 1;
place = "{0, 21}";
target = up;
type = BottomGhost;
},
{
horizontal = 1;
place = "{751, -20}";
target = down;
type = TopGhost;
}
);
layerId = UUID1;
paths = (
{
closed = 1;
nodes = (
"151 439 LINE",
"77 439 LINE",
"63 325 LINE",
"137 325 LINE",
"97 0 LINE",
"214 0 LINE",
"254 325 LINE",
"386 325 LINE",
"400 439 LINE",
"268 439 LINE",
"277 510 LINE SMOOTH",
"290 614 OFFCURVE",
"328 670 OFFCURVE",
"437 678 CURVE",
"451 789 LINE",
"280 784 OFFCURVE",
"182 701 OFFCURVE",
"160 515 CURVE SMOOTH"
);
}
);
width = 366;
}
);
unicode = 0066;
},
{
glyphname = g;
lastChange = "2016-08-26 20:41:54 +0000";
layers = (
{
hints = (
{
horizontal = 1;
place = "{382, -20}";
target = down;
type = TopGhost;
},
{
horizontal = 1;
place = "{-251, 21}";
target = up;
type = BottomGhost;
}
);
layerId = UUID0;
paths = (
{
closed = 1;
nodes = (
"471 375 LINE",
"461 375 LINE",
"454 337 OFFCURVE",
"448 298 OFFCURVE",
"443 260 CURVE",
"423 332 OFFCURVE",
"359 383 OFFCURVE",
"277 383 CURVE SMOOTH",
"161 383 OFFCURVE",
"58 285 OFFCURVE",
"58 168 CURVE SMOOTH",
"58 168 LINE SMOOTH",
"58 70 OFFCURVE",
"130 -6 OFFCURVE",
"229 -6 CURVE SMOOTH",
"312 -6 OFFCURVE",
"390 45 OFFCURVE",
"426 117 CURVE",
"426 111 OFFCURVE",
"419 58 OFFCURVE",
"418 54 CURVE SMOOTH",
"412 16 OFFCURVE",
"413 19 OFFCURVE",
"411 6 CURVE SMOOTH",
"396 -93 OFFCURVE",
"352 -166 OFFCURVE",
"210 -166 CURVE SMOOTH",
"169 -166 OFFCURVE",
"120 -158 OFFCURVE",
"61 -93 CURVE",
"50 -103 LINE",
"110 -170 OFFCURVE",
"162 -180 OFFCURVE",
"209 -180 CURVE SMOOTH",
"363 -180 OFFCURVE",
"413 -94 OFFCURVE",
"424 -8 CURVE SMOOTH"
);
},
{
closed = 1;
nodes = (
"72 170 LINE SMOOTH",
"72 278 OFFCURVE",
"167 369 OFFCURVE",
"275 369 CURVE SMOOTH",
"367 369 OFFCURVE",
"435 297 OFFCURVE",
"435 206 CURVE SMOOTH",
"435 98 OFFCURVE",
"339 8 OFFCURVE",
"231 8 CURVE SMOOTH",
"139 8 OFFCURVE",
"72 79 OFFCURVE",
"72 170 CURVE SMOOTH"
);
}
);
width = 505;
},
{
hints = (
{
horizontal = 1;
place = "{382, -20}";
target = down;
type = TopGhost;
},
{
horizontal = 1;
place = "{-251, 21}";
target = up;
type = BottomGhost;
}
);
layerId = UUID1;
paths = (
{
closed = 1;
nodes = (
"569 437 LINE",
"456 437 LINE",
"455 425 OFFCURVE",
"449 412 OFFCURVE",
"447 402 CURVE",
"449 391 OFFCURVE",
"415 449 OFFCURVE",
"321 449 CURVE SMOOTH",
"189 449 OFFCURVE",
"68 337 OFFCURVE",
"68 190 CURVE SMOOTH",
"68 190 LINE SMOOTH",
"68 76 OFFCURVE",
"145 -12 OFFCURVE",
"266 -12 CURVE SMOOTH",
"345 -12 OFFCURVE",
"384 25 OFFCURVE",
"408 41 CURVE",
"407 35 OFFCURVE",
"405 34 OFFCURVE",
"401 22 CURVE SMOOTH",
"400 20 OFFCURVE",
"399 8 OFFCURVE",
"398 2 CURVE SMOOTH",
"388 -64 OFFCURVE",
"327 -98 OFFCURVE",
"261 -98 CURVE SMOOTH",
"194 -98 OFFCURVE",
"161 -66 OFFCURVE",
"134 -38 CURVE",
"50 -117 LINE",
"89 -153 OFFCURVE",
"131 -210 OFFCURVE",
"249 -210 CURVE SMOOTH",
"380 -210 OFFCURVE",
"499 -130 OFFCURVE",
"519 30 CURVE SMOOTH"
);
},
{
closed = 1;
nodes = (
"186 206 LINE SMOOTH",
"186 280 OFFCURVE",
"243 335 OFFCURVE",
"320 335 CURVE SMOOTH",
"386 335 OFFCURVE",
"426 292 OFFCURVE",
"426 233 CURVE SMOOTH",
"426 161 OFFCURVE",
"370 102 OFFCURVE",
"292 102 CURVE SMOOTH",
"227 102 OFFCURVE",
"186 147 OFFCURVE",
"186 206 CURVE SMOOTH"
);
}
);
width = 598;
}
);
unicode = 0067;
},
{
glyphname = h;
lastChange = "2016-08-26 20:41:54 +0000";
layers = (
{
hints = (
{
horizontal = 1;
place = "{0, 21}";
target = up;
type = BottomGhost;
},
{
horizontal = 1;
place = "{750, -20}";
target = down;
type = TopGhost;
}
);
layerId = UUID0;
paths = (
{
closed = 1;
nodes = (
"186 750 LINE",
"172 750 LINE",
"80 0 LINE",
"94 0 LINE",
"121 220 LINE SMOOTH",
"132 306 OFFCURVE",
"218 368 OFFCURVE",
"308 368 CURVE",
"366 365 OFFCURVE",
"396 325 OFFCURVE",
"392 277 CURVE",
"358 0 LINE",
"372 0 LINE",
"405 270 LINE",
"411 336 OFFCURVE",
"373 382 OFFCURVE",
"303 382 CURVE SMOOTH",
"228 382 OFFCURVE",
"160 339 OFFCURVE",
"129 283 CURVE"
);
}
);
width = 453;
},
{
hints = (
{
horizontal = 1;
place = "{0, 21}";
target = up;
type = BottomGhost;
},
{
horizontal = 1;
place = "{750, -20}";
target = down;
type = TopGhost;
}
);
layerId = UUID1;
paths = (
{
closed = 1;
nodes = (
"293 789 LINE",
"177 789 LINE",
"80 0 LINE",
"196 0 LINE",
"221 201 LINE SMOOTH",
"230 277 OFFCURVE",
"285 334 OFFCURVE",
"360 334 CURVE",
"416 331 OFFCURVE",
"435 299 OFFCURVE",
"432 260 CURVE",
"400 0 LINE",
"516 0 LINE",
"555 318 LINE",
"563 397 OFFCURVE",
"508 450 OFFCURVE",
"417 449 CURVE SMOOTH",
"331 448 OFFCURVE",
"276 402 OFFCURVE",
"237 332 CURVE"
);
}
);
width = 606;
}
);
unicode = 0068;
},
{
glyphname = hbar;
lastChange = "2016-08-26 20:41:54 +0000";
layers = (
{
components = (
{
name = h;
}
);
hints = (
{
horizontal = 1;
place = "{492, 21}";
target = up;
type = BottomGhost;
},
{
horizontal = 1;
place = "{506, -20}";
target = down;
type = TopGhost;
}
);
layerId = UUID0;
paths = (
{
closed = 1;
nodes = (
"95 571 LINE",
"325 571 LINE",
"327 585 LINE",
"97 585 LINE"
);
}
);
width = 453;
},
{
components = (
{
name = h;
}
);
hints = (
{
horizontal = 1;
place = "{478, 21}";
target = up;
type = BottomGhost;
},
{
horizontal = 1;
place = "{531, -20}";
target = down;
type = TopGhost;
}
);
layerId = UUID1;
paths = (
{
closed = 1;
nodes = (
"81 539 LINE",
"406 539 LINE",
"415 616 LINE",
"90 616 LINE"
);
}
);
width = 606;
}
);
unicode = 0127;
},
{
glyphname = i;
lastChange = "2016-08-26 20:41:54 +0000";
layers = (
{
hints = (
{
horizontal = 1;
place = "{0, 21}";
target = up;
type = BottomGhost;
},
{
horizontal = 1;
place = "{520, -20}";
target = down;
type = TopGhost;
}
);
layerId = UUID0;
paths = (
{
closed = 1;
nodes = (
"128 498 LINE SMOOTH",
"128 488 OFFCURVE",
"136 480 OFFCURVE",
"146 480 CURVE SMOOTH",
"158 480 OFFCURVE",
"169 490 OFFCURVE",
"169 502 CURVE SMOOTH",
"169 512 OFFCURVE",
"161 520 OFFCURVE",
"151 520 CURVE SMOOTH",
"139 520 OFFCURVE",
"128 510 OFFCURVE",
"128 498 CURVE SMOOTH"
);
},
{
closed = 1;
nodes = (
"80 0 LINE",
"94 0 LINE",
"140 375 LINE",
"126 375 LINE"
);
}
);
width = 174;
},
{
hints = (
{
horizontal = 1;
place = "{0, 21}";
target = up;
type = BottomGhost;
},
{
horizontal = 1;
place = "{573, -20}";
target = down;
type = TopGhost;
}
);
layerId = UUID1;
paths = (
{
closed = 1;
nodes = (
"145 605 LINE SMOOTH",
"145 567 OFFCURVE",
"175 542 OFFCURVE",
"207 542 CURVE SMOOTH",
"242 542 OFFCURVE",
"284 573 OFFCURVE",
"284 619 CURVE SMOOTH",
"284 656 OFFCURVE",
"254 683 OFFCURVE",
"224 683 CURVE SMOOTH",
"187 683 OFFCURVE",
"145 650 OFFCURVE",
"145 605 CURVE SMOOTH"
);
},
{
closed = 1;
nodes = (
"80 0 LINE",
"196 0 LINE",
"250 437 LINE",
"134 437 LINE"
);
}
);
width = 276;
}
);
unicode = 0069;
},
{
glyphname = idotless;
lastChange = "2016-08-26 20:41:54 +0000";
layers = (
{
hints = (
{
horizontal = 1;
place = "{0, 21}";
target = up;
type = BottomGhost;
},
{
horizontal = 1;
place = "{520, -20}";
target = down;
type = TopGhost;
}
);
layerId = UUID0;
paths = (
{
closed = 1;
nodes = (
"80 0 LINE",
"94 0 LINE",
"140 375 LINE",
"126 375 LINE"
);
}
);
width = 174;
},
{
hints = (
{
horizontal = 1;
place = "{0, 21}";
target = up;
type = BottomGhost;
},
{
horizontal = 1;
place = "{573, -20}";
target = down;
type = TopGhost;
}
);
layerId = UUID1;
paths = (
{
closed = 1;
nodes = (
"80 0 LINE",
"196 0 LINE",
"250 437 LINE",
"134 437 LINE"
);
}
);
width = 276;
}
);
unicode = 0131;
},
{
glyphname = iacute;
lastChange = "2016-08-26 20:41:54 +0000";
layers = (
{
components = (
{
name = acute;
transform = "{1, 0, 0, 1, -20, 0}";
}
);
hints = (
{
horizontal = 1;
place = "{375, -20}";
target = down;
type = TopGhost;
},
{
horizontal = 1;
place = "{0, 21}";
target = up;
type = BottomGhost;
}
);
layerId = UUID0;
paths = (
{
closed = 1;
nodes = (
"80 0 LINE",
"94 0 LINE",
"140 375 LINE",
"126 375 LINE"
);
}
);
width = 256;
},
{
components = (
{
name = acute;
transform = "{1, 0, 0, 1, -20, 0}";
}
);
hints = (
{
horizontal = 1;
place = "{375, -20}";
target = down;
type = TopGhost;
},
{
horizontal = 1;
place = "{0, 21}";
target = up;
type = BottomGhost;
}
);
layerId = UUID1;
paths = (
{
closed = 1;
nodes = (
"80 0 LINE",
"196 0 LINE",
"250 437 LINE",
"134 437 LINE"
);
}
);
width = 194;
}
);
unicode = 00ED;
},
{
glyphname = icircumflex;
lastChange = "2016-08-26 20:41:54 +0000";
layers = (
{
components = (
{
name = asciicircum;
transform = "{1, 0, 0, 1, -144, 0}";
}
);
hints = (
{
horizontal = 1;
place = "{375, -20}";
target = down;
type = TopGhost;
},
{
horizontal = 1;
place = "{0, 21}";
target = up;
type = BottomGhost;
}
);
layerId = UUID0;
paths = (
{
closed = 1;
nodes = (
"80 0 LINE",
"94 0 LINE",
"140 375 LINE",
"126 375 LINE"
);
}
);
width = 174;
},
{
components = (
{
name = asciicircum;
transform = "{1, 0, 0, 1, -97, 0}";
}
);
hints = (
{
horizontal = 1;
place = "{375, -20}";
target = down;
type = TopGhost;
},
{
horizontal = 1;
place = "{0, 21}";
target = up;
type = BottomGhost;
}
);
layerId = UUID1;
paths = (
{
closed = 1;
nodes = (
"80 0 LINE",
"196 0 LINE",
"250 437 LINE",
"134 437 LINE"
);
}
);
width = 271;
}
);
unicode = 00EE;
},
{
glyphname = idieresis;
lastChange = "2016-08-26 20:41:54 +0000";
layers = (
{
components = (
{
name = dieresis;
transform = "{1, 0, 0, 1, -97, 0}";
}
);
hints = (
{
horizontal = 1;
place = "{375, -20}";
target = down;
type = TopGhost;
},
{
horizontal = 1;
place = "{0, 21}";
target = up;
type = BottomGhost;
}
);
layerId = UUID0;
paths = (
{
closed = 1;
nodes = (
"80 0 LINE",
"94 0 LINE",
"140 375 LINE",
"126 375 LINE"
);
}
);
width = 179;
},
{
components = (
{
name = dieresis;
transform = "{1, 0, 0, 1, -59, 0}";
}
);
hints = (
{
horizontal = 1;
place = "{375, -20}";
target = down;
type = TopGhost;
},
{
horizontal = 1;
place = "{0, 21}";
target = up;
type = BottomGhost;
}
);
layerId = UUID1;
paths = (
{
closed = 1;
nodes = (
"80 0 LINE",
"196 0 LINE",
"250 437 LINE",
"134 437 LINE"
);
}
);
width = 271;
}
);
unicode = 00EF;
},
{
glyphname = igrave;
lastChange = "2016-08-26 20:41:54 +0000";
layers = (
{
components = (
{
name = grave;
transform = "{1, 0, 0, 1, 14, 0}";
}
);
hints = (
{
horizontal = 1;
place = "{375, -20}";
target = down;
type = TopGhost;
},
{
horizontal = 1;
place = "{0, 21}";
target = up;
type = BottomGhost;
}
);
layerId = UUID0;
paths = (
{
closed = 1;
nodes = (
"80 0 LINE",
"94 0 LINE",
"140 375 LINE",
"126 375 LINE"
);
}
);
width = 170;
},
{
components = (
{
name = grave;
transform = "{1, 0, 0, 1, 44, 0}";
}
);
hints = (
{
horizontal = 1;
place = "{375, -20}";
target = down;
type = TopGhost;
},
{
horizontal = 1;
place = "{0, 21}";
target = up;
type = BottomGhost;
}
);
layerId = UUID1;
paths = (
{
closed = 1;
nodes = (
"80 0 LINE",
"196 0 LINE",
"250 437 LINE",
"134 437 LINE"
);
}
);
width = 265;
}
);
unicode = 00EC;
},
{
glyphname = j;
lastChange = "2016-08-26 20:41:54 +0000";
layers = (
{
hints = (
{
horizontal = 1;
place = "{-180, 21}";
target = up;
type = BottomGhost;
},
{
horizontal = 1;
place = "{520, -20}";
target = down;
type = TopGhost;
}
);
layerId = UUID0;
paths = (
{
closed = 1;
nodes = (
"15 -180 LINE",
"55 -141 OFFCURVE",
"84 -83 OFFCURVE",
"93 -7 CURVE SMOOTH",
"140 375 LINE",
"135 375 OFFCURVE",
"131 375 OFFCURVE",
"126 375 CURVE",
"79 -11 LINE SMOOTH",
"71 -79 OFFCURVE",
"42 -134 OFFCURVE",
"4 -171 CURVE",
"8 -174 OFFCURVE",
"11 -177 OFFCURVE",
"15 -180 CURVE"
);
},
{
closed = 1;
nodes = (
"128 498 LINE SMOOTH",
"128 488 OFFCURVE",
"136 480 OFFCURVE",
"146 480 CURVE SMOOTH",
"158 480 OFFCURVE",
"169 490 OFFCURVE",
"169 502 CURVE SMOOTH",
"169 512 OFFCURVE",
"161 520 OFFCURVE",
"151 520 CURVE SMOOTH",
"139 520 OFFCURVE",
"128 510 OFFCURVE",
"128 498 CURVE SMOOTH"
);
}
);
width = 174;
},
{
hints = (
{
horizontal = 1;
place = "{-181, 21}";
target = up;
type = BottomGhost;
},
{
horizontal = 1;
place = "{573, -20}";
target = down;
type = TopGhost;
}
);
layerId = UUID1;
paths = (
{
closed = 1;
nodes = (
"71 -211 LINE",
"138 -165 OFFCURVE",
"184 -94 OFFCURVE",
"196 2 CURVE SMOOTH",
"249 437 LINE",
"211 437 OFFCURVE",
"173 437 OFFCURVE",
"134 437 CURVE",
"81 8 LINE SMOOTH",
"74 -53 OFFCURVE",
"46 -95 OFFCURVE",
"2 -124 CURVE",
"24 -154 OFFCURVE",
"47 -181 OFFCURVE",
"71 -211 CURVE"
);
},
{
closed = 1;
nodes = (
"148 605 LINE SMOOTH",
"148 567 OFFCURVE",
"177 542 OFFCURVE",
"210 542 CURVE SMOOTH",
"246 542 OFFCURVE",
"287 573 OFFCURVE",
"287 619 CURVE SMOOTH",
"287 656 OFFCURVE",
"259 683 OFFCURVE",
"227 683 CURVE SMOOTH",
"190 683 OFFCURVE",
"148 650 OFFCURVE",
"148 605 CURVE SMOOTH"
);
}
);
width = 276;
}
);
unicode = 006A;
},
{
glyphname = jcircumflex;
lastChange = "2016-08-26 20:41:54 +0000";
layers = (
{
components = (
{
name = asciicircum;
transform = "{1, 0, 0, 1, -144, 0}";
}
);
hints = (
{
horizontal = 1;
place = "{-180, 21}";
target = up;
type = BottomGhost;
},
{
horizontal = 1;
place = "{520, -20}";
target = down;
type = TopGhost;
}
);
layerId = UUID0;
paths = (
{
closed = 1;
nodes = (
"15 -180 LINE",
"55 -141 OFFCURVE",
"84 -83 OFFCURVE",
"93 -7 CURVE SMOOTH",
"140 375 LINE",
"135 375 OFFCURVE",
"131 375 OFFCURVE",
"126 375 CURVE",
"79 -11 LINE SMOOTH",
"71 -79 OFFCURVE",
"42 -134 OFFCURVE",
"4 -171 CURVE",
"8 -174 OFFCURVE",
"11 -177 OFFCURVE",
"15 -180 CURVE"
);
}
);
width = 174;
},
{
components = (
{
name = asciicircum;
transform = "{1, 0, 0, 1, -101, 0}";
}
);
hints = (
{
horizontal = 1;
place = "{-181, 21}";
target = up;
type = BottomGhost;
},
{
horizontal = 1;
place = "{573, -20}";
target = down;
type = TopGhost;
}
);
layerId = UUID1;
paths = (
{
closed = 1;
nodes = (
"71 -211 LINE",
"138 -165 OFFCURVE",
"184 -94 OFFCURVE",
"196 2 CURVE SMOOTH",
"249 437 LINE",
"211 437 OFFCURVE",
"173 437 OFFCURVE",
"134 437 CURVE",
"81 8 LINE SMOOTH",
"74 -53 OFFCURVE",
"46 -95 OFFCURVE",
"2 -124 CURVE",
"24 -154 OFFCURVE",
"47 -181 OFFCURVE",
"71 -211 CURVE"
);
}
);
width = 276;
}
);
unicode = 0135;
},
{
glyphname = k;
lastChange = "2016-08-26 20:41:54 +0000";
layers = (
{
hints = (
{
horizontal = 1;
place = "{750, -20}";
target = down;
type = TopGhost;
},
{
horizontal = 1;
place = "{0, 21}";
target = up;
type = BottomGhost;
}
);
layerId = UUID0;
paths = (
{
closed = 1;
nodes = (
"186 750 LINE",
"172 750 LINE",
"80 0 LINE",
"94 0 LINE",
"113 155 LINE",
"141 178 OFFCURVE",
"168 202 OFFCURVE",
"196 225 CURVE",
"241 150 OFFCURVE",
"288 75 OFFCURVE",
"334 0 CURVE",
"352 0 LINE",
"305 78 OFFCURVE",
"256 157 OFFCURVE",
"209 235 CURVE",
"266 283 OFFCURVE",
"315 326 OFFCURVE",
"372 374 CURVE",
"369 377 OFFCURVE",
"367 381 OFFCURVE",
"364 384 CURVE",
"364 384 LINE",
"279 313 OFFCURVE",
"200 247 OFFCURVE",
"116 176 CURVE"
);
}
);
width = 388;
},
{
hints = (
{
horizontal = 1;
place = "{750, -20}";
target = down;
type = TopGhost;
},
{
horizontal = 1;
place = "{0, 21}";
target = up;
type = BottomGhost;
}
);
layerId = UUID1;
paths = (
{
closed = 1;
nodes = (
"293 789 LINE",
"177 789 LINE",
"80 0 LINE",
"196 0 LINE",
"211 122 LINE",
"229 137 OFFCURVE",
"250 153 OFFCURVE",
"268 168 CURVE",
"301 112 OFFCURVE",
"337 56 OFFCURVE",
"371 0 CURVE",
"504 0 LINE",
"455 81 OFFCURVE",
"407 163 OFFCURVE",
"357 244 CURVE",
"414 291 OFFCURVE",
"462 333 OFFCURVE",
"519 380 CURVE",
"498 403 OFFCURVE",
"478 425 OFFCURVE",
"458 448 CURVE",
"458 448 LINE",
"379 381 OFFCURVE",
"308 323 OFFCURVE",
"227 256 CURVE"
);
}
);
width = 513;
}
);
unicode = 006B;
},
{
glyphname = l;
lastChange = "2016-08-26 20:41:54 +0000";
layers = (
{
hints = (
{
horizontal = 1;
place = "{750, -20}";
target = down;
type = TopGhost;
},
{
horizontal = 1;
place = "{0, 21}";
target = up;
type = BottomGhost;
}
);
layerId = UUID0;
paths = (
{
closed = 1;
nodes = (
"80 0 LINE",
"94 0 LINE",
"186 750 LINE",
"172 750 LINE"
);
}
);
width = 174;
},
{
hints = (
{
horizontal = 1;
place = "{750, -20}";
target = down;
type = TopGhost;
},
{
horizontal = 1;
place = "{0, 21}";
target = up;
type = BottomGhost;
}
);
layerId = UUID1;
paths = (
{
closed = 1;
nodes = (
"61 0 LINE",
"177 0 LINE",
"274 789 LINE",
"158 789 LINE"
);
}
);
width = 240;
}
);
unicode = 006C;
},
{
glyphname = lslash;
lastChange = "2016-08-26 20:41:54 +0000";
layers = (
{
components = (
{
name = l;
}
);
layerId = UUID0;
paths = (
{
closed = 1;
nodes = (
"59 293 LINE",
"57 279 LINE",
"215 335 LINE",
"217 349 LINE"
);
}
);
width = 174;
},
{
components = (
{
name = l;
}
);
layerId = UUID1;
paths = (
{
closed = 1;
nodes = (
"58 346 LINE",
"43 225 LINE",
"276 292 LINE",
"291 413 LINE"
);
}
);
width = 240;
}
);
unicode = 0142;
},
{
glyphname = m;
lastChange = "2016-08-26 20:41:54 +0000";
layers = (
{
hints = (
{
horizontal = 1;
place = "{0, 21}";
target = up;
type = BottomGhost;
},
{
horizontal = 1;
place = "{382, -20}";
target = down;
type = TopGhost;
}
);
layerId = UUID0;
paths = (
{
closed = 1;
nodes = (
"126 375 LINE",
"80 0 LINE",
"94 0 LINE",
"121 220 LINE SMOOTH",
"132 306 OFFCURVE",
"218 368 OFFCURVE",
"308 368 CURVE",
"366 365 OFFCURVE",
"396 325 OFFCURVE",
"392 277 CURVE",
"358 0 LINE",
"372 0 LINE",
"400 226 LINE",
"414 309 OFFCURVE",
"498 368 OFFCURVE",
"586 368 CURVE",
"644 365 OFFCURVE",
"674 325 OFFCURVE",
"670 277 CURVE",
"636 0 LINE",
"650 0 LINE",
"683 270 LINE",
"689 336 OFFCURVE",
"651 382 OFFCURVE",
"581 382 CURVE SMOOTH",
"508 382 OFFCURVE",
"441 341 OFFCURVE",
"406 282 CURVE",
"406 341 OFFCURVE",
"368 382 OFFCURVE",
"303 382 CURVE SMOOTH",
"228 382 OFFCURVE",
"160 339 OFFCURVE",
"125 277 CURVE",
"125 277 OFFCURVE",
"136 375 OFFCURVE",
"136 375 CURVE"
);
}
);
width = 731;
},
{
hints = (
{
horizontal = 1;
place = "{0, 21}";
target = up;
type = BottomGhost;
},
{
horizontal = 1;
place = "{384, -20}";
target = down;
type = TopGhost;
}
);
layerId = UUID1;
paths = (
{
closed = 1;
nodes = (
"152 437 LINE",
"98 0 LINE",
"214 0 LINE",
"239 201 LINE SMOOTH",
"248 277 OFFCURVE",
"293 334 OFFCURVE",
"368 334 CURVE",
"424 331 OFFCURVE",
"443 299 OFFCURVE",
"440 260 CURVE",
"408 0 LINE",
"524 0 LINE",
"548 199 LINE",
"558 277 OFFCURVE",
"603 334 OFFCURVE",
"678 334 CURVE",
"736 331 OFFCURVE",
"753 299 OFFCURVE",
"750 260 CURVE",
"718 0 LINE",
"835 0 LINE",
"874 318 LINE",
"881 395 OFFCURVE",
"829 449 OFFCURVE",
"736 449 CURVE SMOOTH",
"650 449 OFFCURVE",
"607 402 OFFCURVE",
"564 332 CURVE",
"563 401 OFFCURVE",
"513 449 OFFCURVE",
"426 449 CURVE SMOOTH",
"338 448 OFFCURVE",
"293 400 OFFCURVE",
"251 326 CURVE",
"254 373 OFFCURVE",
"250 378 OFFCURVE",
"255 437 CURVE"
);
}
);
width = 925;
}
);
unicode = 006D;
},
{
glyphname = n;
lastChange = "2016-08-26 20:41:54 +0000";
layers = (
{
hints = (
{
horizontal = 1;
place = "{0, 21}";
target = up;
type = BottomGhost;
},
{
horizontal = 1;
place = "{382, -20}";
target = down;
type = TopGhost;
}
);
layerId = UUID0;
paths = (
{
closed = 1;
nodes = (
"126 375 LINE",
"80 0 LINE",
"94 0 LINE",
"121 220 LINE SMOOTH",
"132 306 OFFCURVE",
"218 368 OFFCURVE",
"308 368 CURVE",
"366 365 OFFCURVE",
"396 325 OFFCURVE",
"392 277 CURVE",
"358 0 LINE",
"372 0 LINE",
"405 270 LINE",
"411 336 OFFCURVE",
"373 382 OFFCURVE",
"303 382 CURVE SMOOTH",
"228 382 OFFCURVE",
"160 339 OFFCURVE",
"125 277 CURVE",
"125 277 OFFCURVE",
"136 375 OFFCURVE",
"136 375 CURVE"
);
}
);
width = 453;
},
{
hints = (
{
horizontal = 1;
place = "{0, 21}";
target = up;
type = BottomGhost;
},
{
horizontal = 1;
place = "{384, -20}";
target = down;
type = TopGhost;
}
);
layerId = UUID1;
paths = (
{
closed = 1;
nodes = (
"134 437 LINE",
"80 0 LINE",
"196 0 LINE",
"221 201 LINE SMOOTH",
"230 277 OFFCURVE",
"285 334 OFFCURVE",
"360 334 CURVE",
"416 331 OFFCURVE",
"435 299 OFFCURVE",
"432 260 CURVE",
"400 0 LINE",
"516 0 LINE",
"555 318 LINE",
"562 395 OFFCURVE",
"510 449 OFFCURVE",
"420 449 CURVE SMOOTH",
"334 449 OFFCURVE",
"274 400 OFFCURVE",
"233 326 CURVE",
"236 373 OFFCURVE",
"232 378 OFFCURVE",
"237 437 CURVE"
);
}
);
width = 616;
}
);
unicode = 006E;
},
{
glyphname = o;
lastChange = "2016-08-26 20:41:54 +0000";
layers = (
{
hints = (
{
horizontal = 1;
place = "{-6, 21}";
target = up;
type = BottomGhost;
},
{
horizontal = 1;
place = "{384, -20}";
target = down;
type = TopGhost;
}
);
layerId = UUID0;
paths = (
{
closed = 1;
nodes = (
"59 188 LINE",
"46 80 OFFCURVE",
"121 -6 OFFCURVE",
"229 -6 CURVE SMOOTH",
"345 -6 OFFCURVE",
"451 90 OFFCURVE",
"451 208 CURVE SMOOTH",
"451 306 OFFCURVE",
"377 384 OFFCURVE",
"277 384 CURVE SMOOTH",
"169 384 OFFCURVE",
"72 296 OFFCURVE",
"59 188 CURVE"
);
},
{
closed = 1;
nodes = (
"73 188 LINE",
"85 288 OFFCURVE",
"175 369 OFFCURVE",
"275 369 CURVE SMOOTH",
"367 369 OFFCURVE",
"435 297 OFFCURVE",
"435 206 CURVE SMOOTH",
"435 98 OFFCURVE",
"339 8 OFFCURVE",
"231 8 CURVE SMOOTH",
"131 8 OFFCURVE",
"61 88 OFFCURVE",
"73 188 CURVE"
);
}
);
width = 462;
},
{
hints = (
{
horizontal = 1;
place = "{-9, 21}";
target = up;
type = BottomGhost;
},
{
horizontal = 1;
place = "{384, -20}";
target = down;
type = TopGhost;
}
);
layerId = UUID1;
paths = (
{
closed = 1;
nodes = (
"70 219 LINE",
"53 79 OFFCURVE",
"148 -12 OFFCURVE",
"276 -12 CURVE SMOOTH",
"423 -12 OFFCURVE",
"538 106 OFFCURVE",
"538 243 CURVE SMOOTH",
"538 357 OFFCURVE",
"456 448 OFFCURVE",
"334 448 CURVE SMOOTH",
"203 448 OFFCURVE",
"85 345 OFFCURVE",
"70 219 CURVE"
);
},
{
closed = 1;
nodes = (
"186 218 LINE",
"194 282 OFFCURVE",
"251 335 OFFCURVE",
"316 335 CURVE SMOOTH",
"375 335 OFFCURVE",
"420 288 OFFCURVE",
"420 230 CURVE SMOOTH",
"420 160 OFFCURVE",
"357 102 OFFCURVE",
"288 102 CURVE SMOOTH",
"223 102 OFFCURVE",
"178 154 OFFCURVE",
"186 218 CURVE"
);
}
);
width = 553;
}
);
unicode = 006F;
},
{
glyphname = oslash;
lastChange = "2016-08-26 20:41:54 +0000";
layers = (
{
components = (
{
name = o;
}
);
hints = (
{
horizontal = 1;
place = "{-8, 21}";
target = up;
type = BottomGhost;
},
{
horizontal = 1;
place = "{383, -20}";
target = down;
type = TopGhost;
}
);
layerId = UUID0;
paths = (
{
closed = 1;
nodes = (
"415 375 LINE",
"336 293 OFFCURVE",
"143 92 OFFCURVE",
"64 10 CURVE",
"71 0 LINE",
"150 83 OFFCURVE",
"344 283 OFFCURVE",
"423 366 CURVE"
);
}
);
width = 468;
},
{
components = (
{
name = o;
}
);
hints = (
{
horizontal = 1;
place = "{-26, 21}";
target = up;
type = BottomGhost;
},
{
horizontal = 1;
place = "{401, -20}";
target = down;
type = TopGhost;
}
);
layerId = UUID1;
paths = (
{
closed = 1;
nodes = (
"500 474 LINE",
"450 423 OFFCURVE",
"88 65 OFFCURVE",
"38 14 CURVE",
"89 -37 LINE",
"140 15 OFFCURVE",
"503 374 OFFCURVE",
"555 426 CURVE"
);
}
);
width = 546;
}
);
unicode = 00F8;
},
{
glyphname = oe;
lastChange = "2016-08-26 20:41:54 +0000";
layers = (
{
hints = (
{
horizontal = 1;
place = "{384, -20}";
target = down;
type = TopGhost;
},
{
horizontal = 1;
place = "{-9, 21}";
target = up;
type = BottomGhost;
},
{
horizontal = 1;
place = "{-6, 21}";
target = up;
type = BottomGhost;
},
{
horizontal = 1;
place = "{384, -20}";
target = down;
type = TopGhost;
}
);
layerId = UUID0;
paths = (
{
closed = 1;
nodes = (
"388 347 LINE",
"359 370 OFFCURVE",
"321 384 OFFCURVE",
"278 384 CURVE SMOOTH",
"162 384 OFFCURVE",
"58 285 OFFCURVE",
"58 168 CURVE SMOOTH",
"58 70 OFFCURVE",
"130 -6 OFFCURVE",
"230 -6 CURVE SMOOTH",
"274 -6 OFFCURVE",
"315 8 OFFCURVE",
"351 32 CURVE",
"338 40 LINE",
"307 20 OFFCURVE",
"269 8 OFFCURVE",
"231 8 CURVE SMOOTH",
"139 8 OFFCURVE",
"72 79 OFFCURVE",
"72 170 CURVE SMOOTH",
"72 278 OFFCURVE",
"168 369 OFFCURVE",
"276 369 CURVE SMOOTH",
"314 369 OFFCURVE",
"348 357 OFFCURVE",
"375 337 CURVE"
);
},
{
closed = 1;
nodes = (
"580 56 LINE",
"545 26 OFFCURVE",
"499 8 OFFCURVE",
"451 8 CURVE SMOOTH",
"374 8 OFFCURVE",
"315 55 OFFCURVE",
"297 122 CURVE",
"404 164 OFFCURVE",
"546 218 OFFCURVE",
"651 259 CURVE",
"631 330 OFFCURVE",
"580 384 OFFCURVE",
"498 384 CURVE SMOOTH",
"382 384 OFFCURVE",
"278 285 OFFCURVE",
"278 168 CURVE SMOOTH",
"278 70 OFFCURVE",
"350 -6 OFFCURVE",
"450 -6 CURVE SMOOTH",
"502 -6 OFFCURVE",
"551 14 OFFCURVE",
"590 46 CURVE"
);
},
{
closed = 1;
nodes = (
"633 266 LINE",
"529 225 OFFCURVE",
"397 176 OFFCURVE",
"294 135 CURVE",
"292 144 OFFCURVE",
"292 157 OFFCURVE",
"292 166 CURVE SMOOTH",
"292 278 OFFCURVE",
"388 369 OFFCURVE",
"496 369 CURVE SMOOTH",
"567 369 OFFCURVE",
"612 326 OFFCURVE",
"633 266 CURVE"
);
}
);
width = 653;
},
{
hints = (
{
horizontal = 1;
place = "{384, -20}";
target = down;
type = TopGhost;
},
{
horizontal = 1;
place = "{-9, 21}";
target = up;
type = BottomGhost;
},
{
horizontal = 1;
place = "{-9, 21}";
target = up;
type = BottomGhost;
},
{
horizontal = 1;
place = "{384, -20}";
target = down;
type = TopGhost;
}
);
layerId = UUID1;
paths = (
{
closed = 1;
nodes = (
"467 404 LINE",
"432 431 OFFCURVE",
"387 448 OFFCURVE",
"334 448 CURVE SMOOTH",
"194 448 OFFCURVE",
"68 333 OFFCURVE",
"68 193 CURVE SMOOTH",
"68 69 OFFCURVE",
"158 -12 OFFCURVE",
"276 -12 CURVE SMOOTH",
"331 -12 OFFCURVE",
"382 5 OFFCURVE",
"423 34 CURVE",
"356 122 LINE",
"336 109 OFFCURVE",
"312 102 OFFCURVE",
"288 102 CURVE SMOOTH",
"228 102 OFFCURVE",
"185 148 OFFCURVE",
"185 206 CURVE SMOOTH",
"185 276 OFFCURVE",
"246 335 OFFCURVE",
"316 335 CURVE SMOOTH",
"340 335 OFFCURVE",
"362 327 OFFCURVE",
"380 314 CURVE"
);
},
{
closed = 1;
nodes = (
"642 134 LINE",
"619 115 OFFCURVE",
"580 102 OFFCURVE",
"549 102 CURVE SMOOTH",
"506 102 OFFCURVE",
"470 125 OFFCURVE",
"454 160 CURVE",
"555 196 OFFCURVE",
"703 256 OFFCURVE",
"781 282 CURVE",
"763 383 OFFCURVE",
"688 448 OFFCURVE",
"589 448 CURVE SMOOTH",
"457 448 OFFCURVE",
"329 333 OFFCURVE",
"329 196 CURVE SMOOTH",
"329 82 OFFCURVE",
"417 -12 OFFCURVE",
"538 -12 CURVE SMOOTH",
"601 -12 OFFCURVE",
"671 12 OFFCURVE",
"717 50 CURVE"
);
},
{
closed = 1;
nodes = (
"640 307 LINE",
"595 292 OFFCURVE",
"507 255 OFFCURVE",
"447 232 CURVE",
"448 226 OFFCURVE",
"448 222 OFFCURVE",
"448 224 CURVE SMOOTH",
"455 278 OFFCURVE",
"511 335 OFFCURVE",
"577 335 CURVE SMOOTH",
"598 335 OFFCURVE",
"631 329 OFFCURVE",
"640 307 CURVE"
);
}
);
width = 779;
}
);
unicode = 0153;
},
{
glyphname = p;
lastChange = "2016-08-26 20:41:54 +0000";
layers = (
{
hints = (
{
horizontal = 1;
place = "{381, -20}";
target = down;
type = TopGhost;
},
{
horizontal = 1;
place = "{-250, 21}";
target = up;
type = BottomGhost;
}
);
layerId = UUID0;
paths = (
{
closed = 1;
nodes = (
"126 375 LINE",
"58 -180 LINE",
"72 -180 LINE",
"101 54 LINE SMOOTH",
"103 75 OFFCURVE",
"105 96 OFFCURVE",
"107 117 CURVE",
"127 45 OFFCURVE",
"191 -6 OFFCURVE",
"274 -6 CURVE SMOOTH",
"391 -6 OFFCURVE",
"494 90 OFFCURVE",
"494 208 CURVE SMOOTH",
"494 208 LINE SMOOTH",
"494 306 OFFCURVE",
"422 383 OFFCURVE",
"322 383 CURVE SMOOTH",
"240 383 OFFCURVE",
"164 332 OFFCURVE",
"126 260 CURVE",
"131 298 OFFCURVE",
"140 375 OFFCURVE",
"140 375 CURVE"
);
},
{
closed = 1;
nodes = (
"480 207 LINE SMOOTH",
"480 98 OFFCURVE",
"384 8 OFFCURVE",
"276 8 CURVE SMOOTH",
"184 8 OFFCURVE",
"116 79 OFFCURVE",
"116 170 CURVE SMOOTH",
"116 278 OFFCURVE",
"212 369 OFFCURVE",
"320 369 CURVE SMOOTH",
"412 369 OFFCURVE",
"480 297 OFFCURVE",
"480 207 CURVE SMOOTH"
);
}
);
width = 505;
},
{
hints = (
{
horizontal = 1;
place = "{382, -20}";
target = down;
type = TopGhost;
},
{
horizontal = 1;
place = "{-250, 21}";
target = up;
type = BottomGhost;
}
);
layerId = UUID1;
paths = (
{
closed = 1;
nodes = (
"133 437 LINE",
"54 -210 LINE",
"171 -210 LINE",
"200 25 LINE SMOOTH",
"200 27 OFFCURVE",
"199 28 OFFCURVE",
"199 29 CURVE",
"213 13 OFFCURVE",
"260 -12 OFFCURVE",
"320 -12 CURVE SMOOTH",
"471 -12 OFFCURVE",
"581 98 OFFCURVE",
"581 250 CURVE SMOOTH",
"581 250 LINE SMOOTH",
"581 376 OFFCURVE",
"505 449 OFFCURVE",
"383 449 CURVE SMOOTH",
"312 449 OFFCURVE",
"266 414 OFFCURVE",
"246 399 CURVE",
"247 409 OFFCURVE",
"243 414 OFFCURVE",
"245 437 CURVE"
);
},
{
closed = 1;
nodes = (
"453 236 LINE SMOOTH",
"453 163 OFFCURVE",
"408 102 OFFCURVE",
"328 102 CURVE SMOOTH",
"263 102 OFFCURVE",
"223 147 OFFCURVE",
"223 206 CURVE SMOOTH",
"223 280 OFFCURVE",
"280 335 OFFCURVE",
"357 335 CURVE SMOOTH",
"421 335 OFFCURVE",
"453 294 OFFCURVE",
"453 236 CURVE SMOOTH"
);
}
);
width = 625;
}
);
unicode = 0070;
},
{
glyphname = thorn;
lastChange = "2016-08-26 20:41:54 +0000";
layers = (
{
hints = (
{
horizontal = 1;
place = "{750, -20}";
target = down;
type = TopGhost;
},
{
horizontal = 1;
place = "{-250, 21}";
target = up;
type = BottomGhost;
},
{
horizontal = 1;
place = "{381, -20}";
target = down;
type = TopGhost;
},
{
horizontal = 1;
place = "{-250, 21}";
target = up;
type = BottomGhost;
}
);
layerId = UUID0;
paths = (
{
closed = 1;
nodes = (
"172 750 LINE",
"58 -180 LINE",
"72 -180 LINE",
"101 54 LINE SMOOTH",
"103 75 OFFCURVE",
"105 96 OFFCURVE",
"107 117 CURVE",
"127 45 OFFCURVE",
"191 -6 OFFCURVE",
"274 -6 CURVE SMOOTH",
"391 -6 OFFCURVE",
"494 90 OFFCURVE",
"494 208 CURVE SMOOTH",
"494 208 LINE SMOOTH",
"494 306 OFFCURVE",
"422 383 OFFCURVE",
"322 383 CURVE SMOOTH",
"240 383 OFFCURVE",
"164 332 OFFCURVE",
"126 260 CURVE",
"131 298 OFFCURVE",
"186 750 OFFCURVE",
"186 750 CURVE"
);
},
{
closed = 1;
nodes = (
"480 207 LINE SMOOTH",
"480 98 OFFCURVE",
"384 8 OFFCURVE",
"276 8 CURVE SMOOTH",
"184 8 OFFCURVE",
"116 79 OFFCURVE",
"116 170 CURVE SMOOTH",
"116 278 OFFCURVE",
"212 369 OFFCURVE",
"320 369 CURVE SMOOTH",
"412 369 OFFCURVE",
"480 297 OFFCURVE",
"480 207 CURVE SMOOTH"
);
}
);
width = 505;
},
{
hints = (
{
horizontal = 1;
place = "{750, -20}";
target = down;
type = TopGhost;
},
{
horizontal = 1;
place = "{-250, 21}";
target = up;
type = BottomGhost;
},
{
horizontal = 1;
place = "{382, -20}";
target = down;
type = TopGhost;
},
{
horizontal = 1;
place = "{-250, 21}";
target = up;
type = BottomGhost;
}
);
layerId = UUID1;
paths = (
{
closed = 1;
nodes = (
"177 789 LINE",
"54 -210 LINE",
"171 -210 LINE",
"200 25 LINE SMOOTH",
"200 27 OFFCURVE",
"199 28 OFFCURVE",
"199 29 CURVE",
"213 13 OFFCURVE",
"260 -12 OFFCURVE",
"320 -12 CURVE SMOOTH",
"471 -12 OFFCURVE",
"581 98 OFFCURVE",
"581 250 CURVE SMOOTH",
"581 250 LINE SMOOTH",
"581 376 OFFCURVE",
"505 449 OFFCURVE",
"383 449 CURVE SMOOTH",
"312 449 OFFCURVE",
"266 414 OFFCURVE",
"246 399 CURVE",
"247 409 OFFCURVE",
"291 766 OFFCURVE",
"294 789 CURVE"
);
},
{
closed = 1;
nodes = (
"453 236 LINE SMOOTH",
"453 163 OFFCURVE",
"408 102 OFFCURVE",
"328 102 CURVE SMOOTH",
"263 102 OFFCURVE",
"223 147 OFFCURVE",
"223 206 CURVE SMOOTH",
"223 280 OFFCURVE",
"280 335 OFFCURVE",
"357 335 CURVE SMOOTH",
"421 335 OFFCURVE",
"453 294 OFFCURVE",
"453 236 CURVE SMOOTH"
);
}
);
width = 625;
}
);
unicode = 00FE;
},
{
glyphname = q;
lastChange = "2016-08-26 20:41:54 +0000";
layers = (
{
hints = (
{
horizontal = 1;
place = "{-250, 21}";
target = up;
type = BottomGhost;
},
{
horizontal = 1;
place = "{381, -20}";
target = down;
type = TopGhost;
}
);
layerId = UUID0;
paths = (
{
closed = 1;
nodes = (
"389 -180 LINE",
"403 -180 LINE",
"471 375 LINE",
"457 375 LINE",
"457 375 OFFCURVE",
"448 298 OFFCURVE",
"443 260 CURVE",
"423 332 OFFCURVE",
"359 383 OFFCURVE",
"277 383 CURVE SMOOTH",
"161 383 OFFCURVE",
"58 285 OFFCURVE",
"58 168 CURVE SMOOTH",
"58 168 LINE SMOOTH",
"58 70 OFFCURVE",
"130 -6 OFFCURVE",
"229 -6 CURVE SMOOTH",
"312 -6 OFFCURVE",
"390 45 OFFCURVE",
"426 117 CURVE",
"424 96 OFFCURVE",
"420 75 OFFCURVE",
"418 54 CURVE SMOOTH"
);
},
{
closed = 1;
nodes = (
"72 170 LINE SMOOTH",
"72 278 OFFCURVE",
"167 369 OFFCURVE",
"275 369 CURVE SMOOTH",
"367 369 OFFCURVE",
"435 297 OFFCURVE",
"435 206 CURVE SMOOTH",
"435 98 OFFCURVE",
"339 8 OFFCURVE",
"231 8 CURVE SMOOTH",
"139 8 OFFCURVE",
"72 79 OFFCURVE",
"72 170 CURVE SMOOTH"
);
}
);
width = 505;
},
{
hints = (
{
horizontal = 1;
place = "{-250, 21}";
target = up;
type = BottomGhost;
},
{
horizontal = 1;
place = "{382, -20}";
target = down;
type = TopGhost;
}
);
layerId = UUID1;
paths = (
{
closed = 1;
nodes = (
"373 -210 LINE",
"489 -210 LINE",
"569 437 LINE",
"457 437 LINE",
"454 414 OFFCURVE",
"448 409 OFFCURVE",
"447 399 CURVE",
"436 408 OFFCURVE",
"409 449 OFFCURVE",
"323 449 CURVE SMOOTH",
"184 449 OFFCURVE",
"68 344 OFFCURVE",
"68 189 CURVE SMOOTH",
"68 189 LINE SMOOTH",
"68 78 OFFCURVE",
"133 -12 OFFCURVE",
"264 -12 CURVE SMOOTH",
"340 -12 OFFCURVE",
"378 18 OFFCURVE",
"405 31 CURVE",
"405 31 OFFCURVE",
"402 24 OFFCURVE",
"401 21 CURVE SMOOTH"
);
},
{
closed = 1;
nodes = (
"186 206 LINE SMOOTH",
"186 280 OFFCURVE",
"243 335 OFFCURVE",
"320 335 CURVE SMOOTH",
"386 335 OFFCURVE",
"426 292 OFFCURVE",
"426 233 CURVE SMOOTH",
"426 161 OFFCURVE",
"370 102 OFFCURVE",
"292 102 CURVE SMOOTH",
"227 102 OFFCURVE",
"186 147 OFFCURVE",
"186 206 CURVE SMOOTH"
);
}
);
width = 600;
}
);
unicode = 0071;
},
{
glyphname = r;
lastChange = "2016-08-26 20:41:54 +0000";
layers = (
{
hints = (
{
horizontal = 1;
place = "{382, -20}";
target = down;
type = TopGhost;
},
{
horizontal = 1;
place = "{0, 21}";
target = up;
type = BottomGhost;
}
);
layerId = UUID0;
paths = (
{
closed = 1;
nodes = (
"126 375 LINE",
"80 0 LINE",
"94 0 LINE",
"121 220 LINE SMOOTH",
"131 304 OFFCURVE",
"215 365 OFFCURVE",
"302 368 CURVE",
"304 382 LINE",
"229 380 OFFCURVE",
"161 341 OFFCURVE",
"125 277 CURVE",
"125 277 OFFCURVE",
"136 375 OFFCURVE",
"136 375 CURVE"
);
}
);
width = 290;
},
{
hints = (
{
horizontal = 1;
place = "{383, -20}";
target = down;
type = TopGhost;
},
{
horizontal = 1;
place = "{0, 21}";
target = up;
type = BottomGhost;
}
);
layerId = UUID1;
paths = (
{
closed = 1;
nodes = (
"134 437 LINE",
"80 0 LINE",
"196 0 LINE",
"219 191 LINE SMOOTH",
"228 267 OFFCURVE",
"300 299 OFFCURVE",
"370 298 CURVE",
"415 449 LINE",
"380 449 OFFCURVE",
"280 403 OFFCURVE",
"233 326 CURVE",
"236 373 OFFCURVE",
"232 378 OFFCURVE",
"237 437 CURVE"
);
}
);
width = 376;
}
);
unicode = 0072;
},
{
glyphname = s;
lastChange = "2016-08-26 20:41:54 +0000";
layers = (
{
hints = (
{
place = "{99, 215}";
},
{
horizontal = 1;
place = "{379, -20}";
target = down;
type = TopGhost;
},
{
horizontal = 1;
place = "{-8, 21}";
target = up;
type = BottomGhost;
}
);
layerId = UUID0;
paths = (
{
closed = 1;
nodes = (
"285 336 LINE",
"261 368 OFFCURVE",
"220 379 OFFCURVE",
"191 379 CURVE SMOOTH",
"138 379 OFFCURVE",
"79 345 OFFCURVE",
"79 276 CURVE SMOOTH",
"79 169 OFFCURVE",
"258 208 OFFCURVE",
"258 105 CURVE SMOOTH",
"258 29 OFFCURVE",
"181 6 OFFCURVE",
"146 6 CURVE SMOOTH",
"115 6 OFFCURVE",
"61 23 OFFCURVE",
"47 48 CURVE",
"43 45 OFFCURVE",
"39 42 OFFCURVE",
"35 39 CURVE",
"59 4 OFFCURVE",
"107 -8 OFFCURVE",
"143 -8 CURVE SMOOTH",
"225 -8 OFFCURVE",
"272 51 OFFCURVE",
"272 110 CURVE SMOOTH",
"272 218 OFFCURVE",
"93 182 OFFCURVE",
"93 279 CURVE SMOOTH",
"93 341 OFFCURVE",
"152 365 OFFCURVE",
"189 365 CURVE SMOOTH",
"216 365 OFFCURVE",
"256 353 OFFCURVE",
"274 326 CURVE",
"278 329 OFFCURVE",
"282 333 OFFCURVE",
"285 336 CURVE"
);
}
);
width = 289;
},
{
hints = (
{
place = "{62, 243}";
},
{
horizontal = 1;
place = "{384, -20}";
target = down;
type = TopGhost;
},
{
horizontal = 1;
place = "{-8, 21}";
target = up;
type = BottomGhost;
}
);
layerId = UUID1;
paths = (
{
closed = 1;
nodes = (
"387 400 LINE",
"360 431 OFFCURVE",
"311 449 OFFCURVE",
"267 449 CURVE SMOOTH",
"200 449 OFFCURVE",
"102 412 OFFCURVE",
"102 297 CURVE SMOOTH",
"102 167 OFFCURVE",
"254 176 OFFCURVE",
"254 131 CURVE SMOOTH",
"254 122 OFFCURVE",
"245 104 OFFCURVE",
"211 104 CURVE SMOOTH",
"165 104 OFFCURVE",
"134 139 OFFCURVE",
"138 131 CURVE",
"139 133 OFFCURVE",
"85 73 OFFCURVE",
"58 46 CURVE",
"84 13 OFFCURVE",
"139 -9 OFFCURVE",
"198 -9 CURVE SMOOTH",
"300 -9 OFFCURVE",
"372 54 OFFCURVE",
"372 143 CURVE SMOOTH",
"372 261 OFFCURVE",
"221 259 OFFCURVE",
"221 312 CURVE SMOOTH",
"221 333 OFFCURVE",
"242 336 OFFCURVE",
"259 336 CURVE SMOOTH",
"297 336 OFFCURVE",
"324 312 OFFCURVE",
"318 319 CURVE",
"318 319 OFFCURVE",
"363 371 OFFCURVE",
"387 400 CURVE"
);
}
);
width = 414;
}
);
unicode = 0073;
},
{
glyphname = germandbls;
lastChange = "2016-08-26 20:41:54 +0000";
layers = (
{
hints = (
{
place = "{407, 78}";
},
{
horizontal = 1;
place = "{-8, 21}";
target = up;
type = BottomGhost;
},
{
horizontal = 1;
place = "{658, -20}";
target = down;
type = TopGhost;
}
);
layerId = UUID0;
paths = (
{
closed = 1;
nodes = (
"143 384 LINE",
"78 384 LINE",
"76 370 LINE",
"141 370 LINE",
"96 0 LINE",
"109 0 LINE",
"162 430 LINE SMOOTH",
"178 559 OFFCURVE",
"244 644 OFFCURVE",
"350 644 CURVE SMOOTH",
"433 644 OFFCURVE",
"471 588 OFFCURVE",
"471 529 CURVE SMOOTH",
"471 448 OFFCURVE",
"404 396 OFFCURVE",
"329 396 CURVE",
"328 388 LINE SMOOTH",
"328 385 OFFCURVE",
"328 383 OFFCURVE",
"327 381 CURVE",
"327 381 LINE",
"425 381 OFFCURVE",
"496 305 OFFCURVE",
"496 213 CURVE SMOOTH",
"496 103 OFFCURVE",
"392 5 OFFCURVE",
"278 5 CURVE SMOOTH",
"242 5 OFFCURVE",
"209 15 OFFCURVE",
"184 33 CURVE",
"181 29 OFFCURVE",
"179 26 OFFCURVE",
"176 22 CURVE",
"176 22 LINE",
"205 3 OFFCURVE",
"240 -8 OFFCURVE",
"279 -8 CURVE SMOOTH",
"399 -8 OFFCURVE",
"510 94 OFFCURVE",
"510 215 CURVE SMOOTH",
"510 300 OFFCURVE",
"455 370 OFFCURVE",
"376 389 CURVE",
"442 413 OFFCURVE",
"486 461 OFFCURVE",
"486 538 CURVE SMOOTH",
"486 598 OFFCURVE",
"453 656 OFFCURVE",
"341 658 CURVE",
"240 654 OFFCURVE",
"166 574 OFFCURVE",
"148 426 CURVE SMOOTH"
);
}
);
width = 530;
},
{
hints = (
{
place = "{360, 142}";
},
{
horizontal = 1;
place = "{-9, 21}";
target = up;
type = BottomGhost;
},
{
horizontal = 1;
place = "{657, -20}";
target = down;
type = TopGhost;
}
);
layerId = UUID1;
paths = (
{
closed = 1;
nodes = (
"115 441 LINE",
"50 441 LINE",
"35 320 LINE",
"100 320 LINE",
"61 0 LINE",
"185 0 LINE",
"236 419 LINE SMOOTH",
"246 500 OFFCURVE",
"270 548 OFFCURVE",
"337 548 CURVE SMOOTH",
"378 548 OFFCURVE",
"401 530 OFFCURVE",
"401 502 CURVE SMOOTH",
"401 470 OFFCURVE",
"377 447 OFFCURVE",
"339 447 CURVE",
"332 386 LINE SMOOTH",
"330 366 OFFCURVE",
"328 346 OFFCURVE",
"326 326 CURVE",
"328 326 LINE",
"381 328 OFFCURVE",
"424 285 OFFCURVE",
"424 230 CURVE SMOOTH",
"424 166 OFFCURVE",
"365 112 OFFCURVE",
"304 112 CURVE SMOOTH",
"295 112 OFFCURVE",
"288 113 OFFCURVE",
"279 114 CURVE",
"257 76 OFFCURVE",
"234 39 OFFCURVE",
"214 2 CURVE",
"214 2 LINE",
"236 -7 OFFCURVE",
"264 -10 OFFCURVE",
"286 -10 CURVE SMOOTH",
"422 -10 OFFCURVE",
"549 107 OFFCURVE",
"549 238 CURVE SMOOTH",
"549 325 OFFCURVE",
"496 390 OFFCURVE",
"466 398 CURVE",
"509 419 OFFCURVE",
"526 478 OFFCURVE",
"526 517 CURVE SMOOTH",
"526 600 OFFCURVE",
"459 672 OFFCURVE",
"351 670 CURVE",
"234 672 OFFCURVE",
"129 576 OFFCURVE",
"114 430 CURVE SMOOTH"
);
}
);
width = 549;
}
);
unicode = 00DF;
},
{
glyphname = t;
lastChange = "2016-08-26 20:41:54 +0000";
layers = (
{
hints = (
{
horizontal = 1;
place = "{0, 21}";
target = up;
type = BottomGhost;
},
{
horizontal = 1;
place = "{619, -20}";
target = down;
type = TopGhost;
}
);
layerId = UUID0;
paths = (
{
closed = 1;
nodes = (
"140 367 LINE",
"51 367 LINE",
"49 353 LINE",
"138 353 LINE",
"95 0 LINE",
"109 0 LINE",
"152 353 LINE",
"279 353 LINE",
"281 367 LINE",
"154 367 LINE",
"175 539 LINE",
"161 539 LINE"
);
}
);
width = 248;
},
{
hints = (
{
horizontal = 1;
place = "{0, 21}";
target = up;
type = BottomGhost;
},
{
horizontal = 1;
place = "{619, -20}";
target = down;
type = TopGhost;
}
);
layerId = UUID1;
paths = (
{
closed = 1;
nodes = (
"180 439 LINE",
"112 439 LINE",
"99 336 LINE",
"167 336 LINE",
"126 0 LINE",
"242 0 LINE",
"283 336 LINE",
"389 336 LINE",
"402 439 LINE",
"296 439 LINE",
"319 629 LINE",
"203 629 LINE"
);
}
);
width = 391;
}
);
unicode = 0074;
},
{
glyphname = u;
lastChange = "2016-08-26 20:41:54 +0000";
layers = (
{
hints = (
{
horizontal = 1;
place = "{375, -20}";
target = down;
type = TopGhost;
},
{
horizontal = 1;
place = "{-7, 21}";
target = up;
type = BottomGhost;
}
);
layerId = UUID0;
paths = (
{
closed = 1;
nodes = (
"362 0 LINE",
"372 0 LINE",
"418 375 LINE",
"404 375 LINE",
"377 155 LINE SMOOTH",
"366 69 OFFCURVE",
"280 7 OFFCURVE",
"190 7 CURVE",
"132 10 OFFCURVE",
"102 50 OFFCURVE",
"106 98 CURVE",
"140 375 LINE",
"126 375 LINE",
"93 105 LINE",
"87 39 OFFCURVE",
"125 -7 OFFCURVE",
"195 -7 CURVE SMOOTH",
"269 -7 OFFCURVE",
"339 35 OFFCURVE",
"373 98 CURVE"
);
}
);
width = 452;
},
{
hints = (
{
horizontal = 1;
place = "{375, -20}";
target = down;
type = TopGhost;
},
{
horizontal = 1;
place = "{-9, 21}";
target = up;
type = BottomGhost;
}
);
layerId = UUID1;
paths = (
{
closed = 1;
nodes = (
"416 -13 LINE",
"514 -13 LINE",
"569 437 LINE",
"454 437 LINE",
"429 236 LINE SMOOTH",
"420 160 OFFCURVE",
"365 104 OFFCURVE",
"291 104 CURVE",
"234 108 OFFCURVE",
"215 138 OFFCURVE",
"218 177 CURVE",
"249 437 LINE",
"133 437 LINE",
"94 119 LINE",
"87 42 OFFCURVE",
"139 -11 OFFCURVE",
"230 -11 CURVE SMOOTH",
"320 -11 OFFCURVE",
"378 41 OFFCURVE",
"417 111 CURVE"
);
}
);
width = 596;
}
);
unicode = 0075;
},
{
glyphname = uring;
lastChange = "2016-08-26 20:41:54 +0000";
layers = (
{
components = (
{
name = u;
}
);
layerId = UUID0;
paths = (
{
closed = 1;
nodes = (
"225 462 LINE SMOOTH",
"225 430 OFFCURVE",
"248 406 OFFCURVE",
"281 406 CURVE SMOOTH",
"320 406 OFFCURVE",
"352 437 OFFCURVE",
"352 476 CURVE SMOOTH",
"352 508 OFFCURVE",
"329 532 OFFCURVE",
"296 532 CURVE SMOOTH",
"257 532 OFFCURVE",
"225 501 OFFCURVE",
"225 462 CURVE SMOOTH"
);
},
{
closed = 1;
nodes = (
"239 465 LINE SMOOTH",
"239 493 OFFCURVE",
"267 518 OFFCURVE",
"295 518 CURVE SMOOTH",
"319 518 OFFCURVE",
"338 497 OFFCURVE",
"338 473 CURVE SMOOTH",
"338 445 OFFCURVE",
"311 420 OFFCURVE",
"283 420 CURVE SMOOTH",
"259 420 OFFCURVE",
"239 441 OFFCURVE",
"239 465 CURVE SMOOTH"
);
}
);
width = 452;
},
{
components = (
{
name = u;
}
);
layerId = UUID1;
paths = (
{
closed = 1;
nodes = (
"274 567 LINE SMOOTH",
"274 520 OFFCURVE",
"311 481 OFFCURVE",
"358 481 CURVE SMOOTH",
"412 481 OFFCURVE",
"464 530 OFFCURVE",
"464 585 CURVE SMOOTH",
"464 631 OFFCURVE",
"428 670 OFFCURVE",
"381 670 CURVE SMOOTH",
"327 670 OFFCURVE",
"274 621 OFFCURVE",
"274 567 CURVE SMOOTH"
);
},
{
closed = 1;
nodes = (
"340 571 LINE SMOOTH",
"340 590 OFFCURVE",
"355 604 OFFCURVE",
"373 604 CURVE SMOOTH",
"389 604 OFFCURVE",
"399 594 OFFCURVE",
"399 578 CURVE SMOOTH",
"399 560 OFFCURVE",
"384 546 OFFCURVE",
"366 546 CURVE SMOOTH",
"350 546 OFFCURVE",
"340 557 OFFCURVE",
"340 571 CURVE SMOOTH"
);
}
);
width = 596;
}
);
unicode = 016F;
},
{
glyphname = v;
lastChange = "2016-08-26 20:41:54 +0000";
layers = (
{
hints = (
{
horizontal = 1;
place = "{-23, 21}";
target = up;
type = BottomGhost;
},
{
horizontal = 1;
place = "{375, -20}";
target = down;
type = TopGhost;
}
);
layerId = UUID0;
paths = (
{
closed = 1;
nodes = (
"76 375 LINE",
"126 242 OFFCURVE",
"155 110 OFFCURVE",
"205 -23 CURVE",
"205 -23 LINE",
"287 110 OFFCURVE",
"350 242 OFFCURVE",
"432 375 CURVE",
"417 375 LINE",
"341 253 OFFCURVE",
"285 130 OFFCURVE",
"209 8 CURVE",
"163 130 OFFCURVE",
"137 254 OFFCURVE",
"91 375 CURVE"
);
}
);
width = 416;
},
{
hints = (
{
horizontal = 1;
place = "{-23, 21}";
target = up;
type = BottomGhost;
},
{
horizontal = 1;
place = "{375, -20}";
target = down;
type = TopGhost;
}
);
layerId = UUID1;
paths = (
{
closed = 1;
nodes = (
"64 437 LINE",
"124 282 OFFCURVE",
"179 129 OFFCURVE",
"244 -26 CURVE",
"244 -26 LINE",
"343 129 OFFCURVE",
"440 282 OFFCURVE",
"538 437 CURVE",
"412 437 LINE",
"274 220 OFFCURVE",
"277 219 OFFCURVE",
"271 190 CURVE",
"272 219 OFFCURVE",
"274 220 OFFCURVE",
"190 437 CURVE"
);
}
);
width = 494;
}
);
unicode = 0076;
},
{
glyphname = w;
lastChange = "2016-08-26 20:41:54 +0000";
layers = (
{
hints = (
{
horizontal = 1;
place = "{375, -20}";
target = down;
type = TopGhost;
},
{
horizontal = 1;
place = "{-23, 21}";
target = up;
type = BottomGhost;
}
);
layerId = UUID0;
paths = (
{
closed = 1;
nodes = (
"308 375 LINE",
"320 339 OFFCURVE",
"332 302 OFFCURVE",
"344 266 CURVE",
"344 266 LINE",
"299 180 OFFCURVE",
"254 94 OFFCURVE",
"209 8 CURVE",
"169 129 OFFCURVE",
"130 253 OFFCURVE",
"91 375 CURVE",
"76 375 LINE",
"119 242 OFFCURVE",
"161 110 OFFCURVE",
"205 -23 CURVE",
"253 68 OFFCURVE",
"302 160 OFFCURVE",
"350 251 CURVE",
"379 160 OFFCURVE",
"408 68 OFFCURVE",
"437 -23 CURVE",
"512 110 OFFCURVE",
"588 242 OFFCURVE",
"664 375 CURVE",
"649 375 LINE",
"580 253 OFFCURVE",
"510 58 OFFCURVE",
"440 57 CURVE SMOOTH",
"403 57 OFFCURVE",
"362 253 OFFCURVE",
"323 375 CURVE"
);
}
);
width = 648;
},
{
hints = (
{
horizontal = 1;
place = "{375, -20}";
target = down;
type = TopGhost;
},
{
horizontal = 1;
place = "{-23, 21}";
target = up;
type = BottomGhost;
}
);
layerId = UUID1;
paths = (
{
closed = 1;
nodes = (
"329 437 LINE",
"334 425 OFFCURVE",
"341 400 OFFCURVE",
"346 387 CURVE",
"346 387 LINE",
"247 215 OFFCURVE",
"240 200 OFFCURVE",
"238 190 CURVE",
"245 250 OFFCURVE",
"245 253 OFFCURVE",
"190 437 CURVE",
"74 437 LINE",
"120 282 OFFCURVE",
"165 129 OFFCURVE",
"211 -26 CURVE",
"270 78 OFFCURVE",
"321 170 OFFCURVE",
"381 274 CURVE",
"421 170 OFFCURVE",
"435 78 OFFCURVE",
"474 -26 CURVE",
"552 109 OFFCURVE",
"650 282 OFFCURVE",
"738 437 CURVE",
"622 437 LINE",
"522 255 OFFCURVE",
"501 250 OFFCURVE",
"501 192 CURVE SMOOTH",
"501 204 OFFCURVE",
"489 259 OFFCURVE",
"428 437 CURVE"
);
}
);
width = 698;
}
);
unicode = 0077;
},
{
glyphname = x;
lastChange = "2016-08-26 20:41:54 +0000";
layers = (
{
hints = (
{
horizontal = 1;
place = "{0, 21}";
target = up;
type = BottomGhost;
},
{
horizontal = 1;
place = "{374, -20}";
target = down;
type = TopGhost;
},
{
horizontal = 1;
place = "{375, -20}";
target = down;
type = TopGhost;
}
);
layerId = UUID0;
paths = (
{
closed = 1;
nodes = (
"76 375 LINE",
"114 312 OFFCURVE",
"153 250 OFFCURVE",
"191 187 CURVE",
"191 187 LINE",
"138 125 OFFCURVE",
"87 62 OFFCURVE",
"34 0 CURVE",
"52 0 LINE",
"101 58 OFFCURVE",
"149 117 OFFCURVE",
"198 175 CURVE",
"234 117 OFFCURVE",
"270 58 OFFCURVE",
"306 0 CURVE",
"322 0 LINE",
"284 62 OFFCURVE",
"246 124 OFFCURVE",
"208 186 CURVE",
"261 249 OFFCURVE",
"313 311 OFFCURVE",
"366 374 CURVE",
"349 374 LINE",
"300 315 OFFCURVE",
"251 257 OFFCURVE",
"201 198 CURVE",
"166 257 OFFCURVE",
"130 316 OFFCURVE",
"94 375 CURVE"
);
}
);
width = 352;
},
{
hints = (
{
horizontal = 1;
place = "{0, 21}";
target = up;
type = BottomGhost;
},
{
horizontal = 1;
place = "{375, -20}";
target = down;
type = TopGhost;
},
{
horizontal = 1;
place = "{375, -20}";
target = down;
type = TopGhost;
}
);
layerId = UUID1;
paths = (
{
closed = 1;
nodes = (
"87 437 LINE",
"124 371 OFFCURVE",
"171 303 OFFCURVE",
"208 236 CURVE",
"208 236 LINE",
"148 158 OFFCURVE",
"80 80 OFFCURVE",
"18 0 CURVE",
"147 0 LINE",
"185 50 OFFCURVE",
"218 81 OFFCURVE",
"255 129 CURVE",
"283 82 OFFCURVE",
"312 49 OFFCURVE",
"340 0 CURVE",
"489 0 LINE",
"453 67 OFFCURVE",
"389 164 OFFCURVE",
"350 231 CURVE",
"416 317 OFFCURVE",
"458 357 OFFCURVE",
"519 437 CURVE",
"390 437 LINE",
"354 390 OFFCURVE",
"328 370 OFFCURVE",
"294 324 CURVE",
"269 370 OFFCURVE",
"252 388 OFFCURVE",
"229 437 CURVE"
);
}
);
width = 517;
}
);
unicode = 0078;
},
{
glyphname = y;
lastChange = "2016-08-26 20:41:54 +0000";
layers = (
{
hints = (
{
horizontal = 1;
place = "{-250, 21}";
target = up;
type = BottomGhost;
},
{
horizontal = 1;
place = "{375, -20}";
target = down;
type = TopGhost;
}
);
layerId = UUID0;
paths = (
{
closed = 1;
nodes = (
"123 -180 LINE",
"432 375 LINE",
"417 375 LINE",
"341 253 OFFCURVE",
"285 130 OFFCURVE",
"209 8 CURVE",
"163 130 OFFCURVE",
"137 254 OFFCURVE",
"91 375 CURVE",
"76 375 LINE",
"123 249 OFFCURVE",
"151 124 OFFCURVE",
"197 -1 CURVE",
"151 -86 OFFCURVE",
"141 -116 OFFCURVE",
"104 -180 CURVE"
);
}
);
width = 416;
},
{
hints = (
{
horizontal = 1;
place = "{-250, 21}";
target = up;
type = BottomGhost;
},
{
horizontal = 1;
place = "{375, -20}";
target = down;
type = TopGhost;
}
);
layerId = UUID1;
paths = (
{
closed = 1;
nodes = (
"176 -210 LINE",
"577 437 LINE",
"451 437 LINE",
"314 220 OFFCURVE",
"292 179 OFFCURVE",
"285 150 CURVE",
"287 179 OFFCURVE",
"274 220 OFFCURVE",
"189 437 CURVE",
"63 437 LINE",
"109 318 OFFCURVE",
"167 160 OFFCURVE",
"214 42 CURVE",
"156 -52 OFFCURVE",
"113 -127 OFFCURVE",
"61 -210 CURVE"
);
}
);
width = 540;
}
);
unicode = 0079;
},
{
glyphname = z;
lastChange = "2016-08-26 20:41:54 +0000";
layers = (
{
hints = (
{
horizontal = 1;
place = "{405, -20}";
target = down;
type = TopGhost;
},
{
horizontal = 1;
place = "{0, 21}";
target = up;
type = BottomGhost;
}
);
layerId = UUID0;
paths = (
{
closed = 1;
nodes = (
"384 361 LINE",
"80 0 LINE",
"359 0 LINE",
"361 14 LINE",
"106 14 LINE",
"410 375 LINE",
"165 375 LINE SMOOTH",
"143 375 OFFCURVE",
"134 386 OFFCURVE",
"135 398 CURVE SMOOTH",
"136 410 LINE",
"123 410 LINE",
"123 406 LINE SMOOTH",
"121 368 OFFCURVE",
"136 361 OFFCURVE",
"177 361 CURVE SMOOTH"
);
}
);
width = 414;
},
{
hints = (
{
horizontal = 1;
place = "{405, -20}";
target = down;
type = TopGhost;
},
{
horizontal = 1;
place = "{0, 21}";
target = up;
type = BottomGhost;
}
);
layerId = UUID1;
paths = (
{
closed = 1;
nodes = (
"294 338 LINE",
"20 0 LINE",
"463 0 LINE",
"477 114 LINE",
"258 114 LINE",
"520 437 LINE",
"243 437 LINE SMOOTH",
"218 437 OFFCURVE",
"208 437 OFFCURVE",
"212 465 CURVE SMOOTH",
"214 479 LINE",
"108 479 LINE",
"101 419 LINE SMOOTH",
"96 375 OFFCURVE",
"134 338 OFFCURVE",
"182 338 CURVE SMOOTH"
);
}
);
width = 522;
}
);
unicode = 007A;
},
{
glyphname = fi;
lastChange = "2016-08-26 20:41:54 +0000";
layers = (
{
hints = (
{
horizontal = 1;
place = "{0, 21}";
target = up;
type = BottomGhost;
},
{
horizontal = 1;
place = "{520, -20}";
target = down;
type = TopGhost;
},
{
horizontal = 1;
place = "{0, 21}";
target = up;
type = BottomGhost;
},
{
horizontal = 1;
place = "{750, -20}";
target = down;
type = TopGhost;
}
);
layerId = UUID0;
paths = (
{
closed = 1;
nodes = (
"140 375 LINE",
"76 375 LINE",
"74 361 LINE",
"139 361 LINE",
"95 0 LINE",
"109 0 LINE",
"153 361 LINE",
"413 361 LINE",
"415 375 LINE",
"155 375 LINE",
"173 522 LINE SMOOTH",
"189 653 OFFCURVE",
"279 736 OFFCURVE",
"370 736 CURVE",
"372 750 LINE",
"270 746 OFFCURVE",
"176 666 OFFCURVE",
"158 518 CURVE SMOOTH"
);
},
{
closed = 1;
nodes = (
"360 0 LINE",
"374 0 LINE",
"420 375 LINE",
"406 375 LINE"
);
}
);
width = 454;
},
{
hints = (
{
horizontal = 1;
place = "{0, 21}";
target = up;
type = BottomGhost;
},
{
horizontal = 1;
place = "{573, -20}";
target = down;
type = TopGhost;
},
{
horizontal = 1;
place = "{0, 21}";
target = up;
type = BottomGhost;
},
{
horizontal = 1;
place = "{751, -20}";
target = down;
type = TopGhost;
}
);
layerId = UUID1;
paths = (
{
closed = 1;
nodes = (
"151 437 LINE",
"77 437 LINE",
"63 323 LINE",
"137 323 LINE",
"97 0 LINE",
"214 0 LINE",
"254 323 LINE",
"486 323 LINE",
"500 437 LINE",
"268 437 LINE",
"277 510 LINE SMOOTH",
"290 614 OFFCURVE",
"329 670 OFFCURVE",
"438 678 CURVE",
"451 789 LINE",
"281 784 OFFCURVE",
"185 701 OFFCURVE",
"161 515 CURVE SMOOTH"
);
},
{
closed = 1;
nodes = (
"446 0 LINE",
"562 0 LINE",
"616 437 LINE",
"500 437 LINE"
);
}
);
width = 642;
}
);
unicode = FB01;
},
{
glyphname = fl;
lastChange = "2016-08-26 20:41:54 +0000";
layers = (
{
hints = (
{
horizontal = 1;
place = "{750, -20}";
target = down;
type = TopGhost;
},
{
horizontal = 1;
place = "{0, 21}";
target = up;
type = BottomGhost;
},
{
horizontal = 1;
place = "{0, 21}";
target = up;
type = BottomGhost;
},
{
horizontal = 1;
place = "{750, -20}";
target = down;
type = TopGhost;
}
);
layerId = UUID0;
paths = (
{
closed = 1;
nodes = (
"141 372 LINE",
"76 372 LINE",
"74 358 LINE",
"139 358 LINE",
"95 0 LINE",
"109 0 LINE",
"153 358 LINE",
"283 358 LINE",
"285 372 LINE",
"155 372 LINE",
"173 522 LINE SMOOTH",
"189 653 OFFCURVE",
"279 736 OFFCURVE",
"370 736 CURVE",
"372 750 LINE",
"271 746 OFFCURVE",
"177 666 OFFCURVE",
"159 518 CURVE SMOOTH"
);
},
{
closed = 1;
nodes = (
"360 0 LINE",
"374 0 LINE",
"466 750 LINE",
"452 750 LINE"
);
},
{
closed = 1;
nodes = (
"370 736 LINE",
"457 736 LINE",
"459 750 LINE",
"372 750 LINE"
);
}
);
width = 454;
},
{
hints = (
{
horizontal = 1;
place = "{750, -20}";
target = down;
type = TopGhost;
},
{
horizontal = 1;
place = "{0, 21}";
target = up;
type = BottomGhost;
},
{
horizontal = 1;
place = "{0, 21}";
target = up;
type = BottomGhost;
},
{
horizontal = 1;
place = "{751, -20}";
target = down;
type = TopGhost;
}
);
layerId = UUID1;
paths = (
{
closed = 1;
nodes = (
"151 439 LINE",
"77 439 LINE",
"63 325 LINE",
"137 325 LINE",
"97 0 LINE",
"214 0 LINE",
"254 325 LINE",
"386 325 LINE",
"400 439 LINE",
"268 439 LINE",
"277 510 LINE SMOOTH",
"290 614 OFFCURVE",
"328 670 OFFCURVE",
"437 678 CURVE",
"451 789 LINE",
"280 784 OFFCURVE",
"182 701 OFFCURVE",
"160 515 CURVE SMOOTH"
);
},
{
closed = 1;
nodes = (
"427 0 LINE",
"543 0 LINE",
"640 789 LINE",
"524 789 LINE"
);
},
{
closed = 1;
nodes = (
"437 678 LINE",
"515 678 LINE",
"529 789 LINE",
"451 789 LINE"
);
}
);
width = 606;
}
);
unicode = FB02;
},
{
glyphname = pi;
lastChange = "2016-08-26 20:41:54 +0000";
layers = (
{
hints = (
{
horizontal = 1;
place = "{0, 21}";
target = up;
type = BottomGhost;
},
{
horizontal = 1;
place = "{573, -20}";
target = down;
type = TopGhost;
},
{
horizontal = 1;
place = "{478, 21}";
target = up;
type = BottomGhost;
},
{
horizontal = 1;
place = "{531, -20}";
target = down;
type = TopGhost;
},
{
horizontal = 1;
place = "{0, 21}";
target = up;
type = BottomGhost;
},
{
horizontal = 1;
place = "{573, -20}";
target = down;
type = TopGhost;
}
);
layerId = UUID0;
paths = (
{
closed = 1;
nodes = (
"38 306 LINE",
"89 306 LINE",
"51 0 LINE",
"65 0 LINE",
"103 306 LINE",
"252 306 LINE",
"214 0 LINE",
"228 0 LINE",
"266 306 LINE",
"304 306 LINE",
"306 320 LINE",
"40 320 LINE"
);
}
);
width = 266;
},
{
hints = (
{
horizontal = 1;
place = "{0, 21}";
target = up;
type = BottomGhost;
},
{
horizontal = 1;
place = "{573, -20}";
target = down;
type = TopGhost;
},
{
horizontal = 1;
place = "{478, 21}";
target = up;
type = BottomGhost;
},
{
horizontal = 1;
place = "{531, -20}";
target = down;
type = TopGhost;
},
{
horizontal = 1;
place = "{0, 21}";
target = up;
type = BottomGhost;
},
{
horizontal = 1;
place = "{573, -20}";
target = down;
type = TopGhost;
}
);
layerId = UUID1;
paths = (
{
closed = 1;
nodes = (
"39 247 LINE",
"97 247 LINE",
"67 0 LINE",
"192 0 LINE",
"222 247 LINE",
"274 247 LINE",
"244 0 LINE",
"368 0 LINE",
"398 247 LINE",
"461 247 LINE",
"476 368 LINE",
"54 368 LINE"
);
}
);
width = 444;
}
);
unicode = 03C0;
},
{
glyphname = zero;
lastChange = "2016-08-26 20:41:54 +0000";
layers = (
{
layerId = UUID0;
paths = (
{
closed = 1;
nodes = (
"76 327 LINE",
"52 141 OFFCURVE",
"154 -6 OFFCURVE",
"300 -7 CURVE SMOOTH",
"447 -8 OFFCURVE",
"589 139 OFFCURVE",
"613 324 CURVE SMOOTH",
"630 452 OFFCURVE",
"587 657 OFFCURVE",
"389 658 CURVE SMOOTH",
"188 659 OFFCURVE",
"92 454 OFFCURVE",
"76 327 CURVE SMOOTH"
);
},
{
closed = 1;
nodes = (
"91 328 LINE",
"116 523 OFFCURVE",
"243 645 OFFCURVE",
"386 644 CURVE SMOOTH",
"529 643 OFFCURVE",
"624 519 OFFCURVE",
"599 323 CURVE SMOOTH",
"574 130 OFFCURVE",
"432 6 OFFCURVE",
"304 7 CURVE SMOOTH",
"175 8 OFFCURVE",
"66 134 OFFCURVE",
"91 328 CURVE SMOOTH"
);
}
);
width = 616;
},
{
layerId = UUID1;
paths = (
{
closed = 1;
nodes = (
"75 277 LINE",
"75 87 OFFCURVE",
"175 -8 OFFCURVE",
"309 -9 CURVE SMOOTH",
"466 -10 OFFCURVE",
"595 108 OFFCURVE",
"625 329 CURVE SMOOTH",
"656 562 OFFCURVE",
"543 670 OFFCURVE",
"394 671 CURVE SMOOTH",
"245 672 OFFCURVE",
"75 567 OFFCURVE",
"75 277 CURVE SMOOTH"
);
},
{
closed = 1;
nodes = (
"205 331 LINE",
"211 375 OFFCURVE",
"245 550 OFFCURVE",
"381 550 CURVE SMOOTH",
"483 550 OFFCURVE",
"502 435 OFFCURVE",
"502 370 CURVE SMOOTH",
"502 237 OFFCURVE",
"418 112 OFFCURVE",
"323 113 CURVE SMOOTH",
"238 114 OFFCURVE",
"189 220 OFFCURVE",
"205 331 CURVE SMOOTH"
);
}
);
width = 628;
}
);
unicode = 0030;
},
{
glyphname = one;
lastChange = "2016-08-26 20:41:54 +0000";
layers = (
{
hints = (
{
horizontal = 1;
place = "{0, 21}";
target = up;
type = BottomGhost;
},
{
horizontal = 1;
place = "{650, -20}";
target = down;
type = TopGhost;
}
);
layerId = UUID0;
paths = (
{
closed = 1;
nodes = (
"112 636 LINE",
"225 636 LINE",
"147 0 LINE",
"161 0 LINE",
"241 650 LINE",
"114 650 LINE"
);
}
);
width = 249;
},
{
hints = (
{
horizontal = 1;
place = "{0, 21}";
target = up;
type = BottomGhost;
},
{
horizontal = 1;
place = "{650, -20}";
target = down;
type = TopGhost;
}
);
layerId = UUID1;
paths = (
{
closed = 1;
nodes = (
"102 542 LINE",
"145 542 LINE",
"78 0 LINE",
"205 0 LINE",
"286 663 LINE",
"116 663 LINE"
);
}
);
width = 293;
}
);
unicode = 0031;
},
{
glyphname = two;
lastChange = "2016-08-26 20:41:54 +0000";
layers = (
{
hints = (
{
horizontal = 1;
place = "{658, -20}";
target = down;
type = TopGhost;
},
{
horizontal = 1;
place = "{0, 21}";
target = up;
type = BottomGhost;
}
);
layerId = UUID0;
paths = (
{
closed = 1;
nodes = (
"449 0 LINE",
"451 14 LINE",
"91 14 LINE",
"91 14 LINE",
"256 166 OFFCURVE",
"462 321 OFFCURVE",
"462 489 CURVE SMOOTH",
"462 587 OFFCURVE",
"403 658 OFFCURVE",
"309 658 CURVE SMOOTH",
"182 658 OFFCURVE",
"106 562 OFFCURVE",
"106 447 CURVE SMOOTH",
"106 405 OFFCURVE",
"118 373 OFFCURVE",
"138 347 CURVE",
"141 350 OFFCURVE",
"144 352 OFFCURVE",
"148 355 CURVE",
"129 378 OFFCURVE",
"120 410 OFFCURVE",
"120 447 CURVE SMOOTH",
"120 516 OFFCURVE",
"158 644 OFFCURVE",
"307 644 CURVE SMOOTH",
"367 644 OFFCURVE",
"447 607 OFFCURVE",
"447 483 CURVE SMOOTH",
"447 337 OFFCURVE",
"254 172 OFFCURVE",
"53 0 CURVE"
);
}
);
width = 495;
},
{
hints = (
{
horizontal = 1;
place = "{658, -20}";
target = down;
type = TopGhost;
},
{
horizontal = 1;
place = "{0, 21}";
target = up;
type = BottomGhost;
}
);
layerId = UUID1;
paths = (
{
closed = 1;
nodes = (
"533 0 LINE",
"548 121 LINE",
"368 121 LINE",
"368 121 LINE",
"484 244 OFFCURVE",
"557 350 OFFCURVE",
"557 472 CURVE SMOOTH",
"557 577 OFFCURVE",
"481 671 OFFCURVE",
"354 671 CURVE SMOOTH",
"193 671 OFFCURVE",
"96 551 OFFCURVE",
"96 441 CURVE SMOOTH",
"96 391 OFFCURVE",
"118 304 OFFCURVE",
"166 279 CURVE",
"194 304 OFFCURVE",
"222 330 OFFCURVE",
"250 356 CURVE",
"232 377 OFFCURVE",
"222 405 OFFCURVE",
"222 439 CURVE SMOOTH",
"222 476 OFFCURVE",
"251 550 OFFCURVE",
"340 550 CURVE SMOOTH",
"377 550 OFFCURVE",
"429 512 OFFCURVE",
"429 450 CURVE SMOOTH",
"429 321 OFFCURVE",
"248 176 OFFCURVE",
"54 0 CURVE"
);
}
);
width = 543;
}
);
unicode = 0032;
},
{
glyphname = three;
lastChange = "2016-08-26 20:41:54 +0000";
layers = (
{
hints = (
{
horizontal = 1;
place = "{-8, 21}";
target = up;
type = BottomGhost;
},
{
horizontal = 1;
place = "{650, -20}";
target = down;
type = TopGhost;
}
);
layerId = UUID0;
paths = (
{
closed = 1;
nodes = (
"183 650 LINE",
"181 636 LINE",
"468 636 LINE",
"386 544 OFFCURVE",
"304 453 OFFCURVE",
"222 361 CURVE",
"222 361 LINE",
"242 375 OFFCURVE",
"265 384 OFFCURVE",
"286 384 CURVE SMOOTH",
"383 384 OFFCURVE",
"457 309 OFFCURVE",
"457 214 CURVE SMOOTH",
"457 103 OFFCURVE",
"352 6 OFFCURVE",
"240 6 CURVE SMOOTH",
"185 6 OFFCURVE",
"139 33 OFFCURVE",
"112 71 CURVE",
"108 67 OFFCURVE",
"103 62 OFFCURVE",
"100 58 CURVE",
"132 18 OFFCURVE",
"181 -8 OFFCURVE",
"241 -8 CURVE SMOOTH",
"361 -8 OFFCURVE",
"471 94 OFFCURVE",
"471 216 CURVE SMOOTH",
"471 325 OFFCURVE",
"385 404 OFFCURVE",
"272 398 CURVE",
"348 482 OFFCURVE",
"425 566 OFFCURVE",
"502 650 CURVE"
);
}
);
width = 515;
},
{
hints = (
{
horizontal = 1;
place = "{-8, 21}";
target = up;
type = BottomGhost;
},
{
horizontal = 1;
place = "{650, -20}";
target = down;
type = TopGhost;
}
);
layerId = UUID1;
paths = (
{
closed = 1;
nodes = (
"176 663 LINE",
"161 540 LINE",
"328 540 LINE",
"287 464 OFFCURVE",
"222 388 OFFCURVE",
"181 312 CURVE",
"181 312 LINE",
"202 322 OFFCURVE",
"224 326 OFFCURVE",
"251 326 CURVE SMOOTH",
"305 326 OFFCURVE",
"345 284 OFFCURVE",
"345 231 CURVE SMOOTH",
"345 168 OFFCURVE",
"287 113 OFFCURVE",
"225 113 CURVE SMOOTH",
"193 113 OFFCURVE",
"167 126 OFFCURVE",
"150 151 CURVE",
"117 123 OFFCURVE",
"81 95 OFFCURVE",
"48 67 CURVE",
"85 22 OFFCURVE",
"143 -8 OFFCURVE",
"209 -8 CURVE SMOOTH",
"343 -8 OFFCURVE",
"471 108 OFFCURVE",
"471 246 CURVE SMOOTH",
"471 318 OFFCURVE",
"440 382 OFFCURVE",
"385 428 CURVE",
"433 506 OFFCURVE",
"489 585 OFFCURVE",
"537 663 CURVE"
);
}
);
width = 525;
}
);
unicode = 0033;
},
{
glyphname = four;
lastChange = "2016-08-26 20:41:54 +0000";
layers = (
{
hints = (
{
horizontal = 1;
place = "{0, 21}";
target = up;
type = BottomGhost;
},
{
horizontal = 1;
place = "{658, -20}";
target = down;
type = TopGhost;
}
);
layerId = UUID0;
paths = (
{
closed = 1;
nodes = (
"411 183 LINE",
"389 0 LINE",
"403 0 LINE",
"425 183 LINE",
"522 183 LINE",
"524 197 LINE",
"427 197 LINE",
"483 658 LINE",
"342 500 OFFCURVE",
"200 341 OFFCURVE",
"59 183 CURVE"
);
},
{
closed = 1;
nodes = (
"413 197 LINE",
"91 197 LINE",
"215 337 OFFCURVE",
"340 477 OFFCURVE",
"464 617 CURVE"
);
}
);
width = 505;
},
{
hints = (
{
horizontal = 1;
place = "{0, 21}";
target = up;
type = BottomGhost;
},
{
horizontal = 1;
place = "{658, -20}";
target = down;
type = TopGhost;
}
);
layerId = UUID1;
paths = (
{
closed = 1;
nodes = (
"305 164 LINE",
"285 0 LINE",
"411 0 LINE",
"431 164 LINE",
"530 164 LINE",
"545 285 LINE",
"446 285 LINE",
"493 671 LINE",
"349 510 OFFCURVE",
"171 325 OFFCURVE",
"27 164 CURVE"
);
},
{
closed = 1;
nodes = (
"320 285 LINE",
"283 285 LINE",
"282 284 OFFCURVE",
"327 334 OFFCURVE",
"326 333 CURVE"
);
}
);
width = 522;
}
);
unicode = 0034;
},
{
glyphname = five;
lastChange = "2016-08-26 20:41:54 +0000";
layers = (
{
hints = (
{
horizontal = 1;
place = "{-8, 21}";
target = up;
type = BottomGhost;
},
{
horizontal = 1;
place = "{650, -20}";
target = down;
type = TopGhost;
}
);
layerId = UUID0;
paths = (
{
closed = 1;
nodes = (
"235 636 LINE",
"508 636 LINE",
"510 650 LINE",
"223 650 LINE",
"185 341 LINE",
"185 341 LINE",
"211 363 OFFCURVE",
"254 381 OFFCURVE",
"300 381 CURVE SMOOTH",
"398 381 OFFCURVE",
"471 307 OFFCURVE",
"471 213 CURVE SMOOTH",
"471 103 OFFCURVE",
"368 6 OFFCURVE",
"254 6 CURVE SMOOTH",
"204 6 OFFCURVE",
"161 25 OFFCURVE",
"133 58 CURVE",
"129 55 OFFCURVE",
"125 51 OFFCURVE",
"121 48 CURVE",
"154 13 OFFCURVE",
"200 -8 OFFCURVE",
"254 -8 CURVE SMOOTH",
"374 -8 OFFCURVE",
"486 94 OFFCURVE",
"486 215 CURVE SMOOTH",
"486 316 OFFCURVE",
"408 395 OFFCURVE",
"304 395 CURVE SMOOTH",
"269 395 OFFCURVE",
"235 386 OFFCURVE",
"203 372 CURVE"
);
}
);
width = 543;
},
{
hints = (
{
horizontal = 1;
place = "{-8, 21}";
target = up;
type = BottomGhost;
},
{
horizontal = 1;
place = "{650, -20}";
target = down;
type = TopGhost;
}
);
layerId = UUID1;
paths = (
{
closed = 1;
nodes = (
"320 542 LINE",
"506 542 LINE",
"520 663 LINE",
"227 663 LINE",
"181 289 LINE",
"181 289 LINE",
"223 328 OFFCURVE",
"266 328 OFFCURVE",
"298 328 CURVE SMOOTH",
"351 328 OFFCURVE",
"392 285 OFFCURVE",
"392 232 CURVE SMOOTH",
"392 168 OFFCURVE",
"333 113 OFFCURVE",
"273 113 CURVE SMOOTH",
"245 113 OFFCURVE",
"222 125 OFFCURVE",
"206 141 CURVE",
"174 112 OFFCURVE",
"139 86 OFFCURVE",
"105 57 CURVE",
"141 16 OFFCURVE",
"194 -8 OFFCURVE",
"255 -8 CURVE SMOOTH",
"391 -8 OFFCURVE",
"518 105 OFFCURVE",
"518 250 CURVE SMOOTH",
"518 359 OFFCURVE",
"444 449 OFFCURVE",
"312 449 CURVE SMOOTH",
"306 449 OFFCURVE",
"310 449 OFFCURVE",
"308 449 CURVE"
);
}
);
width = 553;
}
);
unicode = 0035;
},
{
glyphname = six;
lastChange = "2016-08-26 20:41:54 +0000";
layers = (
{
hints = (
{
horizontal = 1;
place = "{-8, 21}";
target = up;
type = BottomGhost;
},
{
horizontal = 1;
place = "{633, -20}";
target = down;
type = TopGhost;
}
);
layerId = UUID0;
paths = (
{
closed = 1;
nodes = (
"72 173 LINE SMOOTH",
"72 72 OFFCURVE",
"148 -8 OFFCURVE",
"253 -8 CURVE SMOOTH",
"374 -8 OFFCURVE",
"483 93 OFFCURVE",
"483 213 CURVE SMOOTH",
"483 314 OFFCURVE",
"407 395 OFFCURVE",
"302 395 CURVE SMOOTH",
"235 395 OFFCURVE",
"173 363 OFFCURVE",
"130 314 CURVE",
"170 388 OFFCURVE",
"276 502 OFFCURVE",
"468 620 CURVE",
"466 624 OFFCURVE",
"462 629 OFFCURVE",
"460 633 CURVE",
"287 517 OFFCURVE",
"72 373 OFFCURVE",
"72 173 CURVE SMOOTH"
);
},
{
closed = 1;
nodes = (
"85 174 LINE SMOOTH",
"85 287 OFFCURVE",
"187 381 OFFCURVE",
"300 381 CURVE SMOOTH",
"397 381 OFFCURVE",
"469 306 OFFCURVE",
"469 212 CURVE SMOOTH",
"469 99 OFFCURVE",
"367 6 OFFCURVE",
"254 6 CURVE SMOOTH",
"157 6 OFFCURVE",
"85 80 OFFCURVE",
"85 174 CURVE SMOOTH"
);
}
);
width = 520;
},
{
hints = (
{
horizontal = 1;
place = "{-8, 21}";
target = up;
type = BottomGhost;
},
{
horizontal = 1;
place = "{637, -20}";
target = down;
type = TopGhost;
}
);
layerId = UUID1;
paths = (
{
closed = 1;
nodes = (
"73 193 LINE SMOOTH",
"73 46 OFFCURVE",
"190 -8 OFFCURVE",
"277 -8 CURVE SMOOTH",
"410 -8 OFFCURVE",
"538 108 OFFCURVE",
"538 245 CURVE SMOOTH",
"538 361 OFFCURVE",
"448 449 OFFCURVE",
"332 449 CURVE SMOOTH",
"331 449 OFFCURVE",
"330 449 OFFCURVE",
"328 449 CURVE",
"358 471 OFFCURVE",
"484 534 OFFCURVE",
"520 557 CURVE",
"499 588 OFFCURVE",
"477 621 OFFCURVE",
"455 652 CURVE",
"346 579 OFFCURVE",
"73 431 OFFCURVE",
"73 193 CURVE SMOOTH"
);
},
{
closed = 1;
nodes = (
"204 210 LINE SMOOTH",
"204 275 OFFCURVE",
"257 328 OFFCURVE",
"318 328 CURVE SMOOTH",
"370 328 OFFCURVE",
"412 286 OFFCURVE",
"412 232 CURVE SMOOTH",
"412 170 OFFCURVE",
"353 113 OFFCURVE",
"292 113 CURVE SMOOTH",
"240 113 OFFCURVE",
"204 158 OFFCURVE",
"204 210 CURVE SMOOTH"
);
}
);
width = 531;
}
);
unicode = 0036;
},
{
glyphname = seven;
lastChange = "2016-08-26 20:41:54 +0000";
layers = (
{
hints = (
{
horizontal = 1;
place = "{0, 21}";
target = up;
type = BottomGhost;
},
{
horizontal = 1;
place = "{650, -20}";
target = down;
type = TopGhost;
}
);
layerId = UUID0;
paths = (
{
closed = 1;
nodes = (
"94 650 LINE",
"92 636 LINE",
"470 636 LINE",
"348 424 OFFCURVE",
"227 212 OFFCURVE",
"105 0 CURVE",
"123 0 LINE",
"247 217 OFFCURVE",
"371 433 OFFCURVE",
"495 650 CURVE"
);
}
);
width = 469;
},
{
hints = (
{
horizontal = 1;
place = "{0, 21}";
target = up;
type = BottomGhost;
},
{
horizontal = 1;
place = "{650, -20}";
target = down;
type = TopGhost;
}
);
layerId = UUID1;
paths = (
{
closed = 1;
nodes = (
"95 663 LINE",
"80 540 LINE",
"314 540 LINE",
"225 357 OFFCURVE",
"128 158 OFFCURVE",
"53 0 CURVE",
"195 0 LINE",
"303 221 OFFCURVE",
"405 427 OFFCURVE",
"523 663 CURVE"
);
}
);
width = 478;
}
);
unicode = 0037;
},
{
glyphname = eight;
lastChange = "2016-08-26 20:41:54 +0000";
layers = (
{
hints = (
{
place = "{53, 69}";
},
{
place = "{382, 78}";
},
{
horizontal = 1;
place = "{-8, 21}";
target = up;
type = BottomGhost;
},
{
horizontal = 1;
place = "{658, -20}";
target = down;
type = TopGhost;
}
);
layerId = UUID0;
paths = (
{
closed = 1;
nodes = (
"75 175 LINE SMOOTH",
"75 73 OFFCURVE",
"151 -8 OFFCURVE",
"254 -8 CURVE SMOOTH",
"374 -8 OFFCURVE",
"485 94 OFFCURVE",
"485 215 CURVE SMOOTH",
"485 300 OFFCURVE",
"431 370 OFFCURVE",
"352 389 CURVE",
"413 410 OFFCURVE",
"460 463 OFFCURVE",
"460 528 CURVE SMOOTH",
"460 600 OFFCURVE",
"407 658 OFFCURVE",
"333 658 CURVE SMOOTH",
"248 658 OFFCURVE",
"171 588 OFFCURVE",
"171 504 CURVE SMOOTH",
"171 450 OFFCURVE",
"203 405 OFFCURVE",
"252 389 CURVE",
"154 365 OFFCURVE",
"75 278 OFFCURVE",
"75 175 CURVE SMOOTH"
);
},
{
closed = 1;
nodes = (
"90 176 LINE SMOOTH",
"90 288 OFFCURVE",
"188 381 OFFCURVE",
"300 381 CURVE SMOOTH",
"398 381 OFFCURVE",
"471 307 OFFCURVE",
"471 213 CURVE SMOOTH",
"471 103 OFFCURVE",
"367 5 OFFCURVE",
"254 5 CURVE SMOOTH",
"158 5 OFFCURVE",
"90 83 OFFCURVE",
"90 176 CURVE SMOOTH"
);
},
{
closed = 1;
nodes = (
"184 500 LINE SMOOTH",
"184 575 OFFCURVE",
"254 644 OFFCURVE",
"333 644 CURVE SMOOTH",
"400 644 OFFCURVE",
"446 589 OFFCURVE",
"446 525 CURVE SMOOTH",
"446 451 OFFCURVE",
"381 396 OFFCURVE",
"303 396 CURVE SMOOTH",
"234 396 OFFCURVE",
"184 440 OFFCURVE",
"184 500 CURVE SMOOTH"
);
}
);
width = 510;
},
{
hints = (
{
place = "{36, 144}";
},
{
place = "{330, 142}";
},
{
horizontal = 1;
place = "{-8, 21}";
target = up;
type = BottomGhost;
},
{
horizontal = 1;
place = "{658, -20}";
target = down;
type = TopGhost;
}
);
layerId = UUID1;
paths = (
{
closed = 1;
nodes = (
"52 191 LINE SMOOTH",
"52 86 OFFCURVE",
"122 -8 OFFCURVE",
"256 -8 CURVE SMOOTH",
"413 -8 OFFCURVE",
"518 113 OFFCURVE",
"518 242 CURVE SMOOTH",
"518 323 OFFCURVE",
"481 373 OFFCURVE",
"443 400 CURVE",
"479 432 OFFCURVE",
"493 467 OFFCURVE",
"493 513 CURVE SMOOTH",
"493 606 OFFCURVE",
"428 671 OFFCURVE",
"341 671 CURVE SMOOTH",
"239 671 OFFCURVE",
"149 586 OFFCURVE",
"149 472 CURVE SMOOTH",
"149 452 OFFCURVE",
"153 422 OFFCURVE",
"172 400 CURVE",
"115 368 OFFCURVE",
"52 303 OFFCURVE",
"52 191 CURVE SMOOTH"
);
},
{
closed = 1;
nodes = (
"182 210 LINE SMOOTH",
"182 278 OFFCURVE",
"244 330 OFFCURVE",
"304 328 CURVE SMOOTH",
"355 326 OFFCURVE",
"392 284 OFFCURVE",
"392 232 CURVE SMOOTH",
"392 168 OFFCURVE",
"333 114 OFFCURVE",
"272 114 CURVE SMOOTH",
"220 114 OFFCURVE",
"182 156 OFFCURVE",
"182 210 CURVE SMOOTH"
);
},
{
closed = 1;
nodes = (
"272 495 LINE SMOOTH",
"272 524 OFFCURVE",
"303 550 OFFCURVE",
"330 550 CURVE SMOOTH",
"353 550 OFFCURVE",
"374 528 OFFCURVE",
"374 503 CURVE SMOOTH",
"374 474 OFFCURVE",
"343 449 OFFCURVE",
"317 449 CURVE SMOOTH",
"294 449 OFFCURVE",
"272 470 OFFCURVE",
"272 495 CURVE SMOOTH"
);
}
);
width = 521;
}
);
unicode = 0038;
},
{
glyphname = nine;
lastChange = "2016-08-26 20:41:54 +0000";
layers = (
{
hints = (
{
horizontal = 1;
place = "{633, -20}";
target = down;
type = TopGhost;
},
{
horizontal = 1;
place = "{-8, 21}";
target = up;
type = BottomGhost;
}
);
layerId = UUID0;
paths = (
{
closed = 1;
nodes = (
"512 432 LINE",
"525 543 OFFCURVE",
"445 633 OFFCURVE",
"332 633 CURVE SMOOTH",
"211 633 OFFCURVE",
"102 532 OFFCURVE",
"102 412 CURVE SMOOTH",
"102 311 OFFCURVE",
"178 230 OFFCURVE",
"283 230 CURVE SMOOTH",
"350 230 OFFCURVE",
"413 262 OFFCURVE",
"456 311 CURVE",
"416 237 OFFCURVE",
"310 123 OFFCURVE",
"117 5 CURVE",
"120 1 OFFCURVE",
"123 -4 OFFCURVE",
"125 -8 CURVE",
"288 101 OFFCURVE",
"488 238 OFFCURVE",
"512 432 CURVE"
);
},
{
closed = 1;
nodes = (
"499 432 LINE",
"486 328 OFFCURVE",
"390 244 OFFCURVE",
"285 244 CURVE SMOOTH",
"188 244 OFFCURVE",
"116 319 OFFCURVE",
"116 413 CURVE SMOOTH",
"116 526 OFFCURVE",
"219 619 OFFCURVE",
"331 619 CURVE SMOOTH",
"436 619 OFFCURVE",
"511 536 OFFCURVE",
"499 432 CURVE"
);
}
);
width = 525;
},
{
hints = (
{
horizontal = 1;
place = "{636, -20}";
target = down;
type = TopGhost;
},
{
horizontal = 1;
place = "{-9, 21}";
target = up;
type = BottomGhost;
}
);
layerId = UUID1;
paths = (
{
closed = 1;
nodes = (
"561 422 LINE",
"582 592 OFFCURVE",
"453 652 OFFCURVE",
"359 652 CURVE SMOOTH",
"226 652 OFFCURVE",
"98 536 OFFCURVE",
"98 399 CURVE SMOOTH",
"98 283 OFFCURVE",
"188 195 OFFCURVE",
"304 195 CURVE SMOOTH",
"305 195 OFFCURVE",
"306 195 OFFCURVE",
"308 195 CURVE",
"278 173 OFFCURVE",
"152 110 OFFCURVE",
"116 87 CURVE",
"137 56 OFFCURVE",
"159 23 OFFCURVE",
"181 -8 CURVE",
"284 61 OFFCURVE",
"534 200 OFFCURVE",
"561 422 CURVE"
);
},
{
closed = 1;
nodes = (
"431 422 LINE",
"424 363 OFFCURVE",
"374 316 OFFCURVE",
"318 316 CURVE SMOOTH",
"266 316 OFFCURVE",
"224 358 OFFCURVE",
"224 412 CURVE SMOOTH",
"224 474 OFFCURVE",
"283 531 OFFCURVE",
"344 531 CURVE SMOOTH",
"401 531 OFFCURVE",
"438 480 OFFCURVE",
"431 422 CURVE"
);
}
);
width = 536;
}
);
unicode = 0039;
},
{
glyphname = fraction;
lastChange = "2016-08-26 20:41:54 +0000";
layers = (
{
hints = (
{
horizontal = 1;
place = "{306, 21}";
target = up;
type = BottomGhost;
},
{
horizontal = 1;
place = "{1061, -20}";
target = down;
type = TopGhost;
}
);
layerId = UUID0;
paths = (
{
closed = 1;
nodes = (
"375 755 LINE",
"251 503 OFFCURVE",
"128 252 OFFCURVE",
"4 0 CURVE",
"18 0 LINE",
"142 252 OFFCURVE",
"265 503 OFFCURVE",
"389 755 CURVE"
);
}
);
width = 300;
},
{
hints = (
{
horizontal = 1;
place = "{181, 21}";
target = up;
type = BottomGhost;
},
{
horizontal = 1;
place = "{936, -20}";
target = down;
type = TopGhost;
}
);
layerId = UUID1;
paths = (
{
closed = 1;
nodes = (
"324 770 LINE",
"197 513 OFFCURVE",
"72 257 OFFCURVE",
"-55 0 CURVE",
"71 0 LINE",
"198 257 OFFCURVE",
"323 513 OFFCURVE",
"450 770 CURVE"
);
}
);
width = 300;
}
);
unicode = 2044;
},
{
glyphname = asterisk;
lastChange = "2016-08-26 20:41:54 +0000";
layers = (
{
hints = (
{
horizontal = 1;
place = "{720, -20}";
target = down;
type = TopGhost;
},
{
horizontal = 1;
place = "{434, 21}";
target = up;
type = BottomGhost;
}
);
layerId = UUID0;
paths = (
{
closed = 1;
nodes = (
"211 434 LINE",
"225 434 LINE",
"232 477 OFFCURVE",
"237 519 OFFCURVE",
"243 562 CURVE",
"277 540 OFFCURVE",
"312 518 OFFCURVE",
"346 496 CURVE",
"350 501 OFFCURVE",
"353 506 OFFCURVE",
"357 511 CURVE",
"322 532 OFFCURVE",
"287 554 OFFCURVE",
"253 575 CURVE",
"253 575 LINE",
"293 597 OFFCURVE",
"333 619 OFFCURVE",
"374 641 CURVE",
"372 645 OFFCURVE",
"370 649 OFFCURVE",
"368 653 CURVE",
"328 632 OFFCURVE",
"287 610 OFFCURVE",
"246 589 CURVE",
"253 633 OFFCURVE",
"258 676 OFFCURVE",
"264 720 CURVE",
"246 720 LINE",
"230 589 LINE",
"196 611 OFFCURVE",
"161 632 OFFCURVE",
"126 654 CURVE",
"124 650 OFFCURVE",
"120 646 OFFCURVE",
"118 642 CURVE",
"152 620 OFFCURVE",
"186 598 OFFCURVE",
"221 576 CURVE",
"181 555 OFFCURVE",
"142 534 OFFCURVE",
"102 513 CURVE",
"104 508 OFFCURVE",
"107 503 OFFCURVE",
"109 498 CURVE",
"149 519 OFFCURVE",
"187 540 OFFCURVE",
"227 561 CURVE"
);
}
);
width = 335;
},
{
hints = (
{
horizontal = 1;
place = "{720, -20}";
target = down;
type = TopGhost;
},
{
horizontal = 1;
place = "{434, 21}";
target = up;
type = BottomGhost;
}
);
layerId = UUID1;
paths = (
{
closed = 1;
nodes = (
"182 434 LINE",
"262 434 LINE",
"265 457 OFFCURVE",
"268 480 OFFCURVE",
"271 503 CURVE",
"291 491 OFFCURVE",
"309 478 OFFCURVE",
"329 466 CURVE",
"346 490 OFFCURVE",
"363 515 OFFCURVE",
"380 539 CURVE",
"360 551 OFFCURVE",
"341 563 OFFCURVE",
"321 575 CURVE",
"321 575 LINE",
"345 587 OFFCURVE",
"367 600 OFFCURVE",
"391 612 CURVE",
"380 635 OFFCURVE",
"369 658 OFFCURVE",
"359 681 CURVE",
"337 669 OFFCURVE",
"313 657 OFFCURVE",
"291 645 CURVE",
"294 670 OFFCURVE",
"298 695 OFFCURVE",
"301 720 CURVE",
"217 720 LINE",
"208 645 LINE",
"188 657 OFFCURVE",
"169 670 OFFCURVE",
"149 682 CURVE",
"133 659 OFFCURVE",
"118 636 OFFCURVE",
"102 613 CURVE",
"120 601 OFFCURVE",
"140 588 OFFCURVE",
"158 576 CURVE",
"136 565 OFFCURVE",
"114 553 OFFCURVE",
"92 542 CURVE",
"103 518 OFFCURVE",
"114 493 OFFCURVE",
"125 469 CURVE",
"147 481 OFFCURVE",
"169 492 OFFCURVE",
"190 504 CURVE"
);
}
);
width = 335;
}
);
unicode = 002A;
},
{
glyphname = backslash;
lastChange = "2016-08-26 20:41:54 +0000";
layers = (
{
hints = (
{
horizontal = 1;
place = "{736, -20}";
target = down;
type = TopGhost;
},
{
horizontal = 1;
place = "{-19, 21}";
target = up;
type = BottomGhost;
}
);
layerId = UUID0;
paths = (
{
closed = 1;
nodes = (
"107 736 LINE",
"169 484 OFFCURVE",
"230 233 OFFCURVE",
"292 -19 CURVE",
"306 -19 LINE",
"244 233 OFFCURVE",
"183 484 OFFCURVE",
"121 736 CURVE"
);
}
);
width = 320;
},
{
hints = (
{
horizontal = 1;
place = "{736, -20}";
target = down;
type = TopGhost;
},
{
horizontal = 1;
place = "{-19, 21}";
target = up;
type = BottomGhost;
}
);
layerId = UUID1;
paths = (
{
closed = 1;
nodes = (
"82 751 LINE",
"145 494 OFFCURVE",
"208 238 OFFCURVE",
"271 -19 CURVE",
"413 -19 LINE",
"350 238 OFFCURVE",
"287 494 OFFCURVE",
"224 751 CURVE"
);
}
);
width = 430;
}
);
unicode = 005C;
},
{
glyphname = bullet;
lastChange = "2016-08-26 20:41:54 +0000";
layers = (
{
hints = (
{
place = "{174, 131}";
},
{
horizontal = 1;
place = "{235, 131}";
}
);
layerId = UUID0;
paths = (
{
closed = 1;
nodes = (
"210 293 LINE SMOOTH",
"210 261 OFFCURVE",
"235 235 OFFCURVE",
"268 235 CURVE SMOOTH",
"308 235 OFFCURVE",
"342 267 OFFCURVE",
"342 307 CURVE SMOOTH",
"342 340 OFFCURVE",
"318 366 OFFCURVE",
"284 366 CURVE SMOOTH",
"245 366 OFFCURVE",
"210 333 OFFCURVE",
"210 293 CURVE SMOOTH"
);
}
);
width = 479;
},
{
hints = (
{
place = "{113, 254}";
},
{
horizontal = 1;
place = "{174, 254}";
}
);
layerId = UUID1;
paths = (
{
closed = 1;
nodes = (
"116 289 LINE SMOOTH",
"116 205 OFFCURVE",
"177 142 OFFCURVE",
"261 142 CURVE SMOOTH",
"360 142 OFFCURVE",
"449 222 OFFCURVE",
"449 323 CURVE SMOOTH",
"449 406 OFFCURVE",
"387 473 OFFCURVE",
"302 473 CURVE SMOOTH",
"204 473 OFFCURVE",
"116 389 OFFCURVE",
"116 289 CURVE SMOOTH"
);
}
);
width = 488;
}
);
unicode = 2022;
},
{
glyphname = colon;
lastChange = "2016-08-26 20:41:54 +0000";
layers = (
{
hints = (
{
place = "{65, 40}";
},
{
horizontal = 1;
place = "{0, 21}";
target = up;
type = BottomGhost;
},
{
horizontal = 1;
place = "{290, -20}";
target = down;
type = TopGhost;
}
);
layerId = UUID0;
paths = (
{
closed = 1;
nodes = (
"67 18 LINE SMOOTH",
"67 8 OFFCURVE",
"75 0 OFFCURVE",
"85 0 CURVE SMOOTH",
"97 0 OFFCURVE",
"108 10 OFFCURVE",
"108 22 CURVE SMOOTH",
"108 32 OFFCURVE",
"100 40 OFFCURVE",
"90 40 CURVE SMOOTH",
"78 40 OFFCURVE",
"67 30 OFFCURVE",
"67 18 CURVE SMOOTH"
);
},
{
closed = 1;
nodes = (
"98 268 LINE SMOOTH",
"98 258 OFFCURVE",
"106 250 OFFCURVE",
"116 250 CURVE SMOOTH",
"128 250 OFFCURVE",
"138 260 OFFCURVE",
"138 272 CURVE SMOOTH",
"138 282 OFFCURVE",
"131 290 OFFCURVE",
"121 290 CURVE SMOOTH",
"109 290 OFFCURVE",
"98 280 OFFCURVE",
"98 268 CURVE SMOOTH"
);
}
);
width = 175;
},
{
hints = (
{
place = "{33, 103}";
},
{
horizontal = 1;
place = "{0, 21}";
target = up;
type = BottomGhost;
},
{
horizontal = 1;
place = "{355, -20}";
target = down;
type = TopGhost;
}
);
layerId = UUID1;
paths = (
{
closed = 1;
nodes = (
"23 64 LINE SMOOTH",
"23 25 OFFCURVE",
"54 0 OFFCURVE",
"87 0 CURVE SMOOTH",
"122 0 OFFCURVE",
"166 31 OFFCURVE",
"166 79 CURVE SMOOTH",
"166 116 OFFCURVE",
"136 145 OFFCURVE",
"105 145 CURVE SMOOTH",
"66 145 OFFCURVE",
"23 110 OFFCURVE",
"23 64 CURVE SMOOTH"
);
},
{
closed = 1;
nodes = (
"58 349 LINE SMOOTH",
"58 310 OFFCURVE",
"89 285 OFFCURVE",
"122 285 CURVE SMOOTH",
"157 285 OFFCURVE",
"201 316 OFFCURVE",
"201 364 CURVE SMOOTH",
"201 401 OFFCURVE",
"171 430 OFFCURVE",
"140 430 CURVE SMOOTH",
"101 430 OFFCURVE",
"58 395 OFFCURVE",
"58 349 CURVE SMOOTH"
);
}
);
width = 179;
}
);
unicode = 003A;
},
{
glyphname = comma;
lastChange = "2016-08-26 20:41:54 +0000";
layers = (
{
hints = (
{
horizontal = 1;
place = "{86, -20}";
target = down;
type = TopGhost;
},
{
horizontal = 1;
place = "{-120, 21}";
target = up;
type = BottomGhost;
}
);
layerId = UUID0;
paths = (
{
closed = 1;
nodes = (
"114 86 LINE",
"80 17 OFFCURVE",
"46 -51 OFFCURVE",
"12 -120 CURVE",
"26 -120 LINE",
"63 -51 OFFCURVE",
"100 17 OFFCURVE",
"137 86 CURVE"
);
}
);
width = 200;
},
{
hints = (
{
horizontal = 1;
place = "{86, -20}";
target = down;
type = TopGhost;
},
{
horizontal = 1;
place = "{-120, 21}";
target = up;
type = BottomGhost;
}
);
layerId = UUID1;
paths = (
{
closed = 1;
nodes = (
"78 88 LINE",
"42 17 OFFCURVE",
"9 -52 OFFCURVE",
"-27 -122 CURVE",
"85 -122 LINE",
"123 -52 OFFCURVE",
"160 17 OFFCURVE",
"199 88 CURVE"
);
}
);
width = 205;
}
);
unicode = 002C;
},
{
glyphname = ellipsis;
lastChange = "2016-08-26 20:41:54 +0000";
layers = (
{
hints = (
{
horizontal = 1;
place = "{0, 21}";
target = up;
type = BottomGhost;
},
{
horizontal = 1;
place = "{40, -20}";
target = down;
type = TopGhost;
},
{
horizontal = 1;
place = "{0, 21}";
target = up;
type = BottomGhost;
},
{
horizontal = 1;
place = "{40, -20}";
target = down;
type = TopGhost;
},
{
horizontal = 1;
place = "{0, 21}";
target = up;
type = BottomGhost;
},
{
horizontal = 1;
place = "{40, -20}";
target = down;
type = TopGhost;
}
);
layerId = UUID0;
paths = (
{
closed = 1;
nodes = (
"68 18 LINE SMOOTH",
"68 8 OFFCURVE",
"76 0 OFFCURVE",
"86 0 CURVE SMOOTH",
"98 0 OFFCURVE",
"109 10 OFFCURVE",
"109 22 CURVE SMOOTH",
"109 32 OFFCURVE",
"101 40 OFFCURVE",
"91 40 CURVE SMOOTH",
"79 40 OFFCURVE",
"68 30 OFFCURVE",
"68 18 CURVE SMOOTH"
);
},
{
closed = 1;
nodes = (
"231 18 LINE SMOOTH",
"231 8 OFFCURVE",
"239 0 OFFCURVE",
"249 0 CURVE SMOOTH",
"261 0 OFFCURVE",
"272 10 OFFCURVE",
"272 22 CURVE SMOOTH",
"272 32 OFFCURVE",
"264 40 OFFCURVE",
"254 40 CURVE SMOOTH",
"242 40 OFFCURVE",
"231 30 OFFCURVE",
"231 18 CURVE SMOOTH"
);
},
{
closed = 1;
nodes = (
"394 18 LINE SMOOTH",
"394 8 OFFCURVE",
"402 0 OFFCURVE",
"412 0 CURVE SMOOTH",
"424 0 OFFCURVE",
"435 10 OFFCURVE",
"435 22 CURVE SMOOTH",
"435 32 OFFCURVE",
"427 40 OFFCURVE",
"417 40 CURVE SMOOTH",
"405 40 OFFCURVE",
"394 30 OFFCURVE",
"394 18 CURVE SMOOTH"
);
}
);
width = 489;
},
{
hints = (
{
horizontal = 1;
place = "{0, 21}";
target = up;
type = BottomGhost;
},
{
horizontal = 1;
place = "{105, -20}";
target = down;
type = TopGhost;
},
{
horizontal = 1;
place = "{0, 21}";
target = up;
type = BottomGhost;
},
{
horizontal = 1;
place = "{105, -20}";
target = down;
type = TopGhost;
},
{
horizontal = 1;
place = "{0, 21}";
target = up;
type = BottomGhost;
},
{
horizontal = 1;
place = "{105, -20}";
target = down;
type = TopGhost;
}
);
layerId = UUID1;
paths = (
{
closed = 1;
nodes = (
"23 64 LINE SMOOTH",
"23 25 OFFCURVE",
"54 0 OFFCURVE",
"87 0 CURVE SMOOTH",
"122 0 OFFCURVE",
"166 31 OFFCURVE",
"166 79 CURVE SMOOTH",
"166 116 OFFCURVE",
"136 145 OFFCURVE",
"105 145 CURVE SMOOTH",
"66 145 OFFCURVE",
"23 110 OFFCURVE",
"23 64 CURVE SMOOTH"
);
},
{
closed = 1;
nodes = (
"190 64 LINE SMOOTH",
"190 25 OFFCURVE",
"221 0 OFFCURVE",
"254 0 CURVE SMOOTH",
"289 0 OFFCURVE",
"333 31 OFFCURVE",
"333 79 CURVE SMOOTH",
"333 116 OFFCURVE",
"303 145 OFFCURVE",
"272 145 CURVE SMOOTH",
"233 145 OFFCURVE",
"190 110 OFFCURVE",
"190 64 CURVE SMOOTH"
);
},
{
closed = 1;
nodes = (
"357 64 LINE SMOOTH",
"357 25 OFFCURVE",
"388 0 OFFCURVE",
"421 0 CURVE SMOOTH",
"456 0 OFFCURVE",
"500 31 OFFCURVE",
"500 79 CURVE SMOOTH",
"500 116 OFFCURVE",
"470 145 OFFCURVE",
"439 145 CURVE SMOOTH",
"400 145 OFFCURVE",
"357 110 OFFCURVE",
"357 64 CURVE SMOOTH"
);
}
);
width = 501;
}
);
unicode = 2026;
},
{
glyphname = exclam;
lastChange = "2016-08-26 20:41:54 +0000";
layers = (
{
hints = (
{
horizontal = 1;
place = "{750, -20}";
target = down;
type = TopGhost;
},
{
horizontal = 1;
place = "{36, 21}";
target = up;
type = BottomGhost;
}
);
layerId = UUID0;
paths = (
{
closed = 1;
nodes = (
"89 65 LINE",
"88 56 LINE",
"87 48 LINE",
"98 36 LINE",
"105 36 LINE",
"105 36 LINE",
"113 36 LINE",
"126 48 LINE",
"127 56 LINE",
"128 65 LINE",
"117 76 LINE",
"109 76 LINE",
"102 76 LINE"
);
},
{
closed = 1;
nodes = (
"113 166 LINE",
"127 166 LINE",
"199 750 LINE",
"185 750 LINE"
);
}
);
width = 201;
},
{
hints = (
{
horizontal = 1;
place = "{750, -20}";
target = down;
type = TopGhost;
},
{
horizontal = 1;
place = "{0, 21}";
target = up;
type = BottomGhost;
}
);
layerId = UUID1;
paths = (
{
closed = 1;
nodes = (
"40 84 LINE",
"36 52 LINE",
"32 20 LINE",
"71 -21 LINE",
"99 -21 LINE",
"99 -21 LINE",
"125 -21 LINE",
"174 20 LINE",
"178 52 LINE",
"182 84 LINE",
"143 124 LINE",
"117 124 LINE",
"89 124 LINE"
);
},
{
closed = 1;
nodes = (
"59 169 LINE",
"184 169 LINE",
"257 765 LINE",
"132 765 LINE"
);
}
);
width = 205;
}
);
unicode = 0021;
},
{
glyphname = numbersign;
lastChange = "2016-08-26 20:41:54 +0000";
layers = (
{
hints = (
{
horizontal = 1;
place = "{225, 196}";
},
{
horizontal = 1;
place = "{0, 21}";
target = up;
type = BottomGhost;
},
{
horizontal = 1;
place = "{643, -20}";
target = down;
type = TopGhost;
}
);
layerId = UUID0;
paths = (
{
closed = 1;
nodes = (
"276 643 LINE",
"258 569 OFFCURVE",
"240 495 OFFCURVE",
"222 421 CURVE",
"105 421 LINE",
"104 416 OFFCURVE",
"103 412 OFFCURVE",
"102 407 CURVE",
"218 407 LINE",
"204 351 OFFCURVE",
"192 295 OFFCURVE",
"178 239 CURVE",
"60 239 LINE",
"59 234 OFFCURVE",
"58 230 OFFCURVE",
"57 225 CURVE",
"174 225 LINE",
"156 150 OFFCURVE",
"139 75 OFFCURVE",
"120 0 CURVE",
"134 0 LINE",
"153 75 OFFCURVE",
"170 150 OFFCURVE",
"188 225 CURVE",
"358 225 LINE",
"340 150 OFFCURVE",
"323 75 OFFCURVE",
"304 0 CURVE",
"318 0 LINE",
"337 75 OFFCURVE",
"354 150 OFFCURVE",
"372 225 CURVE",
"508 225 LINE",
"509 230 OFFCURVE",
"510 234 OFFCURVE",
"511 239 CURVE",
"376 239 LINE",
"390 295 OFFCURVE",
"402 351 OFFCURVE",
"416 407 CURVE",
"553 407 LINE",
"554 412 OFFCURVE",
"555 416 OFFCURVE",
"556 421 CURVE",
"420 421 LINE",
"438 495 OFFCURVE",
"456 569 OFFCURVE",
"474 643 CURVE",
"460 643 LINE",
"442 569 OFFCURVE",
"424 495 OFFCURVE",
"406 421 CURVE",
"236 421 LINE",
"254 495 OFFCURVE",
"272 569 OFFCURVE",
"290 643 CURVE"
);
},
{
closed = 1;
nodes = (
"402 407 LINE",
"388 351 OFFCURVE",
"376 295 OFFCURVE",
"362 239 CURVE",
"192 239 LINE",
"206 295 OFFCURVE",
"218 351 OFFCURVE",
"232 407 CURVE"
);
}
);
width = 571;
},
{
hints = (
{
horizontal = 1;
place = "{188, 264}";
},
{
horizontal = 1;
place = "{0, 21}";
target = up;
type = BottomGhost;
},
{
horizontal = 1;
place = "{643, -20}";
target = down;
type = TopGhost;
}
);
layerId = UUID1;
paths = (
{
closed = 1;
nodes = (
"242 656 LINE",
"226 596 OFFCURVE",
"212 539 OFFCURVE",
"197 479 CURVE",
"118 479 LINE",
"108 439 OFFCURVE",
"100 398 OFFCURVE",
"90 358 CURVE",
"169 358 LINE",
"163 336 OFFCURVE",
"159 314 OFFCURVE",
"153 292 CURVE",
"74 292 LINE",
"65 251 OFFCURVE",
"54 211 OFFCURVE",
"44 170 CURVE",
"123 170 LINE",
"110 113 OFFCURVE",
"95 57 OFFCURVE",
"82 0 CURVE",
"209 0 LINE",
"221 57 OFFCURVE",
"237 113 OFFCURVE",
"250 170 CURVE",
"311 170 LINE",
"298 113 OFFCURVE",
"283 57 OFFCURVE",
"270 0 CURVE",
"396 0 LINE",
"409 57 OFFCURVE",
"424 113 OFFCURVE",
"437 170 CURVE",
"522 170 LINE",
"531 211 OFFCURVE",
"542 251 OFFCURVE",
"552 292 CURVE",
"467 292 LINE",
"472 314 OFFCURVE",
"477 336 OFFCURVE",
"483 358 CURVE",
"568 358 LINE",
"578 398 OFFCURVE",
"586 439 OFFCURVE",
"595 479 CURVE",
"511 479 LINE",
"526 539 OFFCURVE",
"540 596 OFFCURVE",
"556 656 CURVE",
"429 656 LINE",
"414 596 OFFCURVE",
"399 539 OFFCURVE",
"385 479 CURVE",
"323 479 LINE",
"338 539 OFFCURVE",
"352 596 OFFCURVE",
"368 656 CURVE"
);
},
{
closed = 1;
nodes = (
"356 358 LINE",
"351 336 OFFCURVE",
"346 314 OFFCURVE",
"341 292 CURVE",
"279 292 LINE",
"285 314 OFFCURVE",
"290 336 OFFCURVE",
"295 358 CURVE"
);
}
);
width = 582;
}
);
unicode = 0023;
},
{
glyphname = period;
lastChange = "2016-08-26 20:41:54 +0000";
layers = (
{
hints = (
{
horizontal = 1;
place = "{0, 21}";
target = up;
type = BottomGhost;
},
{
horizontal = 1;
place = "{40, -20}";
target = down;
type = TopGhost;
}
);
layerId = UUID0;
paths = (
{
closed = 1;
nodes = (
"68 18 LINE SMOOTH",
"68 8 OFFCURVE",
"76 0 OFFCURVE",
"86 0 CURVE SMOOTH",
"98 0 OFFCURVE",
"109 10 OFFCURVE",
"109 22 CURVE SMOOTH",
"109 32 OFFCURVE",
"101 40 OFFCURVE",
"91 40 CURVE SMOOTH",
"79 40 OFFCURVE",
"68 30 OFFCURVE",
"68 18 CURVE SMOOTH"
);
}
);
width = 163;
},
{
hints = (
{
horizontal = 1;
place = "{0, 21}";
target = up;
type = BottomGhost;
},
{
horizontal = 1;
place = "{105, -20}";
target = down;
type = TopGhost;
}
);
layerId = UUID1;
paths = (
{
closed = 1;
nodes = (
"23 64 LINE SMOOTH",
"23 25 OFFCURVE",
"54 0 OFFCURVE",
"87 0 CURVE SMOOTH",
"122 0 OFFCURVE",
"166 31 OFFCURVE",
"166 79 CURVE SMOOTH",
"166 116 OFFCURVE",
"136 145 OFFCURVE",
"105 145 CURVE SMOOTH",
"66 145 OFFCURVE",
"23 110 OFFCURVE",
"23 64 CURVE SMOOTH"
);
}
);
width = 167;
}
);
unicode = 002E;
},
{
glyphname = question;
lastChange = "2016-08-26 20:41:54 +0000";
layers = (
{
hints = (
{
horizontal = 1;
place = "{25, 21}";
target = up;
type = BottomGhost;
},
{
horizontal = 1;
place = "{732, -20}";
target = down;
type = TopGhost;
}
);
layerId = UUID0;
paths = (
{
closed = 1;
nodes = (
"228 164 LINE",
"242 164 LINE",
"252 242 LINE SMOOTH",
"263 330 OFFCURVE",
"303 332 OFFCURVE",
"360 370 CURVE SMOOTH",
"433 418 OFFCURVE",
"479 476 OFFCURVE",
"479 557 CURVE SMOOTH",
"479 654 OFFCURVE",
"408 732 OFFCURVE",
"306 732 CURVE SMOOTH",
"220 732 OFFCURVE",
"140 676 OFFCURVE",
"105 599 CURVE",
"108 598 OFFCURVE",
"113 597 OFFCURVE",
"117 596 CURVE",
"117 596 LINE",
"149 669 OFFCURVE",
"225 718 OFFCURVE",
"304 718 CURVE SMOOTH",
"398 718 OFFCURVE",
"465 650 OFFCURVE",
"465 557 CURVE SMOOTH",
"465 500 OFFCURVE",
"442 450 OFFCURVE",
"389 408 CURVE SMOOTH",
"317 351 OFFCURVE",
"250 343 OFFCURVE",
"240 261 CURVE SMOOTH"
);
},
{
closed = 1;
nodes = (
"218 25 LINE SMOOTH",
"229 25 OFFCURVE",
"241 35 OFFCURVE",
"241 47 CURVE SMOOTH",
"241 58 OFFCURVE",
"232 65 OFFCURVE",
"223 65 CURVE SMOOTH",
"213 65 OFFCURVE",
"201 56 OFFCURVE",
"201 43 CURVE SMOOTH",
"201 33 OFFCURVE",
"210 25 OFFCURVE",
"218 25 CURVE SMOOTH"
);
}
);
width = 452;
},
{
hints = (
{
horizontal = 1;
place = "{0, 21}";
target = up;
type = BottomGhost;
},
{
horizontal = 1;
place = "{732, -20}";
target = down;
type = TopGhost;
}
);
layerId = UUID1;
paths = (
{
closed = 1;
nodes = (
"162 167 LINE",
"287 167 LINE",
"297 247 LINE SMOOTH",
"305 309 OFFCURVE",
"374 346 OFFCURVE",
"406 368 CURVE SMOOTH",
"483 421 OFFCURVE",
"530 482 OFFCURVE",
"530 568 CURVE SMOOTH",
"530 667 OFFCURVE",
"456 747 OFFCURVE",
"353 747 CURVE SMOOTH",
"185 747 OFFCURVE",
"140 627 OFFCURVE",
"119 579 CURVE",
"153 565 OFFCURVE",
"189 551 OFFCURVE",
"223 538 CURVE",
"223 538 LINE",
"249 599 OFFCURVE",
"265 625 OFFCURVE",
"338 625 CURVE SMOOTH",
"379 625 OFFCURVE",
"401 596 OFFCURVE",
"401 558 CURVE SMOOTH",
"401 506 OFFCURVE",
"369 460 OFFCURVE",
"306 417 CURVE SMOOTH",
"241 373 OFFCURVE",
"185 355 OFFCURVE",
"174 266 CURVE SMOOTH"
);
},
{
closed = 1;
nodes = (
"200 -14 LINE SMOOTH",
"237 -14 OFFCURVE",
"279 17 OFFCURVE",
"279 64 CURVE SMOOTH",
"279 101 OFFCURVE",
"249 130 OFFCURVE",
"218 130 CURVE SMOOTH",
"179 130 OFFCURVE",
"136 95 OFFCURVE",
"136 50 CURVE SMOOTH",
"136 11 OFFCURVE",
"167 -14 OFFCURVE",
"200 -14 CURVE SMOOTH"
);
}
);
width = 462;
}
);
unicode = 003F;
},
{
glyphname = quotedbl;
lastChange = "2016-08-26 20:41:54 +0000";
layers = (
{
hints = (
{
place = "{63, 151}";
},
{
horizontal = 1;
place = "{472, 21}";
target = up;
type = BottomGhost;
},
{
horizontal = 1;
place = "{720, -20}";
target = down;
type = TopGhost;
}
);
layerId = UUID0;
paths = (
{
closed = 1;
nodes = (
"151 720 LINE",
"121 472 LINE",
"135 472 LINE",
"146 555 OFFCURVE",
"158 637 OFFCURVE",
"169 720 CURVE"
);
},
{
closed = 1;
nodes = (
"284 720 LINE",
"254 472 LINE",
"268 472 LINE",
"279 555 OFFCURVE",
"291 637 OFFCURVE",
"302 720 CURVE"
);
}
);
width = 293;
},
{
hints = (
{
place = "{63, 216}";
},
{
horizontal = 1;
place = "{472, 21}";
target = up;
type = BottomGhost;
},
{
horizontal = 1;
place = "{720, -20}";
target = down;
type = TopGhost;
}
);
layerId = UUID1;
paths = (
{
closed = 1;
nodes = (
"154 734 LINE",
"123 481 LINE",
"241 481 LINE",
"252 566 OFFCURVE",
"265 650 OFFCURVE",
"276 734 CURVE"
);
},
{
closed = 1;
nodes = (
"290 734 LINE",
"259 481 LINE",
"377 481 LINE",
"388 566 OFFCURVE",
"401 650 OFFCURVE",
"412 734 CURVE"
);
}
);
width = 366;
}
);
unicode = 0022;
},
{
glyphname = quotesingle;
lastChange = "2016-08-26 20:41:54 +0000";
layers = (
{
hints = (
{
horizontal = 1;
place = "{472, 21}";
target = up;
type = BottomGhost;
},
{
horizontal = 1;
place = "{720, -20}";
target = down;
type = TopGhost;
}
);
layerId = UUID0;
paths = (
{
closed = 1;
nodes = (
"155 720 LINE",
"125 472 LINE",
"139 472 LINE",
"150 555 OFFCURVE",
"162 637 OFFCURVE",
"173 720 CURVE"
);
}
);
width = 147;
},
{
hints = (
{
horizontal = 1;
place = "{472, 21}";
target = up;
type = BottomGhost;
},
{
horizontal = 1;
place = "{720, -20}";
target = down;
type = TopGhost;
}
);
layerId = UUID1;
paths = (
{
closed = 1;
nodes = (
"118 734 LINE",
"87 481 LINE",
"207 481 LINE",
"218 566 OFFCURVE",
"231 650 OFFCURVE",
"242 734 CURVE"
);
}
);
width = 175;
}
);
unicode = 0027;
},
{
glyphname = semicolon;
lastChange = "2016-08-26 20:41:54 +0000";
layers = (
{
hints = (
{
horizontal = 1;
place = "{-120, 21}";
target = up;
type = BottomGhost;
},
{
horizontal = 1;
place = "{290, -20}";
target = down;
type = TopGhost;
}
);
layerId = UUID0;
paths = (
{
closed = 1;
nodes = (
"121 268 LINE SMOOTH",
"121 258 OFFCURVE",
"128 250 OFFCURVE",
"138 250 CURVE SMOOTH",
"150 250 OFFCURVE",
"161 260 OFFCURVE",
"161 272 CURVE SMOOTH",
"161 282 OFFCURVE",
"153 290 OFFCURVE",
"143 290 CURVE SMOOTH",
"131 290 OFFCURVE",
"121 280 OFFCURVE",
"121 268 CURVE SMOOTH"
);
},
{
closed = 1;
nodes = (
"99 86 LINE",
"65 17 OFFCURVE",
"31 -51 OFFCURVE",
"-3 -120 CURVE",
"11 -120 LINE",
"48 -51 OFFCURVE",
"85 17 OFFCURVE",
"122 86 CURVE"
);
}
);
width = 201;
},
{
hints = (
{
horizontal = 1;
place = "{-120, 21}";
target = up;
type = BottomGhost;
},
{
horizontal = 1;
place = "{355, -20}";
target = down;
type = TopGhost;
}
);
layerId = UUID1;
paths = (
{
closed = 1;
nodes = (
"92 319 LINE SMOOTH",
"92 280 OFFCURVE",
"122 255 OFFCURVE",
"154 255 CURVE SMOOTH",
"191 255 OFFCURVE",
"234 286 OFFCURVE",
"234 334 CURVE SMOOTH",
"234 371 OFFCURVE",
"204 400 OFFCURVE",
"172 400 CURVE SMOOTH",
"135 400 OFFCURVE",
"92 365 OFFCURVE",
"92 319 CURVE SMOOTH"
);
},
{
closed = 1;
nodes = (
"64 88 LINE",
"28 17 OFFCURVE",
"-5 -52 OFFCURVE",
"-41 -122 CURVE",
"71 -122 LINE",
"109 -52 OFFCURVE",
"146 17 OFFCURVE",
"185 88 CURVE"
);
}
);
width = 205;
}
);
unicode = 003B;
},
{
glyphname = slash;
lastChange = "2016-08-26 20:41:54 +0000";
layers = (
{
hints = (
{
horizontal = 1;
place = "{-19, 21}";
target = up;
type = BottomGhost;
},
{
horizontal = 1;
place = "{736, -20}";
target = down;
type = TopGhost;
}
);
layerId = UUID0;
paths = (
{
closed = 1;
nodes = (
"386 736 LINE",
"262 484 OFFCURVE",
"139 233 OFFCURVE",
"15 -19 CURVE",
"29 -19 LINE",
"153 233 OFFCURVE",
"276 484 OFFCURVE",
"400 736 CURVE"
);
}
);
width = 322;
},
{
hints = (
{
horizontal = 1;
place = "{-19, 21}";
target = up;
type = BottomGhost;
},
{
horizontal = 1;
place = "{736, -20}";
target = down;
type = TopGhost;
}
);
layerId = UUID1;
paths = (
{
closed = 1;
nodes = (
"394 751 LINE",
"267 494 OFFCURVE",
"142 238 OFFCURVE",
"15 -19 CURVE",
"141 -19 LINE",
"268 238 OFFCURVE",
"393 494 OFFCURVE",
"520 751 CURVE"
);
}
);
width = 421;
}
);
unicode = 002F;
},
{
glyphname = underscore;
lastChange = "2016-08-26 20:41:54 +0000";
layers = (
{
hints = (
{
horizontal = 1;
place = "{14, -20}";
target = down;
type = TopGhost;
},
{
horizontal = 1;
place = "{0, 21}";
target = up;
type = BottomGhost;
}
);
layerId = UUID0;
paths = (
{
closed = 1;
nodes = (
"100 0 LINE",
"500 0 LINE",
"502 14 LINE",
"102 14 LINE"
);
}
);
width = 600;
},
{
hints = (
{
horizontal = 1;
place = "{81, -20}";
target = down;
type = TopGhost;
},
{
horizontal = 1;
place = "{0, 21}";
target = up;
type = BottomGhost;
}
);
layerId = UUID1;
paths = (
{
closed = 1;
nodes = (
"102 0 LINE",
"510 0 LINE",
"525 121 LINE",
"117 121 LINE"
);
}
);
width = 612;
}
);
unicode = 005F;
},
{
glyphname = braceleft;
lastChange = "2016-08-26 20:41:54 +0000";
layers = (
{
hints = (
{
horizontal = 1;
place = "{287, 24}";
}
);
layerId = UUID0;
paths = (
{
closed = 1;
nodes = (
"322 732 LINE",
"324 746 LINE",
"287 746 LINE SMOOTH",
"244 746 OFFCURVE",
"201 749 OFFCURVE",
"186 628 CURVE SMOOTH",
"164 446 LINE SMOOTH",
"157 392 OFFCURVE",
"134 314 OFFCURVE",
"68 311 CURVE",
"65 287 LINE",
"65 287 LINE",
"130 284 OFFCURVE",
"135 206 OFFCURVE",
"128 152 CURVE SMOOTH",
"110 6 LINE SMOOTH",
"91 -152 OFFCURVE",
"124 -148 OFFCURVE",
"177 -148 CURVE SMOOTH",
"214 -148 LINE",
"216 -134 LINE",
"159 -134 LINE SMOOTH",
"118 -134 OFFCURVE",
"110 -102 OFFCURVE",
"120 -22 CURVE SMOOTH",
"139 128 LINE SMOOTH",
"154 251 OFFCURVE",
"126 279 OFFCURVE",
"94 299 CURVE",
"131 318 OFFCURVE",
"166 345 OFFCURVE",
"181 470 CURVE SMOOTH",
"199 620 LINE SMOOTH",
"209 700 OFFCURVE",
"224 732 OFFCURVE",
"265 732 CURVE SMOOTH"
);
}
);
width = 272;
},
{
hints = (
{
horizontal = 1;
place = "{256, 81}";
}
);
layerId = UUID1;
paths = (
{
closed = 1;
nodes = (
"408 639 LINE",
"423 761 LINE",
"344 761 LINE SMOOTH",
"266 761 OFFCURVE",
"207 769 OFFCURVE",
"191 641 CURVE SMOOTH",
"173 497 LINE SMOOTH",
"166 441 OFFCURVE",
"141 362 OFFCURVE",
"75 359 CURVE",
"61 243 LINE",
"61 243 LINE",
"126 240 OFFCURVE",
"132 161 OFFCURVE",
"125 105 CURVE SMOOTH",
"105 -53 LINE SMOOTH",
"92 -161 OFFCURVE",
"163 -153 OFFCURVE",
"232 -153 CURVE SMOOTH",
"311 -153 LINE",
"326 -31 LINE",
"289 -31 LINE SMOOTH",
"247 -31 OFFCURVE",
"236 -22 OFFCURVE",
"247 69 CURVE SMOOTH",
"262 188 LINE SMOOTH",
"269 243 OFFCURVE",
"230 289 OFFCURVE",
"211 303 CURVE",
"234 320 OFFCURVE",
"284 362 OFFCURVE",
"291 420 CURVE SMOOTH",
"305 540 LINE SMOOTH",
"316 631 OFFCURVE",
"329 639 OFFCURVE",
"371 639 CURVE SMOOTH"
);
}
);
width = 355;
}
);
unicode = 007B;
},
{
glyphname = braceright;
lastChange = "2016-08-26 20:41:54 +0000";
layers = (
{
hints = (
{
horizontal = 1;
place = "{287, 24}";
}
);
layerId = UUID0;
paths = (
{
closed = 1;
nodes = (
"72 -134 LINE",
"70 -148 LINE",
"107 -148 LINE SMOOTH",
"150 -148 OFFCURVE",
"192 -153 OFFCURVE",
"207 -30 CURVE SMOOTH",
"225 116 LINE SMOOTH",
"231 161 OFFCURVE",
"241 283 OFFCURVE",
"325 287 CURVE",
"328 311 LINE",
"328 311 LINE",
"245 315 OFFCURVE",
"264 436 OFFCURVE",
"270 482 CURVE SMOOTH",
"288 628 LINE SMOOTH",
"303 750 OFFCURVE",
"261 746 OFFCURVE",
"217 746 CURVE SMOOTH",
"180 746 LINE",
"178 732 LINE",
"235 732 LINE SMOOTH",
"276 732 OFFCURVE",
"283 700 OFFCURVE",
"273 620 CURVE SMOOTH",
"255 470 LINE SMOOTH",
"240 345 OFFCURVE",
"267 318 OFFCURVE",
"300 299 CURVE",
"273 285 OFFCURVE",
"228 255 OFFCURVE",
"217 165 CURVE SMOOTH",
"194 -22 LINE SMOOTH",
"184 -102 OFFCURVE",
"170 -134 OFFCURVE",
"129 -134 CURVE SMOOTH"
);
}
);
width = 320;
},
{
hints = (
{
horizontal = 1;
place = "{256, 81}";
}
);
layerId = UUID1;
paths = (
{
closed = 1;
nodes = (
"-7 -31 LINE",
"-22 -153 LINE",
"57 -153 LINE SMOOTH",
"135 -153 OFFCURVE",
"196 -159 OFFCURVE",
"211 -32 CURVE SMOOTH",
"230 126 LINE SMOOTH",
"237 187 OFFCURVE",
"271 242 OFFCURVE",
"326 243 CURVE",
"340 359 LINE",
"340 359 LINE",
"286 360 OFFCURVE",
"266 416 OFFCURVE",
"273 476 CURVE SMOOTH",
"293 641 LINE SMOOTH",
"309 770 OFFCURVE",
"243 761 OFFCURVE",
"169 761 CURVE SMOOTH",
"90 761 LINE",
"75 639 LINE",
"112 639 LINE SMOOTH",
"154 639 OFFCURVE",
"164 631 OFFCURVE",
"153 540 CURVE SMOOTH",
"138 420 LINE SMOOTH",
"131 362 OFFCURVE",
"171 320 OFFCURVE",
"190 303 CURVE",
"163 286 OFFCURVE",
"117 244 OFFCURVE",
"107 167 CURVE SMOOTH",
"95 69 LINE SMOOTH",
"84 -22 OFFCURVE",
"72 -31 OFFCURVE",
"30 -31 CURVE SMOOTH"
);
}
);
width = 327;
}
);
unicode = 007D;
},
{
glyphname = bracketleft;
lastChange = "2016-08-26 20:41:54 +0000";
layers = (
{
hints = (
{
horizontal = 1;
place = "{-149, 21}";
target = up;
type = BottomGhost;
},
{
horizontal = 1;
place = "{746, -20}";
target = down;
type = TopGhost;
}
);
layerId = UUID0;
paths = (
{
closed = 1;
nodes = (
"65 -149 LINE",
"228 -149 LINE",
"230 -135 LINE",
"83 -135 LINE",
"189 732 LINE",
"336 732 LINE",
"338 746 LINE",
"175 746 LINE"
);
}
);
width = 338;
},
{
hints = (
{
horizontal = 1;
place = "{-149, 21}";
target = up;
type = BottomGhost;
},
{
horizontal = 1;
place = "{746, -20}";
target = down;
type = TopGhost;
}
);
layerId = UUID1;
paths = (
{
closed = 1;
nodes = (
"66 -152 LINE",
"279 -152 LINE",
"294 -31 LINE",
"205 -31 LINE",
"287 639 LINE",
"376 639 LINE",
"391 761 LINE",
"178 761 LINE"
);
}
);
width = 345;
}
);
unicode = 005B;
},
{
glyphname = bracketright;
lastChange = "2016-08-26 20:41:54 +0000";
layers = (
{
hints = (
{
horizontal = 1;
place = "{746, -20}";
target = down;
type = TopGhost;
},
{
horizontal = 1;
place = "{-149, 21}";
target = up;
type = BottomGhost;
}
);
layerId = UUID0;
paths = (
{
closed = 1;
nodes = (
"178 732 LINE",
"325 732 LINE",
"219 -135 LINE",
"72 -135 LINE",
"70 -149 LINE",
"233 -149 LINE",
"343 746 LINE",
"180 746 LINE"
);
}
);
width = 342;
},
{
hints = (
{
horizontal = 1;
place = "{746, -20}";
target = down;
type = TopGhost;
},
{
horizontal = 1;
place = "{-149, 21}";
target = up;
type = BottomGhost;
}
);
layerId = UUID1;
paths = (
{
closed = 1;
nodes = (
"121 639 LINE",
"210 639 LINE",
"128 -31 LINE",
"39 -31 LINE",
"24 -152 LINE",
"237 -152 LINE",
"349 761 LINE",
"136 761 LINE"
);
}
);
width = 349;
}
);
unicode = 005D;
},
{
glyphname = parenleft;
lastChange = "2016-08-26 20:41:54 +0000";
layers = (
{
hints = (
{
horizontal = 1;
place = "{-163, 21}";
target = up;
type = BottomGhost;
},
{
horizontal = 1;
place = "{747, -20}";
target = down;
type = TopGhost;
}
);
layerId = UUID0;
paths = (
{
closed = 1;
nodes = (
"177 218 LINE SMOOTH",
"177 54 OFFCURVE",
"230 -88 OFFCURVE",
"292 -163 CURVE",
"294 -155 OFFCURVE",
"296 -148 OFFCURVE",
"298 -140 CURVE",
"242 -66 OFFCURVE",
"192 67 OFFCURVE",
"192 222 CURVE SMOOTH",
"192 446 OFFCURVE",
"303 623 OFFCURVE",
"404 724 CURVE",
"404 732 OFFCURVE",
"404 739 OFFCURVE",
"404 747 CURVE",
"295 645 OFFCURVE",
"177 453 OFFCURVE",
"177 218 CURVE SMOOTH"
);
}
);
width = 394;
},
{
hints = (
{
horizontal = 1;
place = "{-164, 21}";
target = up;
type = BottomGhost;
},
{
horizontal = 1;
place = "{746, -20}";
target = down;
type = TopGhost;
}
);
layerId = UUID1;
paths = (
{
closed = 1;
nodes = (
"130 221 LINE SMOOTH",
"130 54 OFFCURVE",
"184 -91 OFFCURVE",
"246 -168 CURVE",
"285 -160 OFFCURVE",
"326 -153 OFFCURVE",
"364 -144 CURVE",
"308 -69 OFFCURVE",
"256 67 OFFCURVE",
"256 225 CURVE SMOOTH",
"256 454 OFFCURVE",
"370 634 OFFCURVE",
"472 737 CURVE",
"436 745 OFFCURVE",
"397 752 OFFCURVE",
"360 760 CURVE",
"250 657 OFFCURVE",
"130 461 OFFCURVE",
"130 221 CURVE SMOOTH"
);
}
);
width = 450;
}
);
unicode = 0028;
},
{
glyphname = parenright;
lastChange = "2016-08-26 20:41:54 +0000";
layers = (
{
hints = (
{
horizontal = 1;
place = "{747, -20}";
target = down;
type = TopGhost;
},
{
horizontal = 1;
place = "{-163, 21}";
target = up;
type = BottomGhost;
}
);
layerId = UUID0;
paths = (
{
closed = 1;
nodes = (
"321 366 LINE SMOOTH",
"321 530 OFFCURVE",
"268 672 OFFCURVE",
"206 747 CURVE",
"204 739 OFFCURVE",
"202 732 OFFCURVE",
"200 724 CURVE",
"256 650 OFFCURVE",
"306 517 OFFCURVE",
"306 362 CURVE SMOOTH",
"306 138 OFFCURVE",
"195 -39 OFFCURVE",
"94 -140 CURVE",
"94 -148 OFFCURVE",
"94 -155 OFFCURVE",
"94 -163 CURVE",
"203 -61 OFFCURVE",
"321 131 OFFCURVE",
"321 366 CURVE SMOOTH"
);
}
);
width = 400;
},
{
hints = (
{
horizontal = 1;
place = "{743, -20}";
target = down;
type = TopGhost;
},
{
horizontal = 1;
place = "{-167, 21}";
target = up;
type = BottomGhost;
}
);
layerId = UUID1;
paths = (
{
closed = 1;
nodes = (
"378 367 LINE SMOOTH",
"378 534 OFFCURVE",
"325 679 OFFCURVE",
"261 756 CURVE",
"222 747 OFFCURVE",
"182 737 OFFCURVE",
"143 729 CURVE",
"201 653 OFFCURVE",
"251 518 OFFCURVE",
"251 360 CURVE SMOOTH",
"251 131 OFFCURVE",
"138 -50 OFFCURVE",
"35 -152 CURVE",
"72 -159 OFFCURVE",
"110 -166 OFFCURVE",
"147 -173 CURVE",
"259 -68 OFFCURVE",
"378 127 OFFCURVE",
"378 367 CURVE SMOOTH"
);
}
);
width = 408;
}
);
unicode = 0029;
},
{
glyphname = emdash;
lastChange = "2016-08-26 20:41:54 +0000";
layers = (
{
hints = (
{
horizontal = 1;
place = "{179, 21}";
target = up;
type = BottomGhost;
},
{
horizontal = 1;
place = "{193, -20}";
target = down;
type = TopGhost;
}
);
layerId = UUID0;
paths = (
{
closed = 1;
nodes = (
"121 179 LINE",
"623 179 LINE",
"625 193 LINE",
"123 193 LINE"
);
}
);
width = 700;
},
{
hints = (
{
horizontal = 1;
place = "{174, 21}";
target = up;
type = BottomGhost;
},
{
horizontal = 1;
place = "{255, -20}";
target = down;
type = TopGhost;
}
);
layerId = UUID1;
paths = (
{
closed = 1;
nodes = (
"121 165 LINE",
"633 165 LINE",
"648 286 LINE",
"136 286 LINE"
);
}
);
width = 714;
}
);
unicode = 2014;
},
{
glyphname = endash;
lastChange = "2016-08-26 20:41:54 +0000";
layers = (
{
hints = (
{
horizontal = 1;
place = "{179, 21}";
target = up;
type = BottomGhost;
},
{
horizontal = 1;
place = "{193, -20}";
target = down;
type = TopGhost;
}
);
layerId = UUID0;
paths = (
{
closed = 1;
nodes = (
"122 179 LINE",
"423 179 LINE",
"425 193 LINE",
"124 193 LINE"
);
}
);
width = 509;
},
{
hints = (
{
horizontal = 1;
place = "{174, 21}";
target = up;
type = BottomGhost;
},
{
horizontal = 1;
place = "{255, -20}";
target = down;
type = TopGhost;
}
);
layerId = UUID1;
paths = (
{
closed = 1;
nodes = (
"122 165 LINE",
"429 165 LINE",
"444 286 LINE",
"137 286 LINE"
);
}
);
width = 519;
}
);
unicode = 2013;
},
{
glyphname = hyphen;
lastChange = "2016-08-26 20:41:54 +0000";
layers = (
{
hints = (
{
horizontal = 1;
place = "{184, 21}";
target = up;
type = BottomGhost;
},
{
horizontal = 1;
place = "{198, -20}";
target = down;
type = TopGhost;
}
);
layerId = UUID0;
paths = (
{
closed = 1;
nodes = (
"76 184 LINE",
"260 184 LINE",
"262 198 LINE",
"78 198 LINE"
);
}
);
width = 300;
},
{
hints = (
{
horizontal = 1;
place = "{147, 21}";
target = up;
type = BottomGhost;
},
{
horizontal = 1;
place = "{228, -20}";
target = down;
type = TopGhost;
}
);
layerId = UUID1;
paths = (
{
closed = 1;
nodes = (
"75 168 LINE",
"263 168 LINE",
"278 290 LINE",
"90 290 LINE"
);
}
);
width = 306;
}
);
unicode = 002D;
},
{
glyphname = guillemetleft;
lastChange = "2016-08-26 20:41:54 +0000";
layers = (
{
hints = (
{
horizontal = 1;
place = "{400, -20}";
target = down;
type = TopGhost;
},
{
horizontal = 1;
place = "{77, 21}";
target = up;
type = BottomGhost;
}
);
layerId = UUID0;
paths = (
{
closed = 1;
nodes = (
"297 77 LINE",
"299 93 LINE",
"258 142 OFFCURVE",
"216 190 OFFCURVE",
"175 239 CURVE",
"228 287 OFFCURVE",
"282 335 OFFCURVE",
"335 383 CURVE",
"337 400 LINE",
"273 346 OFFCURVE",
"210 293 OFFCURVE",
"146 239 CURVE"
);
},
{
closed = 1;
nodes = (
"468 77 LINE",
"470 93 LINE",
"429 142 OFFCURVE",
"387 190 OFFCURVE",
"346 239 CURVE",
"399 287 OFFCURVE",
"453 335 OFFCURVE",
"506 383 CURVE",
"508 400 LINE",
"444 346 OFFCURVE",
"381 293 OFFCURVE",
"317 239 CURVE"
);
}
);
width = 601;
},
{
hints = (
{
horizontal = 1;
place = "{400, -20}";
target = down;
type = TopGhost;
},
{
horizontal = 1;
place = "{77, 21}";
target = up;
type = BottomGhost;
}
);
layerId = UUID1;
paths = (
{
closed = 1;
nodes = (
"298 39 LINE",
"315 181 LINE",
"315 181 OFFCURVE",
"282 244 OFFCURVE",
"282 244 CURVE",
"282 244 OFFCURVE",
"331 306 OFFCURVE",
"331 306 CURVE",
"348 448 LINE",
"348 448 OFFCURVE",
"149 244 OFFCURVE",
"149 244 CURVE"
);
},
{
closed = 1;
nodes = (
"473 39 LINE",
"490 181 LINE",
"490 181 OFFCURVE",
"456 244 OFFCURVE",
"456 244 CURVE",
"456 244 OFFCURVE",
"506 307 OFFCURVE",
"506 307 CURVE",
"523 448 LINE",
"523 448 OFFCURVE",
"323 244 OFFCURVE",
"323 244 CURVE"
);
}
);
width = 613;
}
);
unicode = 00AB;
},
{
glyphname = guilsinglleft;
lastChange = "2016-08-26 20:41:54 +0000";
layers = (
{
hints = (
{
horizontal = 1;
place = "{400, -20}";
target = down;
type = TopGhost;
},
{
horizontal = 1;
place = "{77, 21}";
target = up;
type = BottomGhost;
}
);
layerId = UUID0;
paths = (
{
closed = 1;
nodes = (
"297 77 LINE",
"299 93 LINE",
"258 142 OFFCURVE",
"216 190 OFFCURVE",
"175 239 CURVE",
"228 287 OFFCURVE",
"282 335 OFFCURVE",
"335 383 CURVE",
"337 400 LINE",
"273 346 OFFCURVE",
"210 293 OFFCURVE",
"146 239 CURVE"
);
}
);
width = 392;
},
{
hints = (
{
horizontal = 1;
place = "{400, -20}";
target = down;
type = TopGhost;
},
{
horizontal = 1;
place = "{77, 21}";
target = up;
type = BottomGhost;
}
);
layerId = UUID1;
paths = (
{
closed = 1;
nodes = (
"298 39 LINE",
"315 181 LINE",
"315 181 OFFCURVE",
"282 244 OFFCURVE",
"282 244 CURVE",
"282 244 OFFCURVE",
"331 306 OFFCURVE",
"331 306 CURVE",
"348 448 LINE",
"348 448 OFFCURVE",
"149 244 OFFCURVE",
"149 244 CURVE"
);
}
);
width = 399;
}
);
unicode = 2039;
},
{
glyphname = quotedblbase;
lastChange = "2016-08-26 20:41:54 +0000";
layers = (
{
hints = (
{
horizontal = 1;
place = "{-47, 21}";
target = up;
type = BottomGhost;
},
{
horizontal = 1;
place = "{92, -20}";
target = down;
type = TopGhost;
}
);
layerId = UUID0;
paths = (
{
closed = 1;
nodes = (
"20 -47 LINE",
"63 -12 OFFCURVE",
"87 39 OFFCURVE",
"83 92 CURVE",
"77 90 OFFCURVE",
"69 87 OFFCURVE",
"63 85 CURVE",
"66 39 OFFCURVE",
"47 -2 OFFCURVE",
"16 -29 CURVE",
"17 -35 OFFCURVE",
"19 -41 OFFCURVE",
"20 -47 CURVE"
);
},
{
closed = 1;
nodes = (
"124 -47 LINE",
"167 -12 OFFCURVE",
"191 39 OFFCURVE",
"187 92 CURVE",
"181 90 OFFCURVE",
"173 87 OFFCURVE",
"167 85 CURVE",
"170 39 OFFCURVE",
"151 -2 OFFCURVE",
"120 -29 CURVE",
"121 -35 OFFCURVE",
"123 -41 OFFCURVE",
"124 -47 CURVE"
);
}
);
width = 234;
},
{
hints = (
{
horizontal = 1;
place = "{-53, 21}";
target = up;
type = BottomGhost;
},
{
horizontal = 1;
place = "{92, -20}";
target = down;
type = TopGhost;
}
);
layerId = UUID1;
paths = (
{
closed = 1;
nodes = (
"74 -58 LINE",
"115 -19 OFFCURVE",
"140 37 OFFCURVE",
"136 94 CURVE",
"112 92 OFFCURVE",
"87 89 OFFCURVE",
"63 87 CURVE",
"67 40 OFFCURVE",
"47 -2 OFFCURVE",
"15 -30 CURVE",
"35 -39 OFFCURVE",
"54 -48 OFFCURVE",
"74 -58 CURVE"
);
},
{
closed = 1;
nodes = (
"180 -58 LINE",
"221 -19 OFFCURVE",
"246 37 OFFCURVE",
"242 94 CURVE",
"218 92 OFFCURVE",
"193 89 OFFCURVE",
"169 87 CURVE",
"173 40 OFFCURVE",
"153 -2 OFFCURVE",
"121 -30 CURVE",
"141 -39 OFFCURVE",
"160 -48 OFFCURVE",
"180 -58 CURVE"
);
}
);
width = 410;
}
);
unicode = 201E;
},
{
glyphname = quotedblleft;
lastChange = "2016-08-26 20:41:54 +0000";
layers = (
{
hints = (
{
horizontal = 1;
place = "{711, -20}";
target = down;
type = TopGhost;
},
{
horizontal = 1;
place = "{572, 21}";
target = up;
type = BottomGhost;
}
);
layerId = UUID0;
paths = (
{
closed = 1;
nodes = (
"155 590 LINE",
"131 617 OFFCURVE",
"122 658 OFFCURVE",
"136 704 CURVE",
"131 706 OFFCURVE",
"124 709 OFFCURVE",
"118 711 CURVE",
"101 658 OFFCURVE",
"113 607 OFFCURVE",
"147 572 CURVE",
"150 578 OFFCURVE",
"153 584 OFFCURVE",
"155 590 CURVE"
);
},
{
closed = 1;
nodes = (
"259 590 LINE",
"235 617 OFFCURVE",
"226 658 OFFCURVE",
"240 704 CURVE",
"235 706 OFFCURVE",
"228 709 OFFCURVE",
"222 711 CURVE",
"205 658 OFFCURVE",
"217 607 OFFCURVE",
"251 572 CURVE",
"254 578 OFFCURVE",
"257 584 OFFCURVE",
"259 590 CURVE"
);
}
);
width = 249;
},
{
hints = (
{
horizontal = 1;
place = "{711, -20}";
target = down;
type = TopGhost;
},
{
horizontal = 1;
place = "{566, 21}";
target = up;
type = BottomGhost;
}
);
layerId = UUID1;
paths = (
{
closed = 1;
nodes = (
"211 602 LINE",
"186 629 OFFCURVE",
"176 671 OFFCURVE",
"191 718 CURVE",
"168 720 OFFCURVE",
"144 723 OFFCURVE",
"120 725 CURVE",
"102 668 OFFCURVE",
"113 613 OFFCURVE",
"145 574 CURVE",
"168 583 OFFCURVE",
"189 592 OFFCURVE",
"211 602 CURVE"
);
},
{
closed = 1;
nodes = (
"317 602 LINE",
"292 629 OFFCURVE",
"282 671 OFFCURVE",
"297 718 CURVE",
"274 720 OFFCURVE",
"250 723 OFFCURVE",
"226 725 CURVE",
"208 668 OFFCURVE",
"219 613 OFFCURVE",
"251 574 CURVE",
"274 583 OFFCURVE",
"295 592 OFFCURVE",
"317 602 CURVE"
);
}
);
width = 253;
}
);
unicode = 201C;
},
{
glyphname = quotedblright;
lastChange = "2016-08-26 20:41:54 +0000";
layers = (
{
hints = (
{
horizontal = 1;
place = "{572, 21}";
target = up;
type = BottomGhost;
},
{
horizontal = 1;
place = "{711, -20}";
target = down;
type = TopGhost;
}
);
layerId = UUID0;
paths = (
{
closed = 1;
nodes = (
"120 572 LINE",
"164 607 OFFCURVE",
"188 658 OFFCURVE",
"183 711 CURVE",
"177 709 OFFCURVE",
"170 706 OFFCURVE",
"163 704 CURVE",
"167 658 OFFCURVE",
"148 617 OFFCURVE",
"116 590 CURVE",
"118 584 OFFCURVE",
"119 578 OFFCURVE",
"120 572 CURVE"
);
},
{
closed = 1;
nodes = (
"224 572 LINE",
"268 607 OFFCURVE",
"292 658 OFFCURVE",
"287 711 CURVE",
"281 709 OFFCURVE",
"274 706 OFFCURVE",
"267 704 CURVE",
"271 658 OFFCURVE",
"252 617 OFFCURVE",
"220 590 CURVE",
"222 584 OFFCURVE",
"223 578 OFFCURVE",
"224 572 CURVE"
);
}
);
width = 248;
},
{
hints = (
{
horizontal = 1;
place = "{566, 21}";
target = up;
type = BottomGhost;
},
{
horizontal = 1;
place = "{711, -20}";
target = down;
type = TopGhost;
}
);
layerId = UUID1;
paths = (
{
closed = 1;
nodes = (
"124 574 LINE",
"166 613 OFFCURVE",
"191 668 OFFCURVE",
"187 725 CURVE",
"163 723 OFFCURVE",
"137 720 OFFCURVE",
"114 718 CURVE",
"117 671 OFFCURVE",
"98 629 OFFCURVE",
"66 602 CURVE",
"86 592 OFFCURVE",
"105 583 OFFCURVE",
"124 574 CURVE"
);
},
{
closed = 1;
nodes = (
"230 574 LINE",
"272 613 OFFCURVE",
"297 668 OFFCURVE",
"293 725 CURVE",
"269 723 OFFCURVE",
"243 720 OFFCURVE",
"220 718 CURVE",
"223 671 OFFCURVE",
"204 629 OFFCURVE",
"172 602 CURVE",
"192 592 OFFCURVE",
"211 583 OFFCURVE",
"230 574 CURVE"
);
}
);
width = 253;
}
);
unicode = 201D;
},
{
glyphname = quoteleft;
lastChange = "2016-08-26 20:41:54 +0000";
layers = (
{
hints = (
{
horizontal = 1;
place = "{711, -20}";
target = down;
type = TopGhost;
},
{
horizontal = 1;
place = "{572, 21}";
target = up;
type = BottomGhost;
}
);
layerId = UUID0;
paths = (
{
closed = 1;
nodes = (
"164 590 LINE",
"140 617 OFFCURVE",
"131 658 OFFCURVE",
"145 704 CURVE",
"140 706 OFFCURVE",
"133 709 OFFCURVE",
"127 711 CURVE",
"110 658 OFFCURVE",
"122 607 OFFCURVE",
"156 572 CURVE",
"159 578 OFFCURVE",
"162 584 OFFCURVE",
"164 590 CURVE"
);
}
);
width = 164;
},
{
hints = (
{
horizontal = 1;
place = "{711, -20}";
target = down;
type = TopGhost;
},
{
horizontal = 1;
place = "{566, 21}";
target = up;
type = BottomGhost;
}
);
layerId = UUID1;
paths = (
{
closed = 1;
nodes = (
"206 602 LINE",
"181 629 OFFCURVE",
"171 671 OFFCURVE",
"186 718 CURVE",
"163 720 OFFCURVE",
"139 723 OFFCURVE",
"115 725 CURVE",
"97 668 OFFCURVE",
"108 613 OFFCURVE",
"140 574 CURVE",
"163 583 OFFCURVE",
"184 592 OFFCURVE",
"206 602 CURVE"
);
}
);
width = 167;
}
);
unicode = 2018;
},
{
glyphname = quoteright;
lastChange = "2016-08-26 20:41:54 +0000";
layers = (
{
hints = (
{
horizontal = 1;
place = "{572, 21}";
target = up;
type = BottomGhost;
},
{
horizontal = 1;
place = "{711, -20}";
target = down;
type = TopGhost;
}
);
layerId = UUID0;
paths = (
{
closed = 1;
nodes = (
"135 572 LINE",
"179 607 OFFCURVE",
"203 658 OFFCURVE",
"198 711 CURVE",
"192 709 OFFCURVE",
"185 706 OFFCURVE",
"178 704 CURVE",
"182 658 OFFCURVE",
"163 617 OFFCURVE",
"131 590 CURVE",
"133 584 OFFCURVE",
"134 578 OFFCURVE",
"135 572 CURVE"
);
}
);
width = 164;
},
{
hints = (
{
horizontal = 1;
place = "{566, 21}";
target = up;
type = BottomGhost;
},
{
horizontal = 1;
place = "{711, -20}";
target = down;
type = TopGhost;
}
);
layerId = UUID1;
paths = (
{
closed = 1;
nodes = (
"154 574 LINE",
"196 613 OFFCURVE",
"221 668 OFFCURVE",
"217 725 CURVE",
"193 723 OFFCURVE",
"167 720 OFFCURVE",
"144 718 CURVE",
"147 671 OFFCURVE",
"128 629 OFFCURVE",
"96 602 CURVE",
"116 592 OFFCURVE",
"135 583 OFFCURVE",
"154 574 CURVE"
);
}
);
width = 167;
}
);
unicode = 2019;
},
{
glyphname = quotesinglbase;
lastChange = "2016-08-26 20:41:54 +0000";
layers = (
{
hints = (
{
horizontal = 1;
place = "{-47, 21}";
target = up;
type = BottomGhost;
},
{
horizontal = 1;
place = "{92, -20}";
target = down;
type = TopGhost;
}
);
layerId = UUID0;
paths = (
{
closed = 1;
nodes = (
"20 -47 LINE",
"63 -12 OFFCURVE",
"87 39 OFFCURVE",
"83 92 CURVE",
"77 90 OFFCURVE",
"69 87 OFFCURVE",
"63 85 CURVE",
"66 39 OFFCURVE",
"47 -2 OFFCURVE",
"16 -29 CURVE",
"17 -35 OFFCURVE",
"19 -41 OFFCURVE",
"20 -47 CURVE"
);
}
);
width = 146;
},
{
hints = (
{
horizontal = 1;
place = "{-53, 21}";
target = up;
type = BottomGhost;
},
{
horizontal = 1;
place = "{92, -20}";
target = down;
type = TopGhost;
}
);
layerId = UUID1;
paths = (
{
closed = 1;
nodes = (
"74 -58 LINE",
"115 -19 OFFCURVE",
"140 37 OFFCURVE",
"136 94 CURVE",
"112 92 OFFCURVE",
"87 89 OFFCURVE",
"63 87 CURVE",
"67 40 OFFCURVE",
"47 -2 OFFCURVE",
"15 -30 CURVE",
"35 -39 OFFCURVE",
"54 -48 OFFCURVE",
"74 -58 CURVE"
);
}
);
width = 149;
}
);
unicode = 201A;
},
{
glyphname = cent;
lastChange = "2016-08-26 20:41:54 +0000";
layers = (
{
hints = (
{
place = "{36, 193}";
},
{
horizontal = 1;
place = "{438, -20}";
target = down;
type = TopGhost;
},
{
horizontal = 1;
place = "{-68, 21}";
target = up;
type = BottomGhost;
}
);
layerId = UUID0;
paths = (
{
closed = 1;
nodes = (
"349 47 LINE",
"315 23 OFFCURVE",
"274 8 OFFCURVE",
"231 8 CURVE SMOOTH",
"139 8 OFFCURVE",
"72 79 OFFCURVE",
"72 170 CURVE SMOOTH",
"72 278 OFFCURVE",
"168 369 OFFCURVE",
"276 369 CURVE SMOOTH",
"319 369 OFFCURVE",
"356 354 OFFCURVE",
"384 329 CURVE",
"387 333 OFFCURVE",
"392 336 OFFCURVE",
"395 340 CURVE",
"365 367 OFFCURVE",
"324 383 OFFCURVE",
"277 383 CURVE SMOOTH",
"161 383 OFFCURVE",
"58 285 OFFCURVE",
"58 168 CURVE SMOOTH",
"58 70 OFFCURVE",
"130 -6 OFFCURVE",
"230 -6 CURVE SMOOTH",
"277 -6 OFFCURVE",
"321 10 OFFCURVE",
"358 37 CURVE",
"355 40 OFFCURVE",
"352 44 OFFCURVE",
"349 47 CURVE"
);
},
{
closed = 1;
nodes = (
"207 -68 LINE",
"221 -68 LINE",
"283 438 LINE",
"269 438 LINE"
);
}
);
width = 379;
},
{
hints = (
{
place = "{36, 227}";
},
{
horizontal = 1;
place = "{438, -20}";
target = down;
type = TopGhost;
},
{
horizontal = 1;
place = "{-68, 21}";
target = up;
type = BottomGhost;
}
);
layerId = UUID1;
paths = (
{
closed = 1;
nodes = (
"370 127 LINE",
"349 111 OFFCURVE",
"322 102 OFFCURVE",
"291 102 CURVE SMOOTH",
"225 102 OFFCURVE",
"186 148 OFFCURVE",
"186 206 CURVE SMOOTH",
"186 280 OFFCURVE",
"241 335 OFFCURVE",
"320 335 CURVE SMOOTH",
"350 335 OFFCURVE",
"376 326 OFFCURVE",
"393 311 CURVE",
"422 341 OFFCURVE",
"450 369 OFFCURVE",
"478 398 CURVE",
"440 429 OFFCURVE",
"392 449 OFFCURVE",
"334 449 CURVE SMOOTH",
"194 449 OFFCURVE",
"69 333 OFFCURVE",
"69 196 CURVE SMOOTH",
"69 82 OFFCURVE",
"157 -12 OFFCURVE",
"277 -12 CURVE SMOOTH",
"333 -12 OFFCURVE",
"387 8 OFFCURVE",
"430 39 CURVE",
"409 69 OFFCURVE",
"392 97 OFFCURVE",
"370 127 CURVE"
);
},
{
closed = 1;
nodes = (
"200 -68 LINE",
"284 -68 LINE",
"355 506 LINE",
"271 506 LINE"
);
}
);
width = 385;
}
);
unicode = 00A2;
},
{
glyphname = currency;
lastChange = "2016-08-26 20:41:54 +0000";
layers = (
{
hints = (
{
horizontal = 1;
place = "{219, 21}";
target = up;
type = BottomGhost;
},
{
horizontal = 1;
place = "{496, -20}";
target = down;
type = TopGhost;
}
);
layerId = UUID0;
paths = (
{
closed = 1;
nodes = (
"445 485 LINE",
"436 495 LINE",
"393 457 LINE",
"393 457 LINE",
"373 480 OFFCURVE",
"343 494 OFFCURVE",
"308 494 CURVE SMOOTH",
"273 494 OFFCURVE",
"239 480 OFFCURVE",
"213 458 CURVE",
"180 496 LINE",
"169 486 LINE",
"180 473 OFFCURVE",
"191 461 OFFCURVE",
"202 448 CURVE",
"175 420 OFFCURVE",
"158 386 OFFCURVE",
"158 347 CURVE SMOOTH",
"158 347 LINE SMOOTH",
"158 318 OFFCURVE",
"167 290 OFFCURVE",
"183 270 CURVE",
"137 229 LINE",
"146 219 LINE",
"192 260 LINE",
"192 260 LINE",
"212 240 OFFCURVE",
"242 228 OFFCURVE",
"275 228 CURVE SMOOTH",
"308 228 OFFCURVE",
"340 240 OFFCURVE",
"366 261 CURVE",
"378 247 OFFCURVE",
"390 234 OFFCURVE",
"402 220 CURVE",
"413 230 LINE",
"377 271 LINE",
"405 299 OFFCURVE",
"424 333 OFFCURVE",
"424 374 CURVE SMOOTH",
"424 402 OFFCURVE",
"416 428 OFFCURVE",
"402 447 CURVE"
);
},
{
closed = 1;
nodes = (
"172 349 LINE SMOOTH",
"172 421 OFFCURVE",
"236 480 OFFCURVE",
"306 480 CURVE SMOOTH",
"366 480 OFFCURVE",
"410 433 OFFCURVE",
"410 373 CURVE SMOOTH",
"410 301 OFFCURVE",
"347 242 OFFCURVE",
"277 242 CURVE SMOOTH",
"217 242 OFFCURVE",
"172 289 OFFCURVE",
"172 349 CURVE SMOOTH"
);
}
);
width = 500;
},
{
hints = (
{
horizontal = 1;
place = "{196, 21}";
target = up;
type = BottomGhost;
},
{
horizontal = 1;
place = "{522, -20}";
target = down;
type = TopGhost;
}
);
layerId = UUID1;
paths = (
{
closed = 1;
nodes = (
"467 463 LINE",
"415 522 LINE",
"388 498 LINE",
"388 498 LINE",
"366 511 OFFCURVE",
"340 519 OFFCURVE",
"311 519 CURVE SMOOTH",
"282 519 OFFCURVE",
"256 510 OFFCURVE",
"229 498 CURVE",
"208 522 LINE",
"142 463 LINE",
"149 455 OFFCURVE",
"155 447 OFFCURVE",
"162 439 CURVE",
"143 411 OFFCURVE",
"130 381 OFFCURVE",
"130 344 CURVE SMOOTH",
"130 344 LINE SMOOTH",
"130 321 OFFCURVE",
"135 298 OFFCURVE",
"143 279 CURVE",
"116 255 LINE",
"168 196 LINE",
"196 221 LINE",
"196 221 LINE",
"218 209 OFFCURVE",
"243 202 OFFCURVE",
"272 202 CURVE SMOOTH",
"301 202 OFFCURVE",
"329 209 OFFCURVE",
"353 222 CURVE",
"361 214 OFFCURVE",
"368 205 OFFCURVE",
"376 197 CURVE",
"442 256 LINE",
"421 280 LINE",
"444 310 OFFCURVE",
"455 341 OFFCURVE",
"455 376 CURVE SMOOTH",
"455 398 OFFCURVE",
"451 422 OFFCURVE",
"442 441 CURVE"
);
},
{
closed = 1;
nodes = (
"215 352 LINE SMOOTH",
"215 399 OFFCURVE",
"257 438 OFFCURVE",
"302 438 CURVE SMOOTH",
"342 438 OFFCURVE",
"371 407 OFFCURVE",
"371 368 CURVE SMOOTH",
"371 322 OFFCURVE",
"329 283 OFFCURVE",
"283 283 CURVE SMOOTH",
"244 283 OFFCURVE",
"215 314 OFFCURVE",
"215 352 CURVE SMOOTH"
);
}
);
width = 500;
}
);
unicode = 00A4;
},
{
glyphname = dollar;
lastChange = "2016-08-26 20:41:54 +0000";
layers = (
{
hints = (
{
place = "{100, 178}";
},
{
place = "{264, 220}";
},
{
horizontal = 1;
place = "{764, -20}";
target = down;
type = TopGhost;
},
{
horizontal = 1;
place = "{-68, 21}";
target = up;
type = BottomGhost;
},
{
horizontal = 1;
place = "{704, -20}";
target = down;
type = TopGhost;
},
{
horizontal = 1;
place = "{-8, 21}";
target = up;
type = BottomGhost;
}
);
layerId = UUID0;
paths = (
{
closed = 1;
nodes = (
"535 667 LINE",
"535 667 LINE",
"490 689 OFFCURVE",
"416 704 OFFCURVE",
"368 704 CURVE SMOOTH",
"256 704 OFFCURVE",
"161 627 OFFCURVE",
"161 529 CURVE SMOOTH",
"161 355 OFFCURVE",
"500 414 OFFCURVE",
"500 207 CURVE SMOOTH",
"500 72 OFFCURVE",
"383 6 OFFCURVE",
"276 6 CURVE SMOOTH",
"194 6 OFFCURVE",
"118 47 OFFCURVE",
"82 76 CURVE",
"72 63 LINE",
"93 49 OFFCURVE",
"162 -8 OFFCURVE",
"271 -8 CURVE SMOOTH",
"407 -8 OFFCURVE",
"514 76 OFFCURVE",
"514 210 CURVE SMOOTH",
"514 426 OFFCURVE",
"175 370 OFFCURVE",
"175 533 CURVE SMOOTH",
"175 617 OFFCURVE",
"254 691 OFFCURVE",
"372 691 CURVE SMOOTH",
"430 691 OFFCURVE",
"494 672 OFFCURVE",
"528 656 CURVE"
);
},
{
closed = 1;
nodes = (
"256 -68 LINE",
"270 -68 LINE",
"372 764 LINE",
"358 764 LINE"
);
}
);
width = 567;
},
{
hints = (
{
place = "{74, 242}";
},
{
place = "{232, 252}";
},
{
horizontal = 1;
place = "{764, -20}";
target = down;
type = TopGhost;
},
{
horizontal = 1;
place = "{-68, 21}";
target = up;
type = BottomGhost;
},
{
horizontal = 1;
place = "{704, -20}";
target = down;
type = TopGhost;
},
{
horizontal = 1;
place = "{-8, 21}";
target = up;
type = BottomGhost;
}
);
layerId = UUID1;
paths = (
{
closed = 1;
nodes = (
"635 693 LINE",
"635 693 LINE",
"635 693 OFFCURVE",
"536 740 OFFCURVE",
"420 740 CURVE SMOOTH",
"226 740 OFFCURVE",
"133 613 OFFCURVE",
"133 506 CURVE SMOOTH",
"133 312 OFFCURVE",
"451 327 OFFCURVE",
"451 221 CURVE SMOOTH",
"451 147 OFFCURVE",
"317 138 OFFCURVE",
"281 138 CURVE SMOOTH",
"240 138 OFFCURVE",
"173 150 OFFCURVE",
"118 181 CURVE",
"37 50 LINE",
"77 24 OFFCURVE",
"149 -8 OFFCURVE",
"266 -8 CURVE SMOOTH",
"469 -8 OFFCURVE",
"600 87 OFFCURVE",
"600 236 CURVE SMOOTH",
"600 446 OFFCURVE",
"283 426 OFFCURVE",
"283 529 CURVE SMOOTH",
"283 573 OFFCURVE",
"335 603 OFFCURVE",
"412 603 CURVE SMOOTH",
"457 603 OFFCURVE",
"509 592 OFFCURVE",
"567 571 CURVE"
);
},
{
closed = 1;
nodes = (
"264 -68 LINE",
"348 -68 LINE",
"455 804 LINE",
"371 804 LINE"
);
}
);
width = 567;
}
);
unicode = 0024;
},
{
glyphname = euro;
lastChange = "2016-08-26 20:41:54 +0000";
layers = (
{
hints = (
{
horizontal = 1;
place = "{150, 208}";
}
);
layerId = UUID0;
paths = (
{
closed = 1;
nodes = (
"555 634 LINE",
"549 639 OFFCURVE",
"512 658 OFFCURVE",
"459 658 CURVE SMOOTH",
"258 658 OFFCURVE",
"163 454 OFFCURVE",
"147 327 CURVE SMOOTH",
"123 141 OFFCURVE",
"225 -6 OFFCURVE",
"371 -7 CURVE SMOOTH",
"414 -7 OFFCURVE",
"456 5 OFFCURVE",
"495 27 CURVE",
"484 35 LINE",
"449 17 OFFCURVE",
"410 7 OFFCURVE",
"374 7 CURVE SMOOTH",
"245 7 OFFCURVE",
"137 134 OFFCURVE",
"162 328 CURVE SMOOTH",
"187 523 OFFCURVE",
"314 645 OFFCURVE",
"457 644 CURVE SMOOTH",
"491 644 OFFCURVE",
"521 637 OFFCURVE",
"548 624 CURVE"
);
},
{
closed = 1;
nodes = (
"79 273 LINE",
"405 273 LINE",
"407 287 LINE",
"81 287 LINE"
);
},
{
closed = 1;
nodes = (
"91 379 LINE",
"418 379 LINE",
"420 393 LINE",
"93 393 LINE"
);
}
);
width = 616;
},
{
hints = (
{
horizontal = 1;
place = "{112, 275}";
}
);
layerId = UUID1;
paths = (
{
closed = 1;
nodes = (
"580 638 LINE",
"544 660 OFFCURVE",
"501 671 OFFCURVE",
"454 671 CURVE SMOOTH",
"305 671 OFFCURVE",
"134 567 OFFCURVE",
"134 276 CURVE SMOOTH",
"134 86 OFFCURVE",
"234 -8 OFFCURVE",
"369 -9 CURVE SMOOTH",
"414 -9 OFFCURVE",
"458 0 OFFCURVE",
"497 20 CURVE",
"452 136 LINE",
"430 121 OFFCURVE",
"406 113 OFFCURVE",
"383 113 CURVE SMOOTH",
"334 113 OFFCURVE",
"263 154 OFFCURVE",
"263 306 CURVE SMOOTH",
"263 453 OFFCURVE",
"312 550 OFFCURVE",
"436 550 CURVE SMOOTH",
"471 550 OFFCURVE",
"491 542 OFFCURVE",
"510 527 CURVE"
);
},
{
closed = 1;
nodes = (
"62 240 LINE",
"450 240 LINE",
"458 303 LINE",
"70 303 LINE"
);
},
{
closed = 1;
nodes = (
"74 348 LINE",
"463 348 LINE",
"471 411 LINE",
"82 411 LINE"
);
}
);
width = 652;
}
);
unicode = 20AC;
},
